{
.appVersion = "1131";
DisplayStrings = (
"the qu/i.001 ck brown fox \012jumps over the l/a.001 zy dog\012THE QUICK BROWN FOX \012JUMPS OVER THE LAZY DOG\012",
"STrù/g_g 2"
);
classes = (
{
code = "";
name = xxxx;
},
{
code = "";
name = xxxx;
},
{
code = "";
name = xxxx;
},
{
code = "";
name = xxxx;
},
{
code = "";
name = xxxx;
}
);
copyright = "Copyright © 2021, Marielle Nils <nilsmarielle@gmail.com>, Velvetyne Type Foundry";
customParameters = (
{
name = license;

glyphs = (
{
glyphname = A;
lastChange = "2022-01-25 22:23:48 +0000";
layers = (
{
layerId = "A0EF8C6F-60C0-4D2A-A4F7-7A1091FA18C1";
paths = (
{
closed = 1;
nodes = (
"449 626 OFFCURVE",
"483 652 OFFCURVE",
"536 645 CURVE SMOOTH",
"606 637 OFFCURVE",
"611 554 OFFCURVE",
"543 554 CURVE SMOOTH",
"513 554 OFFCURVE",
"498 578 OFFCURVE",
"485 561 CURVE SMOOTH",
"467 539 OFFCURVE",
"519 507 OFFCURVE",
"523 471 CURVE SMOOTH",
"525 452 OFFCURVE",
"516 445 OFFCURVE",
"515 429 CURVE SMOOTH",
"514 414 OFFCURVE",
"524 400 OFFCURVE",
"524 379 CURVE SMOOTH",
"524 352 OFFCURVE",
"504 343 OFFCURVE",
"505 314 CURVE SMOOTH",
"506 284 OFFCURVE",
"535 251 OFFCURVE",
"537 217 CURVE SMOOTH",
"540 167 OFFCURVE",
"515 110 OFFCURVE",
"531 87 CURVE SMOOTH",
"545 67 OFFCURVE",
"568 92 OFFCURVE",
"592 87 CURVE SMOOTH",
"627 80 OFFCURVE",
"633 24 OFFCURVE",
"595 12 CURVE SMOOTH",
"565 3 OFFCURVE",
"537 8 OFFCURVE",
"502 -4 CURVE SMOOTH",
"467 -16 OFFCURVE",
"446 -44 OFFCURVE",
"399 -37 CURVE SMOOTH",
"361 -31 OFFCURVE",
"355 14 OFFCURVE",
"381 38 CURVE SMOOTH",
"396 53 OFFCURVE",
"420 40 OFFCURVE",
"441 54 CURVE SMOOTH",
"466 72 OFFCURVE",
"459 178 OFFCURVE",
"427 190 CURVE SMOOTH",
"400 201 OFFCURVE",
"383 183 OFFCURVE",
"359 186 CURVE SMOOTH",
"336 191 OFFCURVE",
"317 224 OFFCURVE",
"292 220 CURVE SMOOTH",
"260 217 OFFCURVE",
"274 178 OFFCURVE",
"259 154 CURVE SMOOTH",
"243 130 OFFCURVE",
"201 123 OFFCURVE",
"222 89 CURVE SMOOTH",
"234 68 OFFCURVE",
"278 102 OFFCURVE",
"301 95 CURVE SMOOTH",
"335 84 OFFCURVE",
"343 36 OFFCURVE",
"310 21 CURVE SMOOTH",
"292 12 OFFCURVE",
"281 24 OFFCURVE",
"265 22 CURVE SMOOTH",
"240 19 OFFCURVE",
"229 -10 OFFCURVE",
"197 -11 CURVE SMOOTH",
"160 -13 OFFCURVE",
"158 4 OFFCURVE",
"133 8 CURVE SMOOTH",
"106 12 OFFCURVE",
"90 -10 OFFCURVE",
"58 0 CURVE SMOOTH",
"24 11 OFFCURVE",
"13 83 OFFCURVE",
"68 93 CURVE SMOOTH",
"100 99 OFFCURVE",
"106 75 OFFCURVE",
"141 101 CURVE SMOOTH",
"173 124 OFFCURVE",
"156 186 OFFCURVE",
"172 223 CURVE SMOOTH",
"187 257 OFFCURVE",
"230 276 OFFCURVE",
"242 308 CURVE SMOOTH",
"256 345 OFFCURVE",
"248 400 OFFCURVE",
"264 441 CURVE SMOOTH",
"280 490 OFFCURVE",
"366 507 OFFCURVE",
"362 542 CURVE SMOOTH",
"358 581 OFFCURVE",
"310 565 OFFCURVE",
"283 582 CURVE SMOOTH",
"243 607 OFFCURVE",
"242 677 OFFCURVE",
"313 667 CURVE SMOOTH",
"362 660 OFFCURVE",
"367 632 OFFCURVE",
"410 629 CURVE SMOOTH"
);
},
{
closed = 1;
nodes = (
"397 529 OFFCURVE",
"399 471 OFFCURVE",
"388 436 CURVE SMOOTH",
"375 400 OFFCURVE",
"293 335 OFFCURVE",
"319 295 CURVE SMOOTH",
"335 271 OFFCURVE",
"352 295 OFFCURVE",
"376 290 CURVE SMOOTH",
"394 286 OFFCURVE",
"424 255 OFFCURVE",
"437 282 CURVE SMOOTH",
"451 305 OFFCURVE",
"412 348 OFFCURVE",
"414 382 CURVE SMOOTH",
"415 436 OFFCURVE",
"464 507 OFFCURVE",
"427 518 CURVE SMOOTH"
);
}
);
width = 657;
}
);
leftKerningGroup = A;
rightKerningGroup = A;
unicode = 0041;
},
{
color = 4;
glyphname = Aacute;
lastChange = "2021-12-21 18:19:39 +0000";
layers = (
{
components = (
{
name = A;
}
);
layerId = "A0EF8C6F-60C0-4D2A-A4F7-7A1091FA18C1";
paths = (
{
closed = 1;
nodes = (
"389 664 OFFCURVE",
"381 681 OFFCURVE",
"386 692 CURVE SMOOTH",
"395 711 OFFCURVE",
"430 717 OFFCURVE",
"457 736 CURVE SMOOTH",
"492 760 OFFCURVE",
"494 797 OFFCURVE",
"530 799 CURVE SMOOTH",
"564 801 OFFCURVE",
"579 752 OFFCURVE",
"549 716 CURVE SMOOTH",
"518 679 OFFCURVE",
"454 657 OFFCURVE",
"408 662 CURVE SMOOTH"
);
}
);
width = 657;
}
);
leftKerningGroup = A;
rightKerningGroup = A;
unicode = 00C1;
},
{
color = 4;
glyphname = Acircumflex;
lastChange = "2021-10-14 13:17:15 +0000";
layers = (
{
components = (
{
name = A;
}
);
layerId = "A0EF8C6F-60C0-4D2A-A4F7-7A1091FA18C1";
paths = (
{
closed = 1;
nodes = (
"355 673 OFFCURVE",
"406 635 OFFCURVE",
"444 659 CURVE SMOOTH",
"474 678 OFFCURVE",
"486 718 OFFCURVE",
"515 718 CURVE SMOOTH",
"541 718 OFFCURVE",
"547 687 OFFCURVE",
"564 666 CURVE SMOOTH",
"599 622 OFFCURVE",
"658 678 OFFCURVE",
"624 718 CURVE SMOOTH",
"605 740 OFFCURVE",
"589 736 OFFCURVE",
"574 758 CURVE SMOOTH",
"562 775 OFFCURVE",
"557 807 OFFCURVE",
"524 804 CURVE SMOOTH",
"491 801 OFFCURVE",
"479 763 OFFCURVE",
"463 751 CURVE SMOOTH",
"444 737 OFFCURVE",
"411 731 OFFCURVE",
"390 709 CURVE SMOOTH"
);
}
);
width = 656;
}
);
leftKerningGroup = A;
rightKerningGroup = A;
unicode = 00C2;
},
{
color = 4;
glyphname = Adieresis;
lastChange = "2021-11-10 09:11:07 +0000";
layers = (
{
components = (
{
name = A;
}
);
layerId = "A0EF8C6F-60C0-4D2A-A4F7-7A1091FA18C1";
paths = (
{
closed = 1;
nodes = (
"433 652 OFFCURVE",
"467 669 OFFCURVE",
"481 696 CURVE SMOOTH",
"496 726 OFFCURVE",
"488 772 OFFCURVE",
"455 781 CURVE SMOOTH",
"421 790 OFFCURVE",
"391 772 OFFCURVE",
"378 741 CURVE SMOOTH",
"366 713 OFFCURVE",
"370 677 OFFCURVE",
"398 666 CURVE SMOOTH"
);
},
{
closed = 1;
nodes = (
"528 675 OFFCURVE",
"568 664 OFFCURVE",
"594 677 CURVE SMOOTH",
"620 690 OFFCURVE",
"625 724 OFFCURVE",
"615 751 CURVE SMOOTH",
"604 780 OFFCURVE",
"574 795 OFFCURVE",
"544 782 CURVE SMOOTH",
"514 769 OFFCURVE",
"506 733 OFFCURVE",
"517 704 CURVE SMOOTH"
);
}
);
width = 656;
}
);
leftKerningGroup = A;
rightKerningGroup = A;
unicode = 00C4;
},
{
color = 4;
glyphname = Agrave;
lastChange = "2021-11-01 19:44:11 +0000";
layers = (
{
layerId = "A0EF8C6F-60C0-4D2A-A4F7-7A1091FA18C1";
paths = (
{
closed = 1;
nodes = (
"405 656 OFFCURVE",
"341 678 OFFCURVE",
"310 715 CURVE SMOOTH",
"280 751 OFFCURVE",
"295 800 OFFCURVE",
"329 798 CURVE SMOOTH",
"365 796 OFFCURVE",
"367 759 OFFCURVE",
"402 735 CURVE SMOOTH",
"429 716 OFFCURVE",
"464 710 OFFCURVE",
"473 691 CURVE SMOOTH",
"478 680 OFFCURVE",
"470 663 OFFCURVE",
"451 661 CURVE SMOOTH"
);
},
{
closed = 1;
nodes = (
"449 626 OFFCURVE",
"483 652 OFFCURVE",
"536 645 CURVE SMOOTH",
"606 637 OFFCURVE",
"611 549 OFFCURVE",
"543 554 CURVE SMOOTH",
"513 556 OFFCURVE",
"501 570 OFFCURVE",
"485 556 CURVE SMOOTH",
"469 542 OFFCURVE",
"515 514 OFFCURVE",
"520 471 CURVE SMOOTH",
"522 452 OFFCURVE",
"513 445 OFFCURVE",
"512 429 CURVE SMOOTH",
"511 414 OFFCURVE",
"521 400 OFFCURVE",
"521 379 CURVE SMOOTH",
"521 352 OFFCURVE",
"501 343 OFFCURVE",
"502 314 CURVE SMOOTH",
"503 284 OFFCURVE",
"532 251 OFFCURVE",
"534 217 CURVE SMOOTH",
"537 167 OFFCURVE",
"515 110 OFFCURVE",
"531 87 CURVE SMOOTH",
"545 67 OFFCURVE",
"568 78 OFFCURVE",
"592 73 CURVE SMOOTH",
"627 66 OFFCURVE",
"633 10 OFFCURVE",
"595 -2 CURVE SMOOTH",
"565 -11 OFFCURVE",
"561 3 OFFCURVE",
"519 -3 CURVE SMOOTH",
"481 -8 OFFCURVE",
"446 -44 OFFCURVE",
"399 -37 CURVE SMOOTH",
"361 -31 OFFCURVE",
"355 14 OFFCURVE",
"381 38 CURVE SMOOTH",
"396 53 OFFCURVE",
"420 40 OFFCURVE",
"441 54 CURVE SMOOTH",
"466 72 OFFCURVE",
"459 178 OFFCURVE",
"427 190 CURVE SMOOTH",
"400 201 OFFCURVE",
"383 183 OFFCURVE",
"359 186 CURVE SMOOTH",
"336 191 OFFCURVE",
"317 224 OFFCURVE",
"292 220 CURVE SMOOTH",
"260 217 OFFCURVE",
"274 178 OFFCURVE",
"259 154 CURVE SMOOTH",
"243 130 OFFCURVE",
"201 123 OFFCURVE",
"222 89 CURVE SMOOTH",
"234 68 OFFCURVE",
"278 102 OFFCURVE",
"301 95 CURVE SMOOTH",
"335 84 OFFCURVE",
"343 36 OFFCURVE",
"310 21 CURVE SMOOTH",
"292 12 OFFCURVE",
"281 24 OFFCURVE",
"265 22 CURVE SMOOTH",
"240 19 OFFCURVE",
"229 -10 OFFCURVE",
"197 -11 CURVE SMOOTH",
"160 -13 OFFCURVE",
"158 4 OFFCURVE",
"133 8 CURVE SMOOTH",
"106 12 OFFCURVE",
"90 -10 OFFCURVE",
"58 0 CURVE SMOOTH",
"24 11 OFFCURVE",
"13 83 OFFCURVE",
"68 93 CURVE SMOOTH",
"100 99 OFFCURVE",
"106 75 OFFCURVE",
"141 101 CURVE SMOOTH",
"173 124 OFFCURVE",
"156 186 OFFCURVE",
"172 223 CURVE SMOOTH",
"187 257 OFFCURVE",
"230 276 OFFCURVE",
"242 308 CURVE SMOOTH",
"256 345 OFFCURVE",
"248 400 OFFCURVE",
"264 441 CURVE SMOOTH",
"280 490 OFFCURVE",
"366 507 OFFCURVE",
"362 542 CURVE SMOOTH",
"358 581 OFFCURVE",
"310 565 OFFCURVE",
"283 582 CURVE SMOOTH",
"243 607 OFFCURVE",
"242 677 OFFCURVE",
"313 667 CURVE SMOOTH",
"362 660 OFFCURVE",
"367 632 OFFCURVE",
"410 629 CURVE SMOOTH"
);
},
{
closed = 1;
nodes = (
"397 529 OFFCURVE",
"399 471 OFFCURVE",
"388 436 CURVE SMOOTH",
"375 400 OFFCURVE",
"293 335 OFFCURVE",
"319 295 CURVE SMOOTH",
"335 271 OFFCURVE",
"352 295 OFFCURVE",
"376 290 CURVE SMOOTH",
"394 286 OFFCURVE",
"424 255 OFFCURVE",
"437 282 CURVE SMOOTH",
"451 305 OFFCURVE",
"412 348 OFFCURVE",
"414 382 CURVE SMOOTH",
"415 436 OFFCURVE",
"464 507 OFFCURVE",
"427 518 CURVE SMOOTH"
);
}
);
width = 656;
}
);
leftKerningGroup = A;
rightKerningGroup = A;
unicode = 00C0;
},
{
glyphname = AE;
lastChange = "2022-01-25 22:24:32 +0000";
layers = (
{
background = {
paths = (
{
closed = 1;
nodes = (
"326 648 OFFCURVE",
"342 615 OFFCURVE",
"381 611 CURVE SMOOTH",
"420 607 OFFCURVE",
"440 638 OFFCURVE",
"477 643 CURVE SMOOTH",
"513 648 OFFCURVE",
"533 628 OFFCURVE",
"565 633 CURVE SMOOTH",
"604 639 OFFCURVE",
"619 667 OFFCURVE",
"664 664 CURVE SMOOTH",
"716 660 OFFCURVE",
"752 615 OFFCURVE",
"751 558 CURVE SMOOTH",
"750 494 OFFCURVE",
"694 476 OFFCURVE",
"667 501 CURVE SMOOTH",
"643 524 OFFCURVE",
"664 561 OFFCURVE",
"630 579 CURVE SMOOTH",
"601 594 OFFCURVE",
"533 594 OFFCURVE",
"527 547 CURVE SMOOTH",
"521 504 OFFCURVE",
"558 505 OFFCURVE",
"560 476 CURVE SMOOTH",
"562 449 OFFCURVE",
"535 443 OFFCURVE",
"529 420 CURVE SMOOTH",
"523 397 OFFCURVE",
"545 383 OFFCURVE",
"565 387 CURVE SMOOTH",
"585 391 OFFCURVE",
"612 419 OFFCURVE",
"639 415 CURVE SMOOTH",
"694 407 OFFCURVE",
"690 321 OFFCURVE",
"639 310 CURVE SMOOTH",
"601 302 OFFCURVE",
"582 327 OFFCURVE",
"555 331 CURVE SMOOTH",
"526 335 OFFCURVE",
"508 319 OFFCURVE",
"508 297 CURVE SMOOTH",
"508 272 OFFCURVE",
"528 252 OFFCURVE",
"526 226 CURVE SMOOTH",
"523 191 OFFCURVE",
"492 185 OFFCURVE",
"492 144 CURVE SMOOTH",
"492 59 OFFCURVE",
"656 59 OFFCURVE",
"654 137 CURVE SMOOTH",
"653 180 OFFCURVE",
"624 184 OFFCURVE",
"624 215 CURVE SMOOTH",
"624 263 OFFCURVE",
"697 283 OFFCURVE",
"719 236 CURVE SMOOTH",
"731 211 OFFCURVE",
"710 180 OFFCURVE",
"713 152 CURVE SMOOTH",
"716 126 OFFCURVE",
"730 112 OFFCURVE",
"734 86 CURVE SMOOTH",
"739 56 OFFCURVE",
"723 26 OFFCURVE",
"690 22 CURVE SMOOTH",
"660 18 OFFCURVE",
"646 36 OFFCURVE",
"609 31 CURVE SMOOTH",
"582 27 OFFCURVE",
"577 2 OFFCURVE",
"557 -12 CURVE SMOOTH",
"528 -32 OFFCURVE",
"484 -20 OFFCURVE",
"471 7 CURVE SMOOTH",
"458 34 OFFCURVE",
"463 58 OFFCURVE",
"455 74 CURVE SMOOTH",
"444 96 OFFCURVE",
"403 102 OFFCURVE",
"398 139 CURVE SMOOTH",
"393 176 OFFCURVE",
"430 194 OFFCURVE",
"432 228 CURVE SMOOTH",
"434 258 OFFCURVE",
"411 274 OFFCURVE",
"390 271 CURVE SMOOTH",
"369 268 OFFCURVE",
"355 246 OFFCURVE",
"335 242 CURVE SMOOTH",
"315 238 OFFCURVE",
"306 250 OFFCURVE",
"288 249 CURVE SMOOTH",
"267 248 OFFCURVE",
"259 229 OFFCURVE",
"264 204 CURVE SMOOTH",
"267 188 OFFCURVE",
"280 168 OFFCURVE",
"275 147 CURVE SMOOTH",
"269 124 OFFCURVE",
"235 119 OFFCURVE",
"216 100 CURVE SMOOTH",
"196 81 OFFCURVE",
"203 41 OFFCURVE",
"155 16 CURVE SMOOTH",
"104 -10 OFFCURVE",
"25 10 OFFCURVE",
"16 66 CURVE SMOOTH",
"10 102 OFFCURVE",
"32 139 OFFCURVE",
"63 137 CURVE SMOOTH",
"86 136 OFFCURVE",
"94 110 OFFCURVE",
"118 109 CURVE SMOOTH",
"144 107 OFFCURVE",
"175 135 OFFCURVE",
"181 173 CURVE SMOOTH",
"187 211 OFFCURVE",
"167 236 OFFCURVE",
"196 278 CURVE SMOOTH",
"225 320 OFFCURVE",
"258 321 OFFCURVE",
"277 360 CURVE SMOOTH",
"296 399 OFFCURVE",
"280 438 OFFCURVE",
"294 466 CURVE SMOOTH",
"308 494 OFFCURVE",
"327 487 OFFCURVE",
"341 512 CURVE SMOOTH",
"352 532 OFFCURVE",
"342 551 OFFCURVE",
"321 554 CURVE SMOOTH",
"300 557 OFFCURVE",
"288 547 OFFCURVE",
"259 556 CURVE SMOOTH",
"194 576 OFFCURVE",
"210 672 OFFCURVE",
"287 656 CURVE SMOOTH"
);
},
{
closed = 1;
nodes = (
"411 536 OFFCURVE",
"393 504 OFFCURVE",
"387 481 CURVE SMOOTH",
"382 461 OFFCURVE",
"391 436 OFFCURVE",
"380 414 CURVE SMOOTH",
"370 394 OFFCURVE",
"328 382 OFFCURVE",
"333 354 CURVE SMOOTH",
"340 316 OFFCURVE",
"394 311 OFFCURVE",
"415 329 CURVE SMOOTH",
"434 345 OFFCURVE",
"425 373 OFFCURVE",
"434 394 CURVE SMOOTH",
"445 419 OFFCURVE",
"466 423 OFFCURVE",
"474 454 CURVE SMOOTH",
"481 481 OFFCURVE",
"473 525 OFFCURVE",
"444 530 CURVE SMOOTH"
);
}
);
};
layerId = "A0EF8C6F-60C0-4D2A-A4F7-7A1091FA18C1";
paths = (
{
closed = 1;
nodes = (
"324 645 OFFCURVE",
"341 610 OFFCURVE",
"381 606 CURVE SMOOTH",
"421 602 OFFCURVE",
"442 634 OFFCURVE",
"480 639 CURVE SMOOTH",
"517 644 OFFCURVE",
"542 624 OFFCURVE",
"575 629 CURVE SMOOTH",
"615 635 OFFCURVE",
"631 664 OFFCURVE",
"677 661 CURVE SMOOTH",
"731 657 OFFCURVE",
"768 610 OFFCURVE",
"767 552 CURVE SMOOTH",
"766 486 OFFCURVE",
"708 467 OFFCURVE",
"680 493 CURVE SMOOTH",
"655 517 OFFCURVE",
"677 554 OFFCURVE",
"642 573 CURVE SMOOTH",
"612 589 OFFCURVE",
"540 589 OFFCURVE",
"536 540 CURVE SMOOTH",
"532 496 OFFCURVE",
"568 497 OFFCURVE",
"570 467 CURVE SMOOTH",
"572 440 OFFCURVE",
"544 434 OFFCURVE",
"538 410 CURVE SMOOTH",
"532 386 OFFCURVE",
"555 372 OFFCURVE",
"575 376 CURVE SMOOTH",
"596 380 OFFCURVE",
"624 409 OFFCURVE",
"651 405 CURVE SMOOTH",
"708 397 OFFCURVE",
"704 308 OFFCURVE",
"651 297 CURVE SMOOTH",
"612 289 OFFCURVE",
"593 314 OFFCURVE",
"565 318 CURVE SMOOTH",
"535 322 OFFCURVE",
"517 306 OFFCURVE",
"517 283 CURVE SMOOTH",
"517 258 OFFCURVE",
"537 237 OFFCURVE",
"535 210 CURVE SMOOTH",
"532 174 OFFCURVE",
"500 168 OFFCURVE",
"500 126 CURVE SMOOTH",
"500 39 OFFCURVE",
"662 39 OFFCURVE",
"660 119 CURVE SMOOTH",
"659 163 OFFCURVE",
"629 167 OFFCURVE",
"629 199 CURVE SMOOTH",
"629 255 OFFCURVE",
"710 273 OFFCURVE",
"734 221 CURVE SMOOTH",
"746 195 OFFCURVE",
"724 163 OFFCURVE",
"727 134 CURVE SMOOTH",
"730 108 OFFCURVE",
"745 93 OFFCURVE",
"749 66 CURVE SMOOTH",
"753 36 OFFCURVE",
"738 5 OFFCURVE",
"704 1 CURVE SMOOTH",
"673 -3 OFFCURVE",
"659 15 OFFCURVE",
"621 10 CURVE SMOOTH",
"593 6 OFFCURVE",
"588 -20 OFFCURVE",
"567 -34 CURVE SMOOTH",
"537 -54 OFFCURVE",
"487 -43 OFFCURVE",
"473 -15 CURVE SMOOTH",
"459 13 OFFCURVE",
"465 38 OFFCURVE",
"457 54 CURVE SMOOTH",
"446 77 OFFCURVE",
"404 83 OFFCURVE",
"398 121 CURVE SMOOTH",
"392 159 OFFCURVE",
"440 177 OFFCURVE",
"433 212 CURVE SMOOTH",
"427 243 OFFCURVE",
"385 248 OFFCURVE",
"351 248 CURVE SMOOTH",
"301 248 OFFCURVE",
"250 233 OFFCURVE",
"261 188 CURVE SMOOTH",
"265 171 OFFCURVE",
"277 151 OFFCURVE",
"272 129 CURVE SMOOTH",
"267 105 OFFCURVE",
"231 100 OFFCURVE",
"211 81 CURVE SMOOTH",
"190 61 OFFCURVE",
"198 20 OFFCURVE",
"149 -6 CURVE SMOOTH",
"97 -34 OFFCURVE",
"15 -12 OFFCURVE",
"6 46 CURVE SMOOTH",
"0 83 OFFCURVE",
"22 120 OFFCURVE",
"54 119 CURVE SMOOTH",
"78 118 OFFCURVE",
"86 91 OFFCURVE",
"110 90 CURVE SMOOTH",
"137 89 OFFCURVE",
"160 117 OFFCURVE",
"166 156 CURVE SMOOTH",
"172 195 OFFCURVE",
"159 241 OFFCURVE",
"181 274 CURVE SMOOTH",
"210 318 OFFCURVE",
"250 308 OFFCURVE",
"270 348 CURVE SMOOTH",
"290 388 OFFCURVE",
"271 428 OFFCURVE",
"285 457 CURVE SMOOTH",
"299 486 OFFCURVE",
"325 479 OFFCURVE",
"340 504 CURVE SMOOTH",
"352 524 OFFCURVE",
"341 545 OFFCURVE",
"319 548 CURVE SMOOTH",
"298 551 OFFCURVE",
"285 540 OFFCURVE",
"255 550 CURVE SMOOTH",
"190 572 OFFCURVE",
"205 669 OFFCURVE",
"284 653 CURVE SMOOTH"
);
},
{
closed = 1;
nodes = (
"412 529 OFFCURVE",
"393 496 OFFCURVE",
"387 473 CURVE SMOOTH",
"382 452 OFFCURVE",
"391 426 OFFCURVE",
"380 404 CURVE SMOOTH",
"370 383 OFFCURVE",
"326 371 OFFCURVE",
"332 342 CURVE SMOOTH",
"340 303 OFFCURVE",
"394 298 OFFCURVE",
"416 316 CURVE SMOOTH",
"436 332 OFFCURVE",
"426 362 OFFCURVE",
"435 383 CURVE SMOOTH",
"446 409 OFFCURVE",
"468 413 OFFCURVE",
"477 445 CURVE SMOOTH",
"485 473 OFFCURVE",
"476 518 OFFCURVE",
"446 523 CURVE SMOOTH"
);
}
);
width = 761;
}
);
leftKerningGroup = AE;
rightKerningGroup = AE;
unicode = 00C6;
},
{
glyphname = B;
lastChange = "2022-01-25 22:24:40 +0000";
layers = (
{
layerId = "A0EF8C6F-60C0-4D2A-A4F7-7A1091FA18C1";
paths = (
{
closed = 1;
nodes = (
"239 529 OFFCURVE",
"261 603 OFFCURVE",
"325 604 CURVE SMOOTH",
"373 605 OFFCURVE",
"380 577 OFFCURVE",
"411 569 CURVE SMOOTH",
"442 561 OFFCURVE",
"482 571 OFFCURVE",
"503 542 CURVE SMOOTH",
"523 514 OFFCURVE",
"529 452 OFFCURVE",
"491 419 CURVE SMOOTH",
"457 389 OFFCURVE",
"441 437 OFFCURVE",
"403 434 CURVE SMOOTH",
"347 430 OFFCURVE",
"331 338 OFFCURVE",
"394 318 CURVE SMOOTH",
"439 304 OFFCURVE",
"460 340 OFFCURVE",
"485 316 CURVE SMOOTH",
"507 295 OFFCURVE",
"479 268 OFFCURVE",
"492 234 CURVE SMOOTH",
"504 202 OFFCURVE",
"554 172 OFFCURVE",
"559 119 CURVE SMOOTH",
"563 76 OFFCURVE",
"531 24 OFFCURVE",
"483 27 CURVE SMOOTH",
"441 30 OFFCURVE",
"414 93 OFFCURVE",
"380 105 CURVE SMOOTH",
"340 119 OFFCURVE",
"296 82 OFFCURVE",
"269 119 CURVE SMOOTH",
"245 152 OFFCURVE",
"304 161 OFFCURVE",
"307 195 CURVE SMOOTH",
"310 231 OFFCURVE",
"282 248 OFFCURVE",
"282 278 CURVE SMOOTH",
"282 309 OFFCURVE",
"328 327 OFFCURVE",
"331 368 CURVE SMOOTH",
"334 405 OFFCURVE",
"317 421 OFFCURVE",
"326 447 CURVE SMOOTH",
"335 473 OFFCURVE",
"377 481 OFFCURVE",
"375 515 CURVE SMOOTH",
"372 567 OFFCURVE",
"270 573 OFFCURVE",
"249 498 CURVE SMOOTH",
"239 463 OFFCURVE",
"266 440 OFFCURVE",
"255 404 CURVE SMOOTH",
"244 369 OFFCURVE",
"195 366 OFFCURVE",
"185 318 CURVE SMOOTH",
"171 254 OFFCURVE",
"249 125 OFFCURVE",
"177 95 CURVE SMOOTH",
"136 78 OFFCURVE",
"121 122 OFFCURVE",
"76 114 CURVE SMOOTH",
"18 104 OFFCURVE",
"17 7 OFFCURVE",
"68 -1 CURVE SMOOTH",
"98 -6 OFFCURVE",
"112 16 OFFCURVE",
"130 15 CURVE SMOOTH",
"152 14 OFFCURVE",
"168 -19 OFFCURVE",
"197 -6 CURVE SMOOTH",
"231 9 OFFCURVE",
"214 48 OFFCURVE",
"255 50 CURVE SMOOTH",
"305 52 OFFCURVE",
"329 -47 OFFCURVE",
"409 -61 CURVE SMOOTH",
"473 -72 OFFCURVE",
"502 -21 OFFCURVE",
"531 -8 CURVE SMOOTH",
"563 6 OFFCURVE",
"621 -5 OFFCURVE",
"635 28 CURVE SMOOTH",
"647 56 OFFCURVE",
"618 98 OFFCURVE",
"625 131 CURVE SMOOTH",
"632 164 OFFCURVE",
"652 210 OFFCURVE",
"637 265 CURVE SMOOTH",
"623 318 OFFCURVE",
"533 315 OFFCURVE",
"529 358 CURVE SMOOTH",
"525 400 OFFCURVE",
"608 426 OFFCURVE",
"602 486 CURVE SMOOTH",
"596 547 OFFCURVE",
"559 558 OFFCURVE",
"547 586 CURVE SMOOTH",
"536 612 OFFCURVE",
"543 643 OFFCURVE",
"503 664 CURVE SMOOTH",
"463 685 OFFCURVE",
"422 646 OFFCURVE",
"384 649 CURVE SMOOTH",
"350 652 OFFCURVE",
"341 697 OFFCURVE",
"297 691 CURVE SMOOTH",
"250 685 OFFCURVE",
"239 635 OFFCURVE",
"218 618 CURVE SMOOTH",
"194 598 OFFCURVE",
"136 622 OFFCURVE",
"114 572 CURVE SMOOTH",
"83 503 OFFCURVE",
"153 458 OFFCURVE",
"211 506 CURVE SMOOTH"
);
}
);
width = 672;
}
);
unicode = 0042;
},
{
glyphname = C;
lastChange = "2022-01-25 21:52:05 +0000";
layers = (
{
layerId = "A0EF8C6F-60C0-4D2A-A4F7-7A1091FA18C1";
paths = (
{
closed = 1;
nodes = (
"440 541 OFFCURVE",
"414 528 OFFCURVE",
"384 538 CURVE SMOOTH",
"357 547 OFFCURVE",
"332 571 OFFCURVE",
"285 540 CURVE SMOOTH",
"238 509 OFFCURVE",
"244 454 OFFCURVE",
"213 420 CURVE SMOOTH",
"194 397 OFFCURVE",
"123 389 OFFCURVE",
"122 345 CURVE SMOOTH",
"120 304 OFFCURVE",
"159 288 OFFCURVE",
"163 249 CURVE SMOOTH",
"168 210 OFFCURVE",
"135 175 OFFCURVE",
"159 137 CURVE SMOOTH",
"174 112 OFFCURVE",
"215 119 OFFCURVE",
"257 99 CURVE SMOOTH",
"298 79 OFFCURVE",
"313 46 OFFCURVE",
"370 58 CURVE SMOOTH",
"413 67 OFFCURVE",
"406 118 OFFCURVE",
"442 157 CURVE SMOOTH",
"495 213 OFFCURVE",
"561 162 OFFCURVE",
"535 96 CURVE SMOOTH",
"522 63 OFFCURVE",
"496 63 OFFCURVE",
"480 41 CURVE SMOOTH",
"463 17 OFFCURVE",
"457 -23 OFFCURVE",
"424 -31 CURVE SMOOTH",
"388 -40 OFFCURVE",
"360 -14 OFFCURVE",
"325 -10 CURVE SMOOTH",
"290 -6 OFFCURVE",
"232 -20 OFFCURVE",
"187 0 CURVE SMOOTH",
"141 21 OFFCURVE",
"134 61 OFFCURVE",
"113 88 CURVE SMOOTH",
"87 123 OFFCURVE",
"61 134 OFFCURVE",
"48 176 CURVE SMOOTH",
"40 203 OFFCURVE",
"56 232 OFFCURVE",
"53 260 CURVE SMOOTH",
"50 292 OFFCURVE",
"36 310 OFFCURVE",
"43 346 CURVE SMOOTH",
"52 400 OFFCURVE",
"96 415 OFFCURVE",
"124 462 CURVE SMOOTH",
"155 511 OFFCURVE",
"146 568 OFFCURVE",
"182 589 CURVE SMOOTH",
"222 613 OFFCURVE",
"273 595 OFFCURVE",
"306 605 CURVE SMOOTH",
"342 616 OFFCURVE",
"369 664 OFFCURVE",
"415 651 CURVE SMOOTH",
"472 635 OFFCURVE",
"470 576 OFFCURVE",
"508 564 CURVE SMOOTH",
"541 553 OFFCURVE",
"567 600 OFFCURVE",
"599 612 CURVE SMOOTH",
"626 623 OFFCURVE",
"673 611 OFFCURVE",
"661 568 CURVE SMOOTH",
"653 540 OFFCURVE",
"629 538 OFFCURVE",
"612 523 CURVE SMOOTH",
"599 510 OFFCURVE",
"598 486 OFFCURVE",
"581 474 CURVE SMOOTH",
"560 459 OFFCURVE",
"539 462 OFFCURVE",
"518 445 CURVE SMOOTH",
"497 428 OFFCURVE",
"488 387 OFFCURVE",
"460 369 CURVE SMOOTH",
"427 348 OFFCURVE",
"387 379 OFFCURVE",
"396 422 CURVE SMOOTH",
"405 463 OFFCURVE",
"452 476 OFFCURVE",
"446 509 CURVE SMOOTH"
);
}
);
width = 600;
}
);
leftKerningGroup = C;
rightKerningGroup = C;
unicode = 0043;
},
{
glyphname = Ccedilla;
lastChange = "2022-01-25 22:24:53 +0000";
layers = (
{
layerId = "A0EF8C6F-60C0-4D2A-A4F7-7A1091FA18C1";
paths = (
{
closed = 1;
nodes = (
"53 417 OFFCURVE",
"96 432 OFFCURVE",
"124 479 CURVE SMOOTH",
"154 529 OFFCURVE",
"146 585 OFFCURVE",
"182 606 CURVE SMOOTH",
"222 630 OFFCURVE",
"273 612 OFFCURVE",
"306 622 CURVE SMOOTH",
"342 633 OFFCURVE",
"369 681 OFFCURVE",
"415 668 CURVE SMOOTH",
"472 652 OFFCURVE",
"470 593 OFFCURVE",
"508 581 CURVE SMOOTH",
"541 571 OFFCURVE",
"567 617 OFFCURVE",
"599 629 CURVE SMOOTH",
"626 639 OFFCURVE",
"673 628 OFFCURVE",
"661 585 CURVE SMOOTH",
"653 557 OFFCURVE",
"629 555 OFFCURVE",
"612 540 CURVE SMOOTH",
"598 528 OFFCURVE",
"598 503 OFFCURVE",
"581 491 CURVE SMOOTH",
"560 476 OFFCURVE",
"539 479 OFFCURVE",
"518 462 CURVE SMOOTH",
"497 445 OFFCURVE",
"488 404 OFFCURVE",
"460 386 CURVE SMOOTH",
"427 365 OFFCURVE",
"387 396 OFFCURVE",
"396 441 CURVE SMOOTH",
"404 480 OFFCURVE",
"452 493 OFFCURVE",
"446 526 CURVE SMOOTH",
"440 558 OFFCURVE",
"414 545 OFFCURVE",
"384 555 CURVE SMOOTH",
"357 564 OFFCURVE",
"332 588 OFFCURVE",
"285 557 CURVE SMOOTH",
"238 526 OFFCURVE",
"252 458 OFFCURVE",
"221 424 CURVE SMOOTH",
"201 402 OFFCURVE",
"123 406 OFFCURVE",
"122 362 CURVE SMOOTH",
"121 321 OFFCURVE",
"159 305 OFFCURVE",
"163 266 CURVE SMOOTH",
"167 227 OFFCURVE",
"135 192 OFFCURVE",
"159 154 CURVE SMOOTH",
"175 129 OFFCURVE",
"215 136 OFFCURVE",
"257 116 CURVE SMOOTH",
"298 96 OFFCURVE",
"313 63 OFFCURVE",
"370 75 CURVE SMOOTH",
"413 84 OFFCURVE",
"406 135 OFFCURVE",
"442 174 CURVE SMOOTH",
"494 231 OFFCURVE",
"561 179 OFFCURVE",
"535 113 CURVE SMOOTH",
"522 80 OFFCURVE",
"496 80 OFFCURVE",
"480 58 CURVE SMOOTH",
"463 34 OFFCURVE",
"457 -6 OFFCURVE",
"424 -14 CURVE SMOOTH",
"399 -20 OFFCURVE",
"379 -3 OFFCURVE",
"355 1 CURVE SMOOTH",
"336 4 OFFCURVE",
"328 -17 OFFCURVE",
"339 -32 CURVE SMOOTH",
"352 -49 OFFCURVE",
"384 -60 OFFCURVE",
"379 -97 CURVE SMOOTH",
"374 -137 OFFCURVE",
"323 -135 OFFCURVE",
"298 -147 CURVE SMOOTH",
"269 -161 OFFCURVE",
"238 -199 OFFCURVE",
"208 -190 CURVE SMOOTH",
"180 -182 OFFCURVE",
"178 -152 OFFCURVE",
"164 -137 CURVE SMOOTH",
"148 -119 OFFCURVE",
"127 -117 OFFCURVE",
"115 -85 CURVE SMOOTH",
"98 -40 OFFCURVE",
"145 -3 OFFCURVE",
"181 -27 CURVE SMOOTH",
"212 -47 OFFCURVE",
"201 -89 OFFCURVE",
"221 -103 CURVE SMOOTH",
"263 -131 OFFCURVE",
"317 -47 OFFCURVE",
"260 -5 CURVE SMOOTH",
"238 11 OFFCURVE",
"215 -1 OFFCURVE",
"187 11 CURVE SMOOTH",
"140 32 OFFCURVE",
"134 78 OFFCURVE",
"113 105 CURVE SMOOTH",
"86 139 OFFCURVE",
"60 151 OFFCURVE",
"48 193 CURVE SMOOTH",
"40 220 OFFCURVE",
"56 249 OFFCURVE",
"53 277 CURVE SMOOTH",
"50 309 OFFCURVE",
"36 327 OFFCURVE",
"43 363 CURVE SMOOTH"
);
}
);
width = 600;
}
);
leftKerningGroup = C;
rightKerningGroup = C;
unicode = 00C7;
},
{
glyphname = D;
lastChange = "2022-01-26 02:19:54 +0000";
layers = (
{
layerId = "A0EF8C6F-60C0-4D2A-A4F7-7A1091FA18C1";
paths = (
{
closed = 1;
nodes = (
"444 710 OFFCURVE",
"408 634 OFFCURVE",
"436 610 CURVE SMOOTH",
"464 586 OFFCURVE",
"529 615 OFFCURVE",
"572 582 CURVE SMOOTH",
"608 555 OFFCURVE",
"604 518 OFFCURVE",
"626 496 CURVE SMOOTH",
"647 475 OFFCURVE",
"672 476 OFFCURVE",
"688 440 CURVE SMOOTH",
"709 392 OFFCURVE",
"676 315 OFFCURVE",
"672 255 CURVE SMOOTH",
"668 193 OFFCURVE",
"686 131 OFFCURVE",
"649 78 CURVE SMOOTH",
"606 17 OFFCURVE",
"545 34 OFFCURVE",
"505 24 CURVE SMOOTH",
"463 13 OFFCURVE",
"454 -30 OFFCURVE",
"392 -30 CURVE SMOOTH",
"328 -30 OFFCURVE",
"318 22 OFFCURVE",
"260 23 CURVE SMOOTH",
"199 24 OFFCURVE",
"183 -46 OFFCURVE",
"114 -56 CURVE SMOOTH",
"49 -65 OFFCURVE",
"17 17 OFFCURVE",
"90 47 CURVE SMOOTH",
"127 62 OFFCURVE",
"146 51 OFFCURVE",
"168 67 CURVE SMOOTH",
"191 83 OFFCURVE",
"179 113 OFFCURVE",
"192 138 CURVE SMOOTH",
"205 163 OFFCURVE",
"230 184 OFFCURVE",
"236 232 CURVE SMOOTH",
"243 292 OFFCURVE",
"222 311 OFFCURVE",
"227 362 CURVE SMOOTH",
"232 411 OFFCURVE",
"295 453 OFFCURVE",
"275 494 CURVE SMOOTH",
"251 541 OFFCURVE",
"187 467 OFFCURVE",
"143 478 CURVE SMOOTH",
"98 489 OFFCURVE",
"93 546 OFFCURVE",
"158 584 CURVE SMOOTH",
"212 615 OFFCURVE",
"242 573 OFFCURVE",
"292 595 CURVE SMOOTH",
"346 619 OFFCURVE",
"345 745 OFFCURVE",
"402 725 CURVE SMOOTH"
);
},
{
closed = 1;
nodes = (
"383 550 OFFCURVE",
"354 506 OFFCURVE",
"347 459 CURVE SMOOTH",
"340 411 OFFCURVE",
"354 358 OFFCURVE",
"340 291 CURVE SMOOTH",
"324 214 OFFCURVE",
"261 143 OFFCURVE",
"276 111 CURVE SMOOTH",
"291 80 OFFCURVE",
"324 98 OFFCURVE",
"354 93 CURVE SMOOTH",
"383 89 OFFCURVE",
"408 65 OFFCURVE",
"452 68 CURVE SMOOTH",
"493 71 OFFCURVE",
"508 98 OFFCURVE",
"538 125 CURVE SMOOTH",
"564 148 OFFCURVE",
"599 160 OFFCURVE",
"600 211 CURVE SMOOTH",
"601 256 OFFCURVE",
"577 284 OFFCURVE",
"575 322 CURVE SMOOTH",
"573 354 OFFCURVE",
"597 417 OFFCURVE",
"580 444 CURVE SMOOTH",
"563 471 OFFCURVE",
"530 451 OFFCURVE",
"501 475 CURVE SMOOTH",
"469 501 OFFCURVE",
"478 545 OFFCURVE",
"423 548 CURVE SMOOTH"
);
}
);
width = 724;
}
);
leftKerningGroup = D;
rightKerningGroup = D;
unicode = 0044;
},
{
glyphname = E;
lastChange = "2022-01-26 01:27:04 +0000";
layers = (
{
guideLines = (
{
position = "{94, 726}";
}
);
layerId = "A0EF8C6F-60C0-4D2A-A4F7-7A1091FA18C1";
paths = (
{
closed = 1;
nodes = (
"290 659 OFFCURVE",
"184 629 OFFCURVE",
"190 555 CURVE SMOOTH",
"193 516 OFFCURVE",
"235 506 OFFCURVE",
"267 515 CURVE SMOOTH",
"297 523 OFFCURVE",
"271 574 OFFCURVE",
"311 602 CURVE SMOOTH",
"357 634 OFFCURVE",
"380 595 OFFCURVE",
"415 600 CURVE SMOOTH",
"452 605 OFFCURVE",
"460 645 OFFCURVE",
"502 646 CURVE SMOOTH",
"549 648 OFFCURVE",
"574 600 OFFCURVE",
"562 550 CURVE SMOOTH",
"554 516 OFFCURVE",
"522 511 OFFCURVE",
"505 480 CURVE SMOOTH",
"492 456 OFFCURVE",
"509 412 OFFCURVE",
"482 388 CURVE SMOOTH",
"455 364 OFFCURVE",
"394 376 OFFCURVE",
"363 406 CURVE SMOOTH",
"318 450 OFFCURVE",
"235 408 OFFCURVE",
"265 362 CURVE SMOOTH",
"282 336 OFFCURVE",
"325 343 OFFCURVE",
"353 320 CURVE SMOOTH",
"405 277 OFFCURVE",
"361 203 OFFCURVE",
"292 223 CURVE SMOOTH",
"249 236 OFFCURVE",
"240 288 OFFCURVE",
"187 296 CURVE SMOOTH",
"143 303 OFFCURVE",
"111 261 OFFCURVE",
"119 209 CURVE SMOOTH",
"125 170 OFFCURVE",
"142 158 OFFCURVE",
"150 133 CURVE SMOOTH",
"160 102 OFFCURVE",
"149 69 OFFCURVE",
"181 51 CURVE SMOOTH",
"214 33 OFFCURVE",
"238 66 OFFCURVE",
"271 70 CURVE SMOOTH",
"308 74 OFFCURVE",
"341 54 OFFCURVE",
"373 65 CURVE SMOOTH",
"420 81 OFFCURVE",
"408 188 OFFCURVE",
"459 192 CURVE SMOOTH",
"540 198 OFFCURVE",
"538 34 OFFCURVE",
"452 1 CURVE SMOOTH",
"421 -11 OFFCURVE",
"391 2 OFFCURVE",
"362 -8 CURVE SMOOTH",
"328 -20 OFFCURVE",
"302 -63 OFFCURVE",
"245 -64 CURVE SMOOTH",
"187 -65 OFFCURVE",
"167 -29 OFFCURVE",
"133 1 CURVE SMOOTH",
"100 30 OFFCURVE",
"61 38 OFFCURVE",
"45 85 CURVE SMOOTH",
"29 132 OFFCURVE",
"53 186 OFFCURVE",
"58 223 CURVE SMOOTH",
"65 274 OFFCURVE",
"48 321 OFFCURVE",
"80 359 CURVE SMOOTH",
"118 404 OFFCURVE",
"187 376 OFFCURVE",
"204 421 CURVE SMOOTH",
"222 470 OFFCURVE",
"108 498 OFFCURVE",
"104 591 CURVE SMOOTH",
"101 668 OFFCURVE",
"151 715 OFFCURVE",
"191 726 CURVE SMOOTH",
"220 734 OFFCURVE",
"255 732 OFFCURVE",
"269 703 CURVE SMOOTH"
);
},
{
closed = 1;
nodes = (
"353 481 OFFCURVE",
"370 453 OFFCURVE",
"397 453 CURVE SMOOTH",
"427 453 OFFCURVE",
"423 476 OFFCURVE",
"436 488 CURVE SMOOTH",
"449 500 OFFCURVE",
"473 497 OFFCURVE",
"473 520 CURVE SMOOTH",
"473 548 OFFCURVE",
"437 555 OFFCURVE",
"411 552 CURVE SMOOTH",
"385 549 OFFCURVE",
"358 535 OFFCURVE",
"356 509 CURVE SMOOTH"
);
}
);
width = 585;
}
);
leftKerningGroup = E;
rightKerningGroup = E;
unicode = 0045;
},
{
color = 4;
glyphname = Eacute;
lastChange = "2022-01-25 18:12:41 +0000";
layers = (
{
layerId = "A0EF8C6F-60C0-4D2A-A4F7-7A1091FA18C1";
paths = (
{
closed = 1;
nodes = (
"442 637 OFFCURVE",
"359 625 OFFCURVE",
"317 636 CURVE SMOOTH",
"298 641 OFFCURVE",
"291 659 OFFCURVE",
"298 671 CURVE SMOOTH",
"310 692 OFFCURVE",
"348 692 OFFCURVE",
"382 710 CURVE SMOOTH",
"422 731 OFFCURVE",
"430 770 OFFCURVE",
"470 768 CURVE SMOOTH",
"507 766 OFFCURVE",
"512 712 OFFCURVE",
"479 677 CURVE SMOOTH"
);
},
{
closed = 1;
nodes = (
"296 659 OFFCURVE",
"192 629 OFFCURVE",
"200 555 CURVE SMOOTH",
"204 516 OFFCURVE",
"237 508 OFFCURVE",
"266 513 CURVE SMOOTH",
"307 520 OFFCURVE",
"277 574 OFFCURVE",
"317 602 CURVE SMOOTH",
"363 634 OFFCURVE",
"386 595 OFFCURVE",
"421 600 CURVE SMOOTH",
"458 605 OFFCURVE",
"466 645 OFFCURVE",
"508 646 CURVE SMOOTH",
"555 648 OFFCURVE",
"580 600 OFFCURVE",
"568 550 CURVE SMOOTH",
"560 516 OFFCURVE",
"528 511 OFFCURVE",
"511 480 CURVE SMOOTH",
"498 456 OFFCURVE",
"515 412 OFFCURVE",
"488 388 CURVE SMOOTH",
"461 364 OFFCURVE",
"400 376 OFFCURVE",
"369 406 CURVE SMOOTH",
"324 450 OFFCURVE",
"241 408 OFFCURVE",
"273 359 CURVE SMOOTH",
"290 333 OFFCURVE",
"337 347 OFFCURVE",
"365 326 CURVE SMOOTH",
"419 285 OFFCURVE",
"348 198 OFFCURVE",
"273 214 CURVE SMOOTH",
"241 221 OFFCURVE",
"227 281 OFFCURVE",
"189 286 CURVE SMOOTH",
"153 291 OFFCURVE",
"123 233 OFFCURVE",
"126 195 CURVE SMOOTH",
"128 170 OFFCURVE",
"147 162 OFFCURVE",
"153 136 CURVE SMOOTH",
"161 102 OFFCURVE",
"155 69 OFFCURVE",
"187 51 CURVE SMOOTH",
"216 35 OFFCURVE",
"246 57 OFFCURVE",
"274 64 CURVE SMOOTH",
"302 71 OFFCURVE",
"342 54 OFFCURVE",
"372 64 CURVE SMOOTH",
"421 81 OFFCURVE",
"414 188 OFFCURVE",
"465 192 CURVE SMOOTH",
"508 195 OFFCURVE",
"524 148 OFFCURVE",
"524 102 CURVE SMOOTH",
"524 64 OFFCURVE",
"500 17 OFFCURVE",
"458 1 CURVE SMOOTH",
"427 -11 OFFCURVE",
"397 2 OFFCURVE",
"368 -8 CURVE SMOOTH",
"334 -20 OFFCURVE",
"308 -75 OFFCURVE",
"251 -75 CURVE SMOOTH",
"193 -75 OFFCURVE",
"173 -29 OFFCURVE",
"136 -3 CURVE SMOOTH",
"95 26 OFFCURVE",
"51 30 OFFCURVE",
"36 82 CURVE SMOOTH",
"19 140 OFFCURVE",
"53 180 OFFCURVE",
"63 233 CURVE SMOOTH",
"71 274 OFFCURVE",
"54 321 OFFCURVE",
"86 359 CURVE SMOOTH",
"124 404 OFFCURVE",
"193 376 OFFCURVE",
"210 421 CURVE SMOOTH",
"228 470 OFFCURVE",
"115 496 OFFCURVE",
"110 591 CURVE SMOOTH",
"106 668 OFFCURVE",
"157 715 OFFCURVE",
"197 726 CURVE SMOOTH",
"226 734 OFFCURVE",
"261 732 OFFCURVE",
"275 703 CURVE SMOOTH"
);
},
{
closed = 1;
nodes = (
"391 552 OFFCURVE",
"362 538 OFFCURVE",
"362 512 CURVE SMOOTH",
"362 481 OFFCURVE",
"376 453 OFFCURVE",
"403 453 CURVE SMOOTH",
"433 453 OFFCURVE",
"429 476 OFFCURVE",
"441 487 CURVE SMOOTH",
"453 498 OFFCURVE",
"479 494 OFFCURVE",
"479 517 CURVE SMOOTH",
"479 545 OFFCURVE",
"441 552 OFFCURVE",
"417 552 CURVE SMOOTH"
);
}
);
width = 591;
}
);
leftKerningGroup = E;
rightKerningGroup = E;
unicode = 00C9;
},
{
color = 4;
glyphname = Ecircumflex;
lastChange = "2021-12-21 18:24:00 +0000";
layers = (
{
guideLines = (
{
angle = 90;
position = "{591, 220}";
}
);
layerId = "A0EF8C6F-60C0-4D2A-A4F7-7A1091FA18C1";
paths = (
{
closed = 1;
nodes = (
"341 646 OFFCURVE",
"409 597 OFFCURVE",
"448 641 CURVE SMOOTH",
"473 669 OFFCURVE",
"479 704 OFFCURVE",
"503 704 CURVE SMOOTH",
"527 704 OFFCURVE",
"532 678 OFFCURVE",
"545 661 CURVE SMOOTH",
"577 619 OFFCURVE",
"638 659 OFFCURVE",
"610 702 CURVE SMOOTH",
"595 725 OFFCURVE",
"577 722 OFFCURVE",
"565 743 CURVE SMOOTH",
"555 760 OFFCURVE",
"541 789 OFFCURVE",
"513 788 CURVE SMOOTH",
"487 787 OFFCURVE",
"464 754 OFFCURVE",
"451 738 CURVE SMOOTH",
"437 721 OFFCURVE",
"406 718 OFFCURVE",
"387 697 CURVE SMOOTH"
);
},
{
closed = 1;
nodes = (
"296 659 OFFCURVE",
"192 629 OFFCURVE",
"200 555 CURVE SMOOTH",
"204 516 OFFCURVE",
"237 508 OFFCURVE",
"266 513 CURVE SMOOTH",
"307 520 OFFCURVE",
"277 574 OFFCURVE",
"317 602 CURVE SMOOTH",
"363 634 OFFCURVE",
"386 595 OFFCURVE",
"421 600 CURVE SMOOTH",
"458 605 OFFCURVE",
"466 645 OFFCURVE",
"508 646 CURVE SMOOTH",
"555 648 OFFCURVE",
"580 600 OFFCURVE",
"568 550 CURVE SMOOTH",
"560 516 OFFCURVE",
"528 511 OFFCURVE",
"511 480 CURVE SMOOTH",
"498 456 OFFCURVE",
"515 412 OFFCURVE",
"488 388 CURVE SMOOTH",
"461 364 OFFCURVE",
"400 376 OFFCURVE",
"369 406 CURVE SMOOTH",
"324 450 OFFCURVE",
"241 408 OFFCURVE",
"273 359 CURVE SMOOTH",
"290 333 OFFCURVE",
"337 347 OFFCURVE",
"365 326 CURVE SMOOTH",
"419 285 OFFCURVE",
"348 198 OFFCURVE",
"273 214 CURVE SMOOTH",
"241 221 OFFCURVE",
"227 281 OFFCURVE",
"189 286 CURVE SMOOTH",
"153 291 OFFCURVE",
"123 233 OFFCURVE",
"126 195 CURVE SMOOTH",
"128 170 OFFCURVE",
"147 162 OFFCURVE",
"153 136 CURVE SMOOTH",
"161 102 OFFCURVE",
"155 69 OFFCURVE",
"187 51 CURVE SMOOTH",
"216 35 OFFCURVE",
"246 57 OFFCURVE",
"274 64 CURVE SMOOTH",
"302 71 OFFCURVE",
"342 54 OFFCURVE",
"372 64 CURVE SMOOTH",
"421 81 OFFCURVE",
"414 188 OFFCURVE",
"465 192 CURVE SMOOTH",
"508 195 OFFCURVE",
"524 148 OFFCURVE",
"524 102 CURVE SMOOTH",
"524 64 OFFCURVE",
"500 17 OFFCURVE",
"458 1 CURVE SMOOTH",
"427 -11 OFFCURVE",
"397 2 OFFCURVE",
"368 -8 CURVE SMOOTH",
"334 -20 OFFCURVE",
"308 -75 OFFCURVE",
"251 -75 CURVE SMOOTH",
"193 -75 OFFCURVE",
"173 -29 OFFCURVE",
"136 -3 CURVE SMOOTH",
"95 26 OFFCURVE",
"51 30 OFFCURVE",
"36 82 CURVE SMOOTH",
"19 140 OFFCURVE",
"53 180 OFFCURVE",
"63 233 CURVE SMOOTH",
"71 274 OFFCURVE",
"54 321 OFFCURVE",
"86 359 CURVE SMOOTH",
"124 404 OFFCURVE",
"193 376 OFFCURVE",
"210 421 CURVE SMOOTH",
"228 470 OFFCURVE",
"115 496 OFFCURVE",
"110 591 CURVE SMOOTH",
"106 668 OFFCURVE",
"157 715 OFFCURVE",
"197 726 CURVE SMOOTH",
"226 734 OFFCURVE",
"261 732 OFFCURVE",
"275 703 CURVE SMOOTH"
);
},
{
closed = 1;
nodes = (
"391 552 OFFCURVE",
"362 538 OFFCURVE",
"362 512 CURVE SMOOTH",
"362 481 OFFCURVE",
"376 453 OFFCURVE",
"403 453 CURVE SMOOTH",
"433 453 OFFCURVE",
"429 476 OFFCURVE",
"441 487 CURVE SMOOTH",
"453 498 OFFCURVE",
"479 494 OFFCURVE",
"479 517 CURVE SMOOTH",
"479 545 OFFCURVE",
"441 552 OFFCURVE",
"417 552 CURVE SMOOTH"
);
}
);
width = 592;
}
);
leftKerningGroup = E;
rightKerningGroup = E;
unicode = 00CA;
},
{
color = 4;
glyphname = Edieresis;
lastChange = "2022-01-26 01:27:10 +0000";
layers = (
{
guideLines = (
{
angle = 90;
position = "{591, 220}";
}
);
layerId = "A0EF8C6F-60C0-4D2A-A4F7-7A1091FA18C1";
paths = (
{
closed = 1;
nodes = (
"296 659 OFFCURVE",
"192 629 OFFCURVE",
"200 555 CURVE SMOOTH",
"204 516 OFFCURVE",
"237 508 OFFCURVE",
"266 513 CURVE SMOOTH",
"307 520 OFFCURVE",
"277 574 OFFCURVE",
"317 602 CURVE SMOOTH",
"363 634 OFFCURVE",
"386 595 OFFCURVE",
"421 600 CURVE SMOOTH",
"458 605 OFFCURVE",
"466 645 OFFCURVE",
"508 646 CURVE SMOOTH",
"555 648 OFFCURVE",
"580 600 OFFCURVE",
"568 550 CURVE SMOOTH",
"560 516 OFFCURVE",
"528 511 OFFCURVE",
"511 480 CURVE SMOOTH",
"498 456 OFFCURVE",
"515 412 OFFCURVE",
"488 388 CURVE SMOOTH",
"461 364 OFFCURVE",
"400 376 OFFCURVE",
"369 406 CURVE SMOOTH",
"324 450 OFFCURVE",
"241 408 OFFCURVE",
"273 359 CURVE SMOOTH",
"290 333 OFFCURVE",
"337 347 OFFCURVE",
"365 326 CURVE SMOOTH",
"419 285 OFFCURVE",
"348 198 OFFCURVE",
"273 214 CURVE SMOOTH",
"241 221 OFFCURVE",
"227 281 OFFCURVE",
"189 286 CURVE SMOOTH",
"153 291 OFFCURVE",
"123 233 OFFCURVE",
"126 195 CURVE SMOOTH",
"128 170 OFFCURVE",
"147 162 OFFCURVE",
"153 136 CURVE SMOOTH",
"161 102 OFFCURVE",
"155 69 OFFCURVE",
"187 51 CURVE SMOOTH",
"216 35 OFFCURVE",
"246 57 OFFCURVE",
"274 64 CURVE SMOOTH",
"302 71 OFFCURVE",
"342 54 OFFCURVE",
"372 64 CURVE SMOOTH",
"421 81 OFFCURVE",
"414 188 OFFCURVE",
"465 192 CURVE SMOOTH",
"508 195 OFFCURVE",
"524 148 OFFCURVE",
"524 102 CURVE SMOOTH",
"524 64 OFFCURVE",
"500 17 OFFCURVE",
"458 1 CURVE SMOOTH",
"427 -11 OFFCURVE",
"397 2 OFFCURVE",
"368 -8 CURVE SMOOTH",
"334 -20 OFFCURVE",
"308 -75 OFFCURVE",
"251 -75 CURVE SMOOTH",
"193 -75 OFFCURVE",
"173 -29 OFFCURVE",
"136 -3 CURVE SMOOTH",
"95 26 OFFCURVE",
"51 30 OFFCURVE",
"36 82 CURVE SMOOTH",
"19 140 OFFCURVE",
"53 180 OFFCURVE",
"63 233 CURVE SMOOTH",
"71 274 OFFCURVE",
"54 321 OFFCURVE",
"86 359 CURVE SMOOTH",
"124 404 OFFCURVE",
"193 376 OFFCURVE",
"210 421 CURVE SMOOTH",
"228 470 OFFCURVE",
"115 496 OFFCURVE",
"110 591 CURVE SMOOTH",
"106 668 OFFCURVE",
"157 715 OFFCURVE",
"197 726 CURVE SMOOTH",
"226 734 OFFCURVE",
"261 732 OFFCURVE",
"275 703 CURVE SMOOTH"
);
},
{
closed = 1;
nodes = (
"422 617 OFFCURVE",
"456 636 OFFCURVE",
"469 663 CURVE SMOOTH",
"483 693 OFFCURVE",
"475 739 OFFCURVE",
"442 747 CURVE SMOOTH",
"408 755 OFFCURVE",
"378 737 OFFCURVE",
"366 706 CURVE SMOOTH",
"355 678 OFFCURVE",
"359 642 OFFCURVE",
"387 631 CURVE SMOOTH"
);
},
{
closed = 1;
nodes = (
"530 653 OFFCURVE",
"570 643 OFFCURVE",
"596 656 CURVE SMOOTH",
"622 669 OFFCURVE",
"626 704 OFFCURVE",
"615 730 CURVE SMOOTH",
"603 759 OFFCURVE",
"573 774 OFFCURVE",
"544 760 CURVE SMOOTH",
"514 746 OFFCURVE",
"506 710 OFFCURVE",
"518 682 CURVE SMOOTH"
);
},
{
closed = 1;
nodes = (
"391 552 OFFCURVE",
"362 538 OFFCURVE",
"362 512 CURVE SMOOTH",
"362 481 OFFCURVE",
"376 453 OFFCURVE",
"403 453 CURVE SMOOTH",
"433 453 OFFCURVE",
"429 476 OFFCURVE",
"441 487 CURVE SMOOTH",
"453 498 OFFCURVE",
"479 494 OFFCURVE",
"479 517 CURVE SMOOTH",
"479 545 OFFCURVE",
"441 552 OFFCURVE",
"417 552 CURVE SMOOTH"
);
}
);
width = 591;
}
);
leftKerningGroup = E;
rightKerningGroup = E;
unicode = 00CB;
},
{
color = 4;
glyphname = Egrave;
lastChange = "2021-11-12 11:34:53 +0000";
layers = (
{
layerId = "A0EF8C6F-60C0-4D2A-A4F7-7A1091FA18C1";
paths = (
{
closed = 1;
nodes = (
"296 659 OFFCURVE",
"192 629 OFFCURVE",
"200 555 CURVE SMOOTH",
"204 516 OFFCURVE",
"237 508 OFFCURVE",
"266 513 CURVE SMOOTH",
"307 520 OFFCURVE",
"277 574 OFFCURVE",
"317 602 CURVE SMOOTH",
"363 634 OFFCURVE",
"386 595 OFFCURVE",
"421 600 CURVE SMOOTH",
"458 605 OFFCURVE",
"466 645 OFFCURVE",
"508 646 CURVE SMOOTH",
"555 648 OFFCURVE",
"580 600 OFFCURVE",
"568 550 CURVE SMOOTH",
"560 516 OFFCURVE",
"528 511 OFFCURVE",
"511 480 CURVE SMOOTH",
"498 456 OFFCURVE",
"515 412 OFFCURVE",
"488 388 CURVE SMOOTH",
"461 364 OFFCURVE",
"400 376 OFFCURVE",
"369 406 CURVE SMOOTH",
"324 450 OFFCURVE",
"241 408 OFFCURVE",
"273 359 CURVE SMOOTH",
"290 333 OFFCURVE",
"337 347 OFFCURVE",
"365 326 CURVE SMOOTH",
"419 285 OFFCURVE",
"348 198 OFFCURVE",
"273 214 CURVE SMOOTH",
"241 221 OFFCURVE",
"227 281 OFFCURVE",
"189 286 CURVE SMOOTH",
"153 291 OFFCURVE",
"123 233 OFFCURVE",
"126 195 CURVE SMOOTH",
"128 170 OFFCURVE",
"147 162 OFFCURVE",
"153 136 CURVE SMOOTH",
"161 102 OFFCURVE",
"155 69 OFFCURVE",
"187 51 CURVE SMOOTH",
"216 35 OFFCURVE",
"246 57 OFFCURVE",
"274 64 CURVE SMOOTH",
"302 71 OFFCURVE",
"342 54 OFFCURVE",
"372 64 CURVE SMOOTH",
"421 81 OFFCURVE",
"414 188 OFFCURVE",
"465 192 CURVE SMOOTH",
"508 195 OFFCURVE",
"524 148 OFFCURVE",
"524 102 CURVE SMOOTH",
"524 64 OFFCURVE",
"500 17 OFFCURVE",
"458 1 CURVE SMOOTH",
"427 -11 OFFCURVE",
"397 2 OFFCURVE",
"368 -8 CURVE SMOOTH",
"334 -20 OFFCURVE",
"308 -75 OFFCURVE",
"251 -75 CURVE SMOOTH",
"193 -75 OFFCURVE",
"173 -29 OFFCURVE",
"136 -3 CURVE SMOOTH",
"95 26 OFFCURVE",
"51 30 OFFCURVE",
"36 82 CURVE SMOOTH",
"19 140 OFFCURVE",
"53 180 OFFCURVE",
"63 233 CURVE SMOOTH",
"71 274 OFFCURVE",
"54 321 OFFCURVE",
"86 359 CURVE SMOOTH",
"124 404 OFFCURVE",
"193 376 OFFCURVE",
"210 421 CURVE SMOOTH",
"228 470 OFFCURVE",
"115 496 OFFCURVE",
"110 591 CURVE SMOOTH",
"106 668 OFFCURVE",
"157 715 OFFCURVE",
"197 726 CURVE SMOOTH",
"226 734 OFFCURVE",
"261 732 OFFCURVE",
"275 703 CURVE SMOOTH"
);
},
{
closed = 1;
nodes = (
"374 622 OFFCURVE",
"306 663 OFFCURVE",
"289 712 CURVE SMOOTH",
"273 757 OFFCURVE",
"297 793 OFFCURVE",
"331 783 CURVE SMOOTH",
"365 773 OFFCURVE",
"358 741 OFFCURVE",
"386 705 CURVE SMOOTH",
"408 677 OFFCURVE",
"442 662 OFFCURVE",
"444 641 CURVE SMOOTH",
"445 628 OFFCURVE",
"434 613 OFFCURVE",
"415 616 CURVE SMOOTH"
);
},
{
closed = 1;
nodes = (
"391 552 OFFCURVE",
"362 538 OFFCURVE",
"362 512 CURVE SMOOTH",
"362 481 OFFCURVE",
"376 453 OFFCURVE",
"403 453 CURVE SMOOTH",
"433 453 OFFCURVE",
"429 476 OFFCURVE",
"441 487 CURVE SMOOTH",
"453 498 OFFCURVE",
"479 494 OFFCURVE",
"479 517 CURVE SMOOTH",
"479 545 OFFCURVE",
"441 552 OFFCURVE",
"417 552 CURVE SMOOTH"
);
}
);
width = 591;
}
);
leftKerningGroup = E;
rightKerningGroup = E;
unicode = 00C8;
},
{
glyphname = F;
lastChange = "2022-01-26 01:27:16 +0000";
layers = (
{
background = {
paths = (
{
closed = 1;
nodes = (
"254 675 OFFCURVE",
"271 637 OFFCURVE",
"319 633 CURVE SMOOTH",
"373 628 OFFCURVE",
"385 654 OFFCURVE",
"426 653 CURVE SMOOTH",
"466 652 OFFCURVE",
"476 619 OFFCURVE",
"518 621 CURVE SMOOTH",
"560 623 OFFCURVE",
"566 656 OFFCURVE",
"610 661 CURVE SMOOTH",
"652 666 OFFCURVE",
"655 617 OFFCURVE",
"646 594 CURVE SMOOTH",
"635 569 OFFCURVE",
"623 564 OFFCURVE",
"610 543 CURVE SMOOTH",
"596 519 OFFCURVE",
"602 479 OFFCURVE",
"583 463 CURVE SMOOTH",
"560 443 OFFCURVE",
"502 447 OFFCURVE",
"510 492 CURVE SMOOTH",
"515 523 OFFCURVE",
"545 542 OFFCURVE",
"527 563 CURVE SMOOTH",
"509 584 OFFCURVE",
"470 551 OFFCURVE",
"443 553 CURVE SMOOTH",
"414 555 OFFCURVE",
"387 581 OFFCURVE",
"360 560 CURVE SMOOTH",
"320 529 OFFCURVE",
"352 492 OFFCURVE",
"344 453 CURVE SMOOTH",
"336 415 OFFCURVE",
"296 400 OFFCURVE",
"315 373 CURVE SMOOTH",
"330 352 OFFCURVE",
"382 369 OFFCURVE",
"405 393 CURVE SMOOTH",
"430 419 OFFCURVE",
"466 400 OFFCURVE",
"451 352 CURVE SMOOTH",
"444 326 OFFCURVE",
"413 312 OFFCURVE",
"409 282 CURVE SMOOTH",
"404 253 OFFCURVE",
"420 234 OFFCURVE",
"415 205 CURVE SMOOTH",
"409 170 OFFCURVE",
"336 163 OFFCURVE",
"344 224 CURVE SMOOTH",
"348 251 OFFCURVE",
"344 301 OFFCURVE",
"308 298 CURVE SMOOTH",
"253 293 OFFCURVE",
"273 191 OFFCURVE",
"265 162 CURVE SMOOTH",
"259 136 OFFCURVE",
"232 122 OFFCURVE",
"229 100 CURVE SMOOTH",
"223 67 OFFCURVE",
"260 43 OFFCURVE",
"288 43 CURVE SMOOTH",
"309 43 OFFCURVE",
"332 55 OFFCURVE",
"352 60 CURVE SMOOTH",
"385 68 OFFCURVE",
"404 28 OFFCURVE",
"386 -1 CURVE SMOOTH",
"374 -20 OFFCURVE",
"328 -44 OFFCURVE",
"294 -43 CURVE SMOOTH",
"262 -42 OFFCURVE",
"218 -9 OFFCURVE",
"179 -12 CURVE SMOOTH",
"148 -14 OFFCURVE",
"114 -45 OFFCURVE",
"73 -40 CURVE SMOOTH",
"30 -35 OFFCURVE",
"1 17 OFFCURVE",
"48 44 CURVE SMOOTH",
"68 55 OFFCURVE",
"93 32 OFFCURVE",
"114 45 CURVE SMOOTH",
"130 54 OFFCURVE",
"143 72 OFFCURVE",
"143 97 CURVE SMOOTH",
"142 125 OFFCURVE",
"140 155 OFFCURVE",
"146 179 CURVE SMOOTH",
"155 208 OFFCURVE",
"195 214 OFFCURVE",
"203 254 CURVE SMOOTH",
"208 276 OFFCURVE",
"199 337 OFFCURVE",
"207 375 CURVE SMOOTH",
"215 411 OFFCURVE",
"240 437 OFFCURVE",
"259 457 CURVE SMOOTH",
"275 474 OFFCURVE",
"276 510 OFFCURVE",
"256 529 CURVE SMOOTH",
"233 551 OFFCURVE",
"199 539 OFFCURVE",
"168 561 CURVE SMOOTH",
"129 590 OFFCURVE",
"140 665 OFFCURVE",
"211 671 CURVE SMOOTH"
);
}
);
};
layerId = "A0EF8C6F-60C0-4D2A-A4F7-7A1091FA18C1";
paths = (
{
closed = 1;
nodes = (
"221 641 OFFCURVE",
"236 617 OFFCURVE",
"269 619 CURVE SMOOTH",
"308 621 OFFCURVE",
"339 655 OFFCURVE",
"383 659 CURVE SMOOTH",
"427 663 OFFCURVE",
"480 630 OFFCURVE",
"515 631 CURVE SMOOTH",
"550 632 OFFCURVE",
"566 662 OFFCURVE",
"606 668 CURVE SMOOTH",
"647 674 OFFCURVE",
"671 650 OFFCURVE",
"661 612 CURVE SMOOTH",
"653 582 OFFCURVE",
"633 570 OFFCURVE",
"624 545 CURVE SMOOTH",
"616 520 OFFCURVE",
"627 494 OFFCURVE",
"619 472 CURVE SMOOTH",
"606 441 OFFCURVE",
"555 431 OFFCURVE",
"537 470 CURVE SMOOTH",
"520 509 OFFCURVE",
"556 532 OFFCURVE",
"527 559 CURVE SMOOTH",
"499 586 OFFCURVE",
"453 544 OFFCURVE",
"415 545 CURVE SMOOTH",
"377 546 OFFCURVE",
"348 572 OFFCURVE",
"322 554 CURVE SMOOTH",
"295 537 OFFCURVE",
"320 504 OFFCURVE",
"320 476 CURVE SMOOTH",
"320 451 OFFCURVE",
"286 426 OFFCURVE",
"288 402 CURVE SMOOTH",
"291 366 OFFCURVE",
"355 361 OFFCURVE",
"378 377 CURVE SMOOTH",
"407 396 OFFCURVE",
"412 421 OFFCURVE",
"437 434 CURVE SMOOTH",
"460 447 OFFCURVE",
"487 429 OFFCURVE",
"488 397 CURVE SMOOTH",
"489 353 OFFCURVE",
"452 322 OFFCURVE",
"442 293 CURVE SMOOTH",
"432 261 OFFCURVE",
"448 221 OFFCURVE",
"432 193 CURVE SMOOTH",
"412 160 OFFCURVE",
"339 150 OFFCURVE",
"336 223 CURVE SMOOTH",
"335 246 OFFCURVE",
"356 253 OFFCURVE",
"354 279 CURVE SMOOTH",
"351 313 OFFCURVE",
"302 330 OFFCURVE",
"283 300 CURVE SMOOTH",
"262 268 OFFCURVE",
"281 227 OFFCURVE",
"278 197 CURVE SMOOTH",
"275 166 OFFCURVE",
"239 122 OFFCURVE",
"254 94 CURVE SMOOTH",
"267 70 OFFCURVE",
"309 97 OFFCURVE",
"332 82 CURVE SMOOTH",
"363 62 OFFCURVE",
"357 10 OFFCURVE",
"313 -3 CURVE SMOOTH",
"269 -16 OFFCURVE",
"221 1 OFFCURVE",
"182 -3 CURVE SMOOTH",
"142 -7 OFFCURVE",
"105 -36 OFFCURVE",
"75 -29 CURVE SMOOTH",
"31 -19 OFFCURVE",
"30 38 OFFCURVE",
"72 65 CURVE SMOOTH",
"118 94 OFFCURVE",
"153 64 OFFCURVE",
"174 88 CURVE SMOOTH",
"198 115 OFFCURVE",
"159 170 OFFCURVE",
"163 205 CURVE SMOOTH",
"167 243 OFFCURVE",
"203 249 OFFCURVE",
"205 281 CURVE SMOOTH",
"207 313 OFFCURVE",
"187 351 OFFCURVE",
"187 400 CURVE SMOOTH",
"187 456 OFFCURVE",
"242 476 OFFCURVE",
"231 521 CURVE SMOOTH",
"223 555 OFFCURVE",
"163 531 OFFCURVE",
"133 556 CURVE SMOOTH",
"102 582 OFFCURVE",
"124 648 OFFCURVE",
"178 644 CURVE SMOOTH"
);
}
);
width = 666;
}
);
leftKerningGroup = F;
unicode = 0046;
},
{
glyphname = G;
lastChange = "2022-01-26 01:27:21 +0000";
layers = (
{
layerId = "A0EF8C6F-60C0-4D2A-A4F7-7A1091FA18C1";
paths = (
{
closed = 1;
nodes = (
"236 664 OFFCURVE",
"260 631 OFFCURVE",
"301 628 CURVE SMOOTH",
"342 625 OFFCURVE",
"356 650 OFFCURVE",
"386 647 CURVE SMOOTH",
"432 642 OFFCURVE",
"477 574 OFFCURVE",
"475 520 CURVE SMOOTH",
"473 462 OFFCURVE",
"424 433 OFFCURVE",
"389 463 CURVE SMOOTH",
"351 495 OFFCURVE",
"367 537 OFFCURVE",
"331 564 CURVE SMOOTH",
"305 584 OFFCURVE",
"255 577 OFFCURVE",
"241 560 CURVE SMOOTH",
"221 535 OFFCURVE",
"232 490 OFFCURVE",
"204 451 CURVE SMOOTH",
"182 420 OFFCURVE",
"147 425 OFFCURVE",
"133 395 CURVE SMOOTH",
"108 341 OFFCURVE",
"155 321 OFFCURVE",
"160 279 CURVE SMOOTH",
"164 247 OFFCURVE",
"150 220 OFFCURVE",
"157 189 CURVE SMOOTH",
"163 162 OFFCURVE",
"195 162 OFFCURVE",
"217 187 CURVE SMOOTH",
"240 213 OFFCURVE",
"245 259 OFFCURVE",
"283 270 CURVE SMOOTH",
"319 280 OFFCURVE",
"341 266 OFFCURVE",
"371 283 CURVE SMOOTH",
"407 304 OFFCURVE",
"394 330 OFFCURVE",
"432 358 CURVE SMOOTH",
"472 387 OFFCURVE",
"526 360 OFFCURVE",
"514 300 CURVE SMOOTH",
"505 254 OFFCURVE",
"461 256 OFFCURVE",
"453 223 CURVE SMOOTH",
"446 193 OFFCURVE",
"458 176 OFFCURVE",
"453 153 CURVE SMOOTH",
"444 113 OFFCURVE",
"416 121 OFFCURVE",
"410 83 CURVE SMOOTH",
"405 53 OFFCURVE",
"426 31 OFFCURVE",
"408 -12 CURVE SMOOTH",
"387 -63 OFFCURVE",
"355 -56 OFFCURVE",
"329 -88 CURVE SMOOTH",
"309 -113 OFFCURVE",
"309 -161 OFFCURVE",
"272 -170 CURVE SMOOTH",
"230 -180 OFFCURVE",
"204 -147 OFFCURVE",
"168 -129 CURVE SMOOTH",
"138 -114 OFFCURVE",
"81 -111 OFFCURVE",
"66 -48 CURVE SMOOTH",
"52 10 OFFCURVE",
"92 51 OFFCURVE",
"137 28 CURVE SMOOTH",
"166 13 OFFCURVE",
"163 -25 OFFCURVE",
"183 -52 CURVE SMOOTH",
"211 -91 OFFCURVE",
"267 -72 OFFCURVE",
"285 -35 CURVE SMOOTH",
"303 2 OFFCURVE",
"298 26 OFFCURVE",
"313 59 CURVE SMOOTH",
"330 96 OFFCURVE",
"352 96 OFFCURVE",
"361 124 CURVE SMOOTH",
"375 166 OFFCURVE",
"349 189 OFFCURVE",
"312 179 CURVE SMOOTH",
"259 165 OFFCURVE",
"233 74 OFFCURVE",
"162 71 CURVE SMOOTH",
"114 69 OFFCURVE",
"79 98 OFFCURVE",
"73 138 CURVE SMOOTH",
"67 176 OFFCURVE",
"80 199 OFFCURVE",
"75 223 CURVE SMOOTH",
"66 265 OFFCURVE",
"24 284 OFFCURVE",
"24 346 CURVE SMOOTH",
"24 421 OFFCURVE",
"69 423 OFFCURVE",
"96 461 CURVE SMOOTH",
"112 483 OFFCURVE",
"98 511 OFFCURVE",
"105 539 CURVE SMOOTH",
"112 568 OFFCURVE",
"142 571 OFFCURVE",
"156 586 CURVE SMOOTH",
"169 600 OFFCURVE",
"166 630 OFFCURVE",
"193 643 CURVE SMOOTH"
);
}
);
width = 490;
}
);
unicode = 0047;
},
{
glyphname = H;
lastChange = "2022-01-26 00:42:36 +0000";
layers = (
{
layerId = "A0EF8C6F-60C0-4D2A-A4F7-7A1091FA18C1";
paths = (
{
closed = 1;
nodes = (
"313 652 OFFCURVE",
"331 663 OFFCURVE",
"345 660 CURVE SMOOTH",
"363 656 OFFCURVE",
"371 632 OFFCURVE",
"394 632 CURVE SMOOTH",
"417 632 OFFCURVE",
"434 675 OFFCURVE",
"474 675 CURVE SMOOTH",
"504 675 OFFCURVE",
"521 652 OFFCURVE",
"523 625 CURVE SMOOTH",
"524 593 OFFCURVE",
"497 572 OFFCURVE",
"475 568 CURVE SMOOTH",
"450 564 OFFCURVE",
"417 582 OFFCURVE",
"401 559 CURVE SMOOTH",
"385 536 OFFCURVE",
"400 512 OFFCURVE",
"389 489 CURVE SMOOTH",
"376 462 OFFCURVE",
"332 457 OFFCURVE",
"344 422 CURVE SMOOTH",
"355 389 OFFCURVE",
"399 411 OFFCURVE",
"430 404 CURVE SMOOTH",
"459 400 OFFCURVE",
"478 382 OFFCURVE",
"503 382 CURVE SMOOTH",
"546 382 OFFCURVE",
"575 437 OFFCURVE",
"553 474 CURVE SMOOTH",
"537 500 OFFCURVE",
"499 494 OFFCURVE",
"507 530 CURVE SMOOTH",
"514 562 OFFCURVE",
"543 551 OFFCURVE",
"567 561 CURVE SMOOTH",
"597 573 OFFCURVE",
"589 601 OFFCURVE",
"619 613 CURVE SMOOTH",
"636 620 OFFCURVE",
"660 614 OFFCURVE",
"667 601 CURVE SMOOTH",
"673 589 OFFCURVE",
"671 570 OFFCURVE",
"679 562 CURVE SMOOTH",
"688 553 OFFCURVE",
"706 558 OFFCURVE",
"716 548 CURVE SMOOTH",
"731 533 OFFCURVE",
"720 501 OFFCURVE",
"691 493 CURVE SMOOTH",
"667 487 OFFCURVE",
"643 494 OFFCURVE",
"632 474 CURVE SMOOTH",
"614 442 OFFCURVE",
"644 367 OFFCURVE",
"627 297 CURVE SMOOTH",
"612 235 OFFCURVE",
"538 165 OFFCURVE",
"563 126 CURVE SMOOTH",
"582 97 OFFCURVE",
"620 128 OFFCURVE",
"644 105 CURVE SMOOTH",
"674 77 OFFCURVE",
"651 24 OFFCURVE",
"616 19 CURVE SMOOTH",
"591 15 OFFCURVE",
"560 23 OFFCURVE",
"545 20 CURVE SMOOTH",
"529 16 OFFCURVE",
"507 -2 OFFCURVE",
"485 -1 CURVE SMOOTH",
"463 1 OFFCURVE",
"454 23 OFFCURVE",
"439 27 CURVE SMOOTH",
"427 31 OFFCURVE",
"409 13 OFFCURVE",
"388 23 CURVE SMOOTH",
"355 37 OFFCURVE",
"354 107 OFFCURVE",
"398 114 CURVE SMOOTH",
"429 119 OFFCURVE",
"471 99 OFFCURVE",
"484 116 CURVE SMOOTH",
"497 135 OFFCURVE",
"482 156 OFFCURVE",
"487 203 CURVE SMOOTH",
"490 228 OFFCURVE",
"531 254 OFFCURVE",
"539 274 CURVE SMOOTH",
"546 296 OFFCURVE",
"530 330 OFFCURVE",
"511 324 CURVE SMOOTH",
"485 317 OFFCURVE",
"459 282 OFFCURVE",
"413 288 CURVE SMOOTH",
"378 293 OFFCURVE",
"362 343 OFFCURVE",
"331 343 CURVE SMOOTH",
"304 343 OFFCURVE",
"273 291 OFFCURVE",
"268 263 CURVE SMOOTH",
"263 236 OFFCURVE",
"272 198 OFFCURVE",
"268 161 CURVE SMOOTH",
"264 120 OFFCURVE",
"216 67 OFFCURVE",
"236 39 CURVE SMOOTH",
"249 20 OFFCURVE",
"272 40 OFFCURVE",
"295 30 CURVE SMOOTH",
"330 17 OFFCURVE",
"327 -33 OFFCURVE",
"290 -46 CURVE SMOOTH",
"247 -61 OFFCURVE",
"196 -45 OFFCURVE",
"165 -46 CURVE SMOOTH",
"134 -47 OFFCURVE",
"111 -74 OFFCURVE",
"70 -66 CURVE SMOOTH",
"21 -57 OFFCURVE",
"20 12 OFFCURVE",
"65 34 CURVE SMOOTH",
"96 49 OFFCURVE",
"137 41 OFFCURVE",
"155 64 CURVE SMOOTH",
"173 88 OFFCURVE",
"149 150 OFFCURVE",
"160 196 CURVE SMOOTH",
"170 243 OFFCURVE",
"192 260 OFFCURVE",
"214 304 CURVE SMOOTH",
"232 344 OFFCURVE",
"227 398 OFFCURVE",
"251 441 CURVE SMOOTH",
"272 479 OFFCURVE",
"310 500 OFFCURVE",
"308 538 CURVE SMOOTH",
"306 575 OFFCURVE",
"248 562 OFFCURVE",
"218 582 CURVE SMOOTH",
"185 604 OFFCURVE",
"186 671 OFFCURVE",
"239 680 CURVE SMOOTH",
"270 685 OFFCURVE",
"280 660 OFFCURVE",
"297 656 CURVE SMOOTH"
);
}
);
width = 761;
}
);
unicode = 0048;
},
{
glyphname = I;
lastChange = "2022-01-26 01:27:26 +0000";
layers = (
{
layerId = "A0EF8C6F-60C0-4D2A-A4F7-7A1091FA18C1";
paths = (
{
closed = 1;
nodes = (
"374 643 OFFCURVE",
"394 625 OFFCURVE",
"417 622 CURVE SMOOTH",
"436 620 OFFCURVE",
"446 639 OFFCURVE",
"471 632 CURVE SMOOTH",
"510 621 OFFCURVE",
"520 561 OFFCURVE",
"466 539 CURVE SMOOTH",
"428 523 OFFCURVE",
"384 565 OFFCURVE",
"361 537 CURVE SMOOTH",
"335 505 OFFCURVE",
"369 421 OFFCURVE",
"356 379 CURVE SMOOTH",
"341 326 OFFCURVE",
"303 319 OFFCURVE",
"295 274 CURVE SMOOTH",
"290 245 OFFCURVE",
"312 221 OFFCURVE",
"313 187 CURVE SMOOTH",
"315 153 OFFCURVE",
"280 98 OFFCURVE",
"299 73 CURVE SMOOTH",
"317 48 OFFCURVE",
"376 91 OFFCURVE",
"410 89 CURVE SMOOTH",
"445 87 OFFCURVE",
"461 22 OFFCURVE",
"406 -3 CURVE SMOOTH",
"376 -16 OFFCURVE",
"362 11 OFFCURVE",
"337 7 CURVE SMOOTH",
"301 1 OFFCURVE",
"290 -31 OFFCURVE",
"253 -32 CURVE SMOOTH",
"214 -33 OFFCURVE",
"209 -8 OFFCURVE",
"185 -3 CURVE SMOOTH",
"149 4 OFFCURVE",
"111 -27 OFFCURVE",
"65 -17 CURVE SMOOTH",
"10 -5 OFFCURVE",
"14 74 OFFCURVE",
"78 82 CURVE SMOOTH",
"118 87 OFFCURVE",
"157 52 OFFCURVE",
"193 80 CURVE SMOOTH",
"221 102 OFFCURVE",
"194 151 OFFCURVE",
"197 179 CURVE SMOOTH",
"201 213 OFFCURVE",
"221 225 OFFCURVE",
"227 262 CURVE SMOOTH",
"233 299 OFFCURVE",
"215 320 OFFCURVE",
"218 352 CURVE SMOOTH",
"222 384 OFFCURVE",
"262 424 OFFCURVE",
"272 454 CURVE SMOOTH",
"282 487 OFFCURVE",
"276 536 OFFCURVE",
"244 541 CURVE SMOOTH",
"223 544 OFFCURVE",
"207 520 OFFCURVE",
"175 525 CURVE SMOOTH",
"126 533 OFFCURVE",
"128 604 OFFCURVE",
"184 615 CURVE SMOOTH",
"221 621 OFFCURVE",
"230 605 OFFCURVE",
"258 611 CURVE SMOOTH",
"295 619 OFFCURVE",
"301 641 OFFCURVE",
"339 642 CURVE SMOOTH"
);
}
);
width = 479;
}
);
leftKerningGroup = I;
rightKerningGroup = I;
unicode = 0049;
},
{
color = 4;
glyphname = Icircumflex;
lastChange = "2021-10-06 14:28:20 +0000";
layers = (
{
components = (
{
name = I;
}
);
layerId = "A0EF8C6F-60C0-4D2A-A4F7-7A1091FA18C1";
paths = (
{
closed = 1;
nodes = (
"192 679 OFFCURVE",
"194 657 OFFCURVE",
"206 644 CURVE SMOOTH",
"223 626 OFFCURVE",
"252 629 OFFCURVE",
"275 650 CURVE SMOOTH",
"298 671 OFFCURVE",
"312 710 OFFCURVE",
"333 709 CURVE SMOOTH",
"355 708 OFFCURVE",
"364 676 OFFCURVE",
"383 661 CURVE SMOOTH",
"403 645 OFFCURVE",
"427 640 OFFCURVE",
"446 656 CURVE SMOOTH",
"462 669 OFFCURVE",
"464 691 OFFCURVE",
"452 708 CURVE SMOOTH",
"439 726 OFFCURVE",
"422 730 OFFCURVE",
"403 744 CURVE SMOOTH",
"384 758 OFFCURVE",
"371 784 OFFCURVE",
"339 785 CURVE SMOOTH",
"305 786 OFFCURVE",
"296 758 OFFCURVE",
"279 738 CURVE SMOOTH",
"262 718 OFFCURVE",
"224 723 OFFCURVE",
"205 697 CURVE SMOOTH"
);
}
);
width = 479;
}
);
leftKerningGroup = I;
rightKerningGroup = I;
unicode = 00CE;
},
{
color = 4;
glyphname = Idieresis;
lastChange = "2021-12-23 16:47:45 +0000";
layers = (
{
components = (
{
name = I;
}
);
layerId = "A0EF8C6F-60C0-4D2A-A4F7-7A1091FA18C1";
paths = (
{
closed = 1;
nodes = (
"263 622 OFFCURVE",
"297 636 OFFCURVE",
"311 662 CURVE SMOOTH",
"325 691 OFFCURVE",
"320 736 OFFCURVE",
"288 746 CURVE SMOOTH",
"255 756 OFFCURVE",
"226 740 OFFCURVE",
"211 710 CURVE SMOOTH",
"198 682 OFFCURVE",
"202 648 OFFCURVE",
"229 637 CURVE SMOOTH"
);
},
{
closed = 1;
nodes = (
"368 649 OFFCURVE",
"406 637 OFFCURVE",
"432 649 CURVE SMOOTH",
"459 662 OFFCURVE",
"465 695 OFFCURVE",
"457 721 CURVE SMOOTH",
"447 749 OFFCURVE",
"416 765 OFFCURVE",
"387 753 CURVE SMOOTH",
"359 742 OFFCURVE",
"349 708 OFFCURVE",
"359 679 CURVE SMOOTH"
);
}
);
width = 479;
}
);
leftKerningGroup = I;
rightKerningGroup = I;
unicode = 00CF;
},
{
glyphname = J;
lastChange = "2022-01-26 02:20:05 +0000";
layers = (
{
background = {
paths = (
{
closed = 1;
nodes = (
"353 626 OFFCURVE",
"354 651 OFFCURVE",
"378 655 CURVE SMOOTH",
"402 659 OFFCURVE",
"418 640 OFFCURVE",
"447 642 CURVE SMOOTH",
"479 644 OFFCURVE",
"492 680 OFFCURVE",
"536 679 CURVE SMOOTH",
"586 678 OFFCURVE",
"606 610 OFFCURVE",
"572 581 CURVE SMOOTH",
"541 554 OFFCURVE",
"482 585 OFFCURVE",
"464 559 CURVE SMOOTH",
"448 536 OFFCURVE",
"470 476 OFFCURVE",
"467 437 CURVE SMOOTH",
"464 403 OFFCURVE",
"425 372 OFFCURVE",
"424 331 CURVE SMOOTH",
"423 280 OFFCURVE",
"495 258 OFFCURVE",
"486 203 CURVE SMOOTH",
"477 147 OFFCURVE",
"413 114 OFFCURVE",
"371 70 CURVE SMOOTH",
"324 20 OFFCURVE",
"343 -15 OFFCURVE",
"310 -42 CURVE SMOOTH",
"274 -71 OFFCURVE",
"244 -49 OFFCURVE",
"201 -50 CURVE SMOOTH",
"168 -51 OFFCURVE",
"121 -83 OFFCURVE",
"86 -53 CURVE SMOOTH",
"56 -27 OFFCURVE",
"55 38 OFFCURVE",
"35 73 CURVE SMOOTH",
"10 117 OFFCURVE",
"-40 144 OFFCURVE",
"-47 190 CURVE SMOOTH",
"-54 236 OFFCURVE",
"-23 288 OFFCURVE",
"13 310 CURVE SMOOTH",
"51 333 OFFCURVE",
"120 320 OFFCURVE",
"107 257 CURVE SMOOTH",
"98 213 OFFCURVE",
"59 204 OFFCURVE",
"68 174 CURVE SMOOTH",
"76 148 OFFCURVE",
"115 163 OFFCURVE",
"131 135 CURVE SMOOTH",
"148 106 OFFCURVE",
"130 56 OFFCURVE",
"151 33 CURVE SMOOTH",
"171 11 OFFCURVE",
"227 17 OFFCURVE",
"250 45 CURVE SMOOTH",
"272 72 OFFCURVE",
"276 125 OFFCURVE",
"307 155 CURVE SMOOTH",
"331 178 OFFCURVE",
"362 173 OFFCURVE",
"370 213 CURVE SMOOTH",
"379 259 OFFCURVE",
"333 340 OFFCURVE",
"336 396 CURVE SMOOTH",
"339 448 OFFCURVE",
"373 467 OFFCURVE",
"377 500 CURVE SMOOTH",
"381 530 OFFCURVE",
"356 548 OFFCURVE",
"332 546 CURVE SMOOTH",
"304 544 OFFCURVE",
"269 511 OFFCURVE",
"228 510 CURVE SMOOTH",
"150 508 OFFCURVE",
"146 619 OFFCURVE",
"231 633 CURVE SMOOTH",
"280 641 OFFCURVE",
"303 620 OFFCURVE",
"329 623 CURVE SMOOTH"
);
}
);
};
layerId = "A0EF8C6F-60C0-4D2A-A4F7-7A1091FA18C1";
paths = (
{
closed = 1;
nodes = (
"353 626 OFFCURVE",
"354 651 OFFCURVE",
"378 655 CURVE SMOOTH",
"402 659 OFFCURVE",
"424 638 OFFCURVE",
"453 642 CURVE SMOOTH",
"485 646 OFFCURVE",
"499 686 OFFCURVE",
"543 685 CURVE SMOOTH",
"593 684 OFFCURVE",
"606 610 OFFCURVE",
"572 581 CURVE SMOOTH",
"541 554 OFFCURVE",
"484 598 OFFCURVE",
"464 559 CURVE SMOOTH",
"446 524 OFFCURVE",
"479 476 OFFCURVE",
"476 437 CURVE SMOOTH",
"473 396 OFFCURVE",
"425 372 OFFCURVE",
"424 331 CURVE SMOOTH",
"423 280 OFFCURVE",
"495 258 OFFCURVE",
"486 203 CURVE SMOOTH",
"477 147 OFFCURVE",
"410 132 OFFCURVE",
"379 85 CURVE SMOOTH",
"346 36 OFFCURVE",
"361 -20 OFFCURVE",
"328 -47 CURVE SMOOTH",
"292 -77 OFFCURVE",
"261 -48 OFFCURVE",
"218 -45 CURVE SMOOTH",
"185 -43 OFFCURVE",
"143 -71 OFFCURVE",
"110 -38 CURVE SMOOTH",
"82 -10 OFFCURVE",
"98 43 OFFCURVE",
"84 89 CURVE SMOOTH",
"71 131 OFFCURVE",
"26 177 OFFCURVE",
"26 224 CURVE SMOOTH",
"27 270 OFFCURVE",
"70 316 OFFCURVE",
"108 331 CURVE SMOOTH",
"149 348 OFFCURVE",
"215 320 OFFCURVE",
"190 263 CURVE SMOOTH",
"171 220 OFFCURVE",
"132 220 OFFCURVE",
"137 187 CURVE SMOOTH",
"141 161 OFFCURVE",
"171 160 OFFCURVE",
"184 128 CURVE SMOOTH",
"196 99 OFFCURVE",
"163 66 OFFCURVE",
"182 42 CURVE SMOOTH",
"201 18 OFFCURVE",
"233 15 OFFCURVE",
"257 42 CURVE SMOOTH",
"280 68 OFFCURVE",
"281 101 OFFCURVE",
"307 136 CURVE SMOOTH",
"332 169 OFFCURVE",
"362 173 OFFCURVE",
"370 213 CURVE SMOOTH",
"379 259 OFFCURVE",
"333 340 OFFCURVE",
"336 396 CURVE SMOOTH",
"339 448 OFFCURVE",
"373 467 OFFCURVE",
"377 500 CURVE SMOOTH",
"381 530 OFFCURVE",
"356 548 OFFCURVE",
"332 546 CURVE SMOOTH",
"304 544 OFFCURVE",
"269 511 OFFCURVE",
"228 510 CURVE SMOOTH",
"150 508 OFFCURVE",
"146 619 OFFCURVE",
"231 633 CURVE SMOOTH",
"280 641 OFFCURVE",
"303 620 OFFCURVE",
"329 623 CURVE SMOOTH"
);
}
);
width = 549;
}
);
unicode = 004A;
},
{
glyphname = K;
lastChange = "2022-01-26 01:27:47 +0000";
layers = (
{
layerId = "A0EF8C6F-60C0-4D2A-A4F7-7A1091FA18C1";
paths = (
{
closed = 1;
nodes = (
"252 649 OFFCURVE",
"263 622 OFFCURVE",
"292 621 CURVE SMOOTH",
"321 620 OFFCURVE",
"329 634 OFFCURVE",
"359 633 CURVE SMOOTH",
"409 631 OFFCURVE",
"418 576 OFFCURVE",
"389 547 CURVE SMOOTH",
"367 525 OFFCURVE",
"338 538 OFFCURVE",
"313 524 CURVE SMOOTH",
"291 512 OFFCURVE",
"271 475 OFFCURVE",
"268 443 CURVE SMOOTH",
"262 382 OFFCURVE",
"320 355 OFFCURVE",
"384 422 CURVE SMOOTH",
"442 483 OFFCURVE",
"519 650 OFFCURVE",
"620 659 CURVE SMOOTH",
"708 667 OFFCURVE",
"718 580 OFFCURVE",
"659 554 CURVE SMOOTH",
"622 538 OFFCURVE",
"590 551 OFFCURVE",
"556 523 CURVE SMOOTH",
"513 488 OFFCURVE",
"530 427 OFFCURVE",
"500 392 CURVE SMOOTH",
"464 350 OFFCURVE",
"397 366 OFFCURVE",
"387 336 CURVE SMOOTH",
"376 303 OFFCURVE",
"399 275 OFFCURVE",
"420 261 CURVE SMOOTH",
"451 240 OFFCURVE",
"493 233 OFFCURVE",
"511 197 CURVE SMOOTH",
"528 160 OFFCURVE",
"501 117 OFFCURVE",
"525 89 CURVE SMOOTH",
"551 59 OFFCURVE",
"610 116 OFFCURVE",
"639 87 CURVE SMOOTH",
"697 27 OFFCURVE",
"576 -75 OFFCURVE",
"499 -28 CURVE SMOOTH",
"461 -1 OFFCURVE",
"469 46 OFFCURVE",
"455 77 CURVE SMOOTH",
"439 113 OFFCURVE",
"410 117 OFFCURVE",
"389 152 CURVE SMOOTH",
"359 201 OFFCURVE",
"360 237 OFFCURVE",
"316 285 CURVE SMOOTH",
"287 317 OFFCURVE",
"238 317 OFFCURVE",
"234 262 CURVE SMOOTH",
"231 225 OFFCURVE",
"247 213 OFFCURVE",
"245 182 CURVE SMOOTH",
"243 145 OFFCURVE",
"198 113 OFFCURVE",
"217 84 CURVE SMOOTH",
"229 66 OFFCURVE",
"250 73 OFFCURVE",
"269 70 CURVE SMOOTH",
"323 61 OFFCURVE",
"315 -32 OFFCURVE",
"252 -34 CURVE SMOOTH",
"215 -35 OFFCURVE",
"206 -24 OFFCURVE",
"174 -26 CURVE SMOOTH",
"142 -28 OFFCURVE",
"107 -57 OFFCURVE",
"62 -56 CURVE SMOOTH",
"3 -55 OFFCURVE",
"0 24 OFFCURVE",
"48 40 CURVE SMOOTH",
"86 53 OFFCURVE",
"129 51 OFFCURVE",
"135 86 CURVE SMOOTH",
"143 134 OFFCURVE",
"113 160 OFFCURVE",
"121 209 CURVE SMOOTH",
"130 261 OFFCURVE",
"165 268 OFFCURVE",
"176 311 CURVE SMOOTH",
"186 349 OFFCURVE",
"157 377 OFFCURVE",
"162 415 CURVE SMOOTH",
"168 460 OFFCURVE",
"217 483 OFFCURVE",
"212 517 CURVE SMOOTH",
"208 544 OFFCURVE",
"174 535 OFFCURVE",
"140 555 CURVE SMOOTH",
"97 580 OFFCURVE",
"124 649 OFFCURVE",
"188 649 CURVE SMOOTH"
);
}
);
width = 702;
}
);
unicode = 004B;
},
{
glyphname = L;
lastChange = "2022-01-26 02:20:11 +0000";
layers = (
{
layerId = "A0EF8C6F-60C0-4D2A-A4F7-7A1091FA18C1";
paths = (
{
closed = 1;
nodes = (
"14 89 OFFCURVE",
"48 115 OFFCURVE",
"79 113 CURVE SMOOTH",
"113 111 OFFCURVE",
"157 69 OFFCURVE",
"182 96 CURVE SMOOTH",
"208 125 OFFCURVE",
"173 190 OFFCURVE",
"185 251 CURVE SMOOTH",
"196 310 OFFCURVE",
"224 317 OFFCURVE",
"238 365 CURVE SMOOTH",
"251 409 OFFCURVE",
"232 423 OFFCURVE",
"239 466 CURVE SMOOTH",
"246 507 OFFCURVE",
"290 528 OFFCURVE",
"272 551 CURVE SMOOTH",
"257 570 OFFCURVE",
"224 543 OFFCURVE",
"194 547 CURVE SMOOTH",
"149 553 OFFCURVE",
"151 608 OFFCURVE",
"208 636 CURVE SMOOTH",
"241 652 OFFCURVE",
"267 631 OFFCURVE",
"302 639 CURVE SMOOTH",
"332 646 OFFCURVE",
"335 669 OFFCURVE",
"373 672 CURVE SMOOTH",
"408 675 OFFCURVE",
"420 649 OFFCURVE",
"439 648 CURVE SMOOTH",
"459 647 OFFCURVE",
"508 689 OFFCURVE",
"537 651 CURVE SMOOTH",
"561 620 OFFCURVE",
"544 578 OFFCURVE",
"503 565 CURVE SMOOTH",
"457 550 OFFCURVE",
"399 581 OFFCURVE",
"363 542 CURVE SMOOTH",
"320 495 OFFCURVE",
"362 435 OFFCURVE",
"343 380 CURVE SMOOTH",
"327 333 OFFCURVE",
"283 311 OFFCURVE",
"274 282 CURVE SMOOTH",
"266 254 OFFCURVE",
"291 236 OFFCURVE",
"290 198 CURVE SMOOTH",
"289 155 OFFCURVE",
"248 108 OFFCURVE",
"278 85 CURVE SMOOTH",
"310 60 OFFCURVE",
"341 132 OFFCURVE",
"382 134 CURVE SMOOTH",
"422 136 OFFCURVE",
"428 102 OFFCURVE",
"463 114 CURVE SMOOTH",
"502 128 OFFCURVE",
"485 194 OFFCURVE",
"504 233 CURVE SMOOTH",
"529 284 OFFCURVE",
"613 291 OFFCURVE",
"609 223 CURVE SMOOTH",
"606 175 OFFCURVE",
"575 159 OFFCURVE",
"570 132 CURVE SMOOTH",
"566 106 OFFCURVE",
"589 32 OFFCURVE",
"544 3 CURVE SMOOTH",
"500 -25 OFFCURVE",
"466 26 OFFCURVE",
"407 31 CURVE SMOOTH",
"374 34 OFFCURVE",
"364 7 OFFCURVE",
"326 -3 CURVE SMOOTH",
"283 -14 OFFCURVE",
"263 14 OFFCURVE",
"236 6 CURVE SMOOTH",
"217 0 OFFCURVE",
"208 -27 OFFCURVE",
"176 -27 CURVE SMOOTH",
"144 -27 OFFCURVE",
"128 3 OFFCURVE",
"110 10 CURVE SMOOTH",
"89 18 OFFCURVE",
"22 -3 OFFCURVE",
"17 57 CURVE SMOOTH"
);
}
);
width = 653;
}
);
leftKerningGroup = L;
rightKerningGroup = L;
unicode = 004C;
},
{
glyphname = M;
lastChange = "2022-01-26 02:20:15 +0000";
layers = (
{
layerId = "A0EF8C6F-60C0-4D2A-A4F7-7A1091FA18C1";
paths = (
{
closed = 1;
nodes = (
"439 670 OFFCURVE",
"450 709 OFFCURVE",
"489 709 CURVE SMOOTH",
"516 709 OFFCURVE",
"537 692 OFFCURVE",
"538 664 CURVE SMOOTH",
"539 632 OFFCURVE",
"497 620 OFFCURVE",
"462 581 CURVE SMOOTH",
"426 540 OFFCURVE",
"439 450 OFFCURVE",
"490 438 CURVE SMOOTH",
"531 428 OFFCURVE",
"583 447 OFFCURVE",
"581 494 CURVE SMOOTH",
"580 534 OFFCURVE",
"530 536 OFFCURVE",
"528 573 CURVE SMOOTH",
"527 600 OFFCURVE",
"549 612 OFFCURVE",
"571 612 CURVE SMOOTH",
"596 612 OFFCURVE",
"609 585 OFFCURVE",
"639 585 CURVE SMOOTH",
"672 585 OFFCURVE",
"697 604 OFFCURVE",
"725 602 CURVE SMOOTH",
"751 600 OFFCURVE",
"765 576 OFFCURVE",
"764 550 CURVE SMOOTH",
"761 490 OFFCURVE",
"674 486 OFFCURVE",
"656 444 CURVE SMOOTH",
"641 409 OFFCURVE",
"655 368 OFFCURVE",
"655 317 CURVE SMOOTH",
"655 271 OFFCURVE",
"608 244 OFFCURVE",
"634 208 CURVE SMOOTH",
"660 172 OFFCURVE",
"677 196 OFFCURVE",
"714 191 CURVE SMOOTH",
"755 185 OFFCURVE",
"767 125 OFFCURVE",
"727 105 CURVE SMOOTH",
"709 96 OFFCURVE",
"680 102 OFFCURVE",
"649 97 CURVE SMOOTH",
"619 92 OFFCURVE",
"571 57 OFFCURVE",
"535 58 CURVE SMOOTH",
"504 59 OFFCURVE",
"482 76 OFFCURVE",
"477 99 CURVE SMOOTH",
"472 118 OFFCURVE",
"482 148 OFFCURVE",
"508 154 CURVE SMOOTH",
"531 159 OFFCURVE",
"558 148 OFFCURVE",
"569 170 CURVE SMOOTH",
"579 190 OFFCURVE",
"550 216 OFFCURVE",
"551 251 CURVE SMOOTH",
"552 284 OFFCURVE",
"576 301 OFFCURVE",
"578 334 CURVE SMOOTH",
"578 373 OFFCURVE",
"549 379 OFFCURVE",
"531 363 CURVE SMOOTH",
"512 346 OFFCURVE",
"513 286 OFFCURVE",
"486 265 CURVE SMOOTH",
"454 241 OFFCURVE",
"403 249 OFFCURVE",
"401 298 CURVE SMOOTH",
"400 334 OFFCURVE",
"429 339 OFFCURVE",
"428 370 CURVE SMOOTH",
"427 398 OFFCURVE",
"397 399 OFFCURVE",
"391 420 CURVE SMOOTH",
"384 442 OFFCURVE",
"395 471 OFFCURVE",
"391 490 CURVE SMOOTH",
"386 513 OFFCURVE",
"358 526 OFFCURVE",
"343 497 CURVE SMOOTH",
"316 445 OFFCURVE",
"353 399 OFFCURVE",
"342 339 CURVE SMOOTH",
"331 289 OFFCURVE",
"291 256 OFFCURVE",
"285 216 CURVE SMOOTH",
"280 190 OFFCURVE",
"299 172 OFFCURVE",
"293 141 CURVE SMOOTH",
"285 104 OFFCURVE",
"232 87 OFFCURVE",
"245 63 CURVE SMOOTH",
"258 40 OFFCURVE",
"312 61 OFFCURVE",
"341 49 CURVE SMOOTH",
"366 39 OFFCURVE",
"365 -24 OFFCURVE",
"314 -32 CURVE SMOOTH",
"274 -38 OFFCURVE",
"232 -14 OFFCURVE",
"199 -14 CURVE SMOOTH",
"168 -14 OFFCURVE",
"134 -32 OFFCURVE",
"107 -30 CURVE SMOOTH",
"45 -25 OFFCURVE",
"10 32 OFFCURVE",
"54 70 CURVE SMOOTH",
"85 97 OFFCURVE",
"131 64 OFFCURVE",
"155 80 CURVE SMOOTH",
"189 103 OFFCURVE",
"163 197 OFFCURVE",
"184 233 CURVE SMOOTH",
"205 265 OFFCURVE",
"244 275 OFFCURVE",
"249 317 CURVE SMOOTH",
"255 357 OFFCURVE",
"241 387 OFFCURVE",
"243 427 CURVE SMOOTH",
"245 481 OFFCURVE",
"299 527 OFFCURVE",
"298 556 CURVE SMOOTH",
"297 587 OFFCURVE",
"234 579 OFFCURVE",
"233 617 CURVE SMOOTH",
"232 649 OFFCURVE",
"270 664 OFFCURVE",
"291 664 CURVE SMOOTH",
"314 664 OFFCURVE",
"357 645 OFFCURVE",
"400 658 CURVE SMOOTH"
);
}
);
width = 799;
}
);
unicode = 004D;
},
{
glyphname = N;
lastChange = "2022-01-26 02:20:20 +0000";
layers = (
{
layerId = "A0EF8C6F-60C0-4D2A-A4F7-7A1091FA18C1";
paths = (
{
closed = 1;
nodes = (
"538 173 OFFCURVE",
"564 141 OFFCURVE",
"572 108 CURVE SMOOTH",
"583 60 OFFCURVE",
"553 32 OFFCURVE",
"515 50 CURVE SMOOTH",
"481 66 OFFCURVE",
"447 109 OFFCURVE",
"418 161 CURVE SMOOTH",
"370 249 OFFCURVE",
"347 426 OFFCURVE",
"293 424 CURVE SMOOTH",
"259 423 OFFCURVE",
"288 354 OFFCURVE",
"277 313 CURVE SMOOTH",
"265 269 OFFCURVE",
"164 182 OFFCURVE",
"203 144 CURVE SMOOTH",
"229 119 OFFCURVE",
"264 171 OFFCURVE",
"300 175 CURVE SMOOTH",
"332 179 OFFCURVE",
"363 140 OFFCURVE",
"353 111 CURVE SMOOTH",
"341 75 OFFCURVE",
"310 82 OFFCURVE",
"284 64 CURVE SMOOTH",
"265 51 OFFCURVE",
"254 22 OFFCURVE",
"230 13 CURVE SMOOTH",
"208 5 OFFCURVE",
"190 17 OFFCURVE",
"170 9 CURVE SMOOTH",
"141 -3 OFFCURVE",
"150 -20 OFFCURVE",
"109 -29 CURVE SMOOTH",
"70 -38 OFFCURVE",
"38 10 OFFCURVE",
"53 44 CURVE SMOOTH",
"72 87 OFFCURVE",
"108 60 OFFCURVE",
"130 102 CURVE SMOOTH",
"146 133 OFFCURVE",
"122 218 OFFCURVE",
"130 272 CURVE SMOOTH",
"140 338 OFFCURVE",
"216 369 OFFCURVE",
"212 488 CURVE SMOOTH",
"210 549 OFFCURVE",
"233 606 OFFCURVE",
"274 603 CURVE SMOOTH",
"324 599 OFFCURVE",
"338 514 OFFCURVE",
"355 480 CURVE SMOOTH",
"370 451 OFFCURVE",
"398 446 OFFCURVE",
"416 423 CURVE SMOOTH",
"435 399 OFFCURVE",
"428 332 OFFCURVE",
"445 301 CURVE SMOOTH",
"461 271 OFFCURVE",
"490 270 OFFCURVE",
"495 308 CURVE SMOOTH",
"499 336 OFFCURVE",
"480 383 OFFCURVE",
"481 410 CURVE SMOOTH",
"482 449 OFFCURVE",
"550 482 OFFCURVE",
"550 508 CURVE SMOOTH",
"549 535 OFFCURVE",
"529 544 OFFCURVE",
"498 541 CURVE SMOOTH",
"418 533 OFFCURVE",
"392 578 OFFCURVE",
"392 601 CURVE SMOOTH",
"392 623 OFFCURVE",
"396 649 OFFCURVE",
"480 635 CURVE SMOOTH",
"589 617 OFFCURVE",
"624 696 OFFCURVE",
"665 709 CURVE SMOOTH",
"709 723 OFFCURVE",
"728 692 OFFCURVE",
"728 660 CURVE SMOOTH",
"727 602 OFFCURVE",
"650 611 OFFCURVE",
"641 553 CURVE SMOOTH",
"632 496 OFFCURVE",
"563 431 OFFCURVE",
"560 395 CURVE SMOOTH",
"557 357 OFFCURVE",
"572 353 OFFCURVE",
"569 310 CURVE SMOOTH",
"566 269 OFFCURVE",
"544 249 OFFCURVE",
"541 210 CURVE SMOOTH"
);
}
);
width = 659;
}
);
leftKerningGroup = N;
rightKerningGroup = N;
unicode = 004E;
},
{
glyphname = O;
lastChange = "2022-01-25 22:02:28 +0000";
layers = (
{
guideLines = (
{
position = "{179, 726}";
}
);
layerId = "A0EF8C6F-60C0-4D2A-A4F7-7A1091FA18C1";
paths = (
{
closed = 1;
nodes = (
"288 -57 OFFCURVE",
"319 -23 OFFCURVE",
"357 -15 CURVE SMOOTH",
"403 -6 OFFCURVE",
"450 -15 OFFCURVE",
"486 25 CURVE SMOOTH",
"523 69 OFFCURVE",
"507 126 OFFCURVE",
"528 165 CURVE SMOOTH",
"556 215 OFFCURVE",
"596 222 OFFCURVE",
"612 280 CURVE SMOOTH",
"625 328 OFFCURVE",
"596 368 OFFCURVE",
"610 419 CURVE SMOOTH",
"627 479 OFFCURVE",
"725 489 OFFCURVE",
"708 638 CURVE SMOOTH",
"698 734 OFFCURVE",
"609 740 OFFCURVE",
"601 675 CURVE SMOOTH",
"596 645 OFFCURVE",
"623 606 OFFCURVE",
"625 576 CURVE SMOOTH",
"628 535 OFFCURVE",
"599 521 OFFCURVE",
"573 540 CURVE SMOOTH",
"556 553 OFFCURVE",
"556 590 OFFCURVE",
"526 609 CURVE SMOOTH",
"495 629 OFFCURVE",
"482 610 OFFCURVE",
"463 616 CURVE SMOOTH",
"443 621 OFFCURVE",
"432 647 OFFCURVE",
"401 646 CURVE SMOOTH",
"358 646 OFFCURVE",
"316 593 OFFCURVE",
"317 540 CURVE SMOOTH",
"318 497 OFFCURVE",
"340 486 OFFCURVE",
"346 462 CURVE SMOOTH",
"349 441 OFFCURVE",
"351 396 OFFCURVE",
"385 379 CURVE SMOOTH",
"418 360 OFFCURVE",
"451 375 OFFCURVE",
"477 402 CURVE SMOOTH",
"512 437 OFFCURVE",
"559 408 OFFCURVE",
"542 368 CURVE SMOOTH",
"526 327 OFFCURVE",
"503 323 OFFCURVE",
"487 292 CURVE SMOOTH",
"471 262 OFFCURVE",
"483 218 OFFCURVE",
"470 189 CURVE SMOOTH",
"457 161 OFFCURVE",
"429 144 OFFCURVE",
"399 118 CURVE SMOOTH",
"369 92 OFFCURVE",
"360 38 OFFCURVE",
"292 37 CURVE SMOOTH",
"230 36 OFFCURVE",
"224 85 OFFCURVE",
"196 115 CURVE SMOOTH",
"172 139 OFFCURVE",
"138 137 OFFCURVE",
"126 190 CURVE SMOOTH",
"117 237 OFFCURVE",
"154 256 OFFCURVE",
"156 298 CURVE SMOOTH",
"157 337 OFFCURVE",
"143 370 OFFCURVE",
"159 405 CURVE SMOOTH",
"182 452 OFFCURVE",
"252 459 OFFCURVE",
"275 507 CURVE SMOOTH",
"298 554 OFFCURVE",
"268 598 OFFCURVE",
"223 593 CURVE SMOOTH",
"141 584 OFFCURVE",
"130 474 OFFCURVE",
"104 441 CURVE SMOOTH",
"77 408 OFFCURVE",
"46 393 OFFCURVE",
"35 344 CURVE SMOOTH",
"22 289 OFFCURVE",
"53 260 OFFCURVE",
"55 195 CURVE SMOOTH",
"57 136 OFFCURVE",
"45 112 OFFCURVE",
"64 74 CURVE SMOOTH",
"79 46 OFFCURVE",
"120 32 OFFCURVE",
"152 13 CURVE SMOOTH",
"182 -6 OFFCURVE",
"197 -42 OFFCURVE",
"238 -49 CURVE SMOOTH"
);
},
{
closed = 1;
nodes = (
"488 519 OFFCURVE",
"522 526 OFFCURVE",
"522 499 CURVE SMOOTH",
"522 476 OFFCURVE",
"488 483 OFFCURVE",
"471 478 CURVE SMOOTH",
"456 474 OFFCURVE",
"441 453 OFFCURVE",
"424 462 CURVE SMOOTH",
"396 477 OFFCURVE",
"395 550 OFFCURVE",
"421 559 CURVE SMOOTH",
"439 565 OFFCURVE",
"454 537 OFFCURVE",
"467 530 CURVE SMOOTH"
);
}
);
width = 732;
}
);
leftKerningGroup = O;
rightKerningGroup = O;
unicode = 004F;
},
{
color = 4;
glyphname = Ocircumflex;
lastChange = "2021-12-23 16:49:59 +0000";
layers = (
{
components = (
{
name = O;
}
);
layerId = "A0EF8C6F-60C0-4D2A-A4F7-7A1091FA18C1";
paths = (
{
closed = 1;
nodes = (
"249 645 OFFCURVE",
"296 606 OFFCURVE",
"341 637 CURVE SMOOTH",
"370 657 OFFCURVE",
"374 699 OFFCURVE",
"400 699 CURVE SMOOTH",
"424 699 OFFCURVE",
"424 674 OFFCURVE",
"441 654 CURVE SMOOTH",
"477 611 OFFCURVE",
"532 655 OFFCURVE",
"500 697 CURVE SMOOTH",
"483 719 OFFCURVE",
"467 717 OFFCURVE",
"455 739 CURVE SMOOTH",
"445 757 OFFCURVE",
"440 787 OFFCURVE",
"410 786 CURVE SMOOTH",
"383 785 OFFCURVE",
"368 751 OFFCURVE",
"354 734 CURVE SMOOTH",
"339 716 OFFCURVE",
"304 715 OFFCURVE",
"285 691 CURVE SMOOTH"
);
}
);
width = 732;
}
);
leftKerningGroup = O;
rightKerningGroup = O;
unicode = 00D4;
},
{
color = 4;
glyphname = Odieresis;
lastChange = "2021-12-23 16:50:05 +0000";
layers = (
{
components = (
{
name = O;
}
);
layerId = "A0EF8C6F-60C0-4D2A-A4F7-7A1091FA18C1";
paths = (
{
closed = 1;
nodes = (
"316 616 OFFCURVE",
"350 634 OFFCURVE",
"364 661 CURVE SMOOTH",
"379 691 OFFCURVE",
"371 737 OFFCURVE",
"338 746 CURVE SMOOTH",
"304 754 OFFCURVE",
"274 737 OFFCURVE",
"261 706 CURVE SMOOTH",
"250 678 OFFCURVE",
"253 642 OFFCURVE",
"281 631 CURVE SMOOTH"
);
},
{
closed = 1;
nodes = (
"425 650 OFFCURVE",
"464 639 OFFCURVE",
"490 652 CURVE SMOOTH",
"517 664 OFFCURVE",
"521 699 OFFCURVE",
"511 726 CURVE SMOOTH",
"499 755 OFFCURVE",
"470 770 OFFCURVE",
"440 757 CURVE SMOOTH",
"410 743 OFFCURVE",
"402 708 OFFCURVE",
"413 679 CURVE SMOOTH"
);
}
);
width = 732;
}
);
leftKerningGroup = O;
rightKerningGroup = O;
unicode = 00D6;
},
{
color = 4;
glyphname = Ograve;
lastChange = "2021-12-23 17:09:05 +0000";
layers = (
{
layerId = "A0EF8C6F-60C0-4D2A-A4F7-7A1091FA18C1";
paths = (
{
closed = 1;
nodes = (
"288 -57 OFFCURVE",
"319 -23 OFFCURVE",
"357 -15 CURVE SMOOTH",
"403 -6 OFFCURVE",
"450 -15 OFFCURVE",
"486 25 CURVE SMOOTH",
"523 69 OFFCURVE",
"507 126 OFFCURVE",
"528 165 CURVE SMOOTH",
"556 215 OFFCURVE",
"596 222 OFFCURVE",
"612 280 CURVE SMOOTH",
"625 328 OFFCURVE",
"596 368 OFFCURVE",
"610 419 CURVE SMOOTH",
"627 479 OFFCURVE",
"725 489 OFFCURVE",
"708 638 CURVE SMOOTH",
"698 734 OFFCURVE",
"609 740 OFFCURVE",
"601 675 CURVE SMOOTH",
"596 645 OFFCURVE",
"623 606 OFFCURVE",
"625 576 CURVE SMOOTH",
"628 535 OFFCURVE",
"599 521 OFFCURVE",
"573 540 CURVE SMOOTH",
"556 553 OFFCURVE",
"556 590 OFFCURVE",
"526 609 CURVE SMOOTH",
"495 629 OFFCURVE",
"482 610 OFFCURVE",
"463 616 CURVE SMOOTH",
"443 621 OFFCURVE",
"432 647 OFFCURVE",
"401 646 CURVE SMOOTH",
"358 646 OFFCURVE",
"316 593 OFFCURVE",
"317 540 CURVE SMOOTH",
"318 497 OFFCURVE",
"340 486 OFFCURVE",
"346 462 CURVE SMOOTH",
"349 441 OFFCURVE",
"351 396 OFFCURVE",
"385 379 CURVE SMOOTH",
"418 360 OFFCURVE",
"451 375 OFFCURVE",
"477 402 CURVE SMOOTH",
"512 437 OFFCURVE",
"556 409 OFFCURVE",
"539 369 CURVE SMOOTH",
"523 328 OFFCURVE",
"506 322 OFFCURVE",
"490 291 CURVE SMOOTH",
"474 261 OFFCURVE",
"486 217 OFFCURVE",
"473 188 CURVE SMOOTH",
"460 160 OFFCURVE",
"422 139 OFFCURVE",
"402 117 CURVE SMOOTH",
"378 92 OFFCURVE",
"360 40 OFFCURVE",
"292 39 CURVE SMOOTH",
"230 38 OFFCURVE",
"220 82 OFFCURVE",
"192 112 CURVE SMOOTH",
"168 136 OFFCURVE",
"138 137 OFFCURVE",
"126 190 CURVE SMOOTH",
"117 237 OFFCURVE",
"154 256 OFFCURVE",
"156 298 CURVE SMOOTH",
"157 337 OFFCURVE",
"143 370 OFFCURVE",
"159 405 CURVE SMOOTH",
"182 452 OFFCURVE",
"252 459 OFFCURVE",
"275 507 CURVE SMOOTH",
"298 554 OFFCURVE",
"268 598 OFFCURVE",
"223 593 CURVE SMOOTH",
"141 584 OFFCURVE",
"130 474 OFFCURVE",
"104 441 CURVE SMOOTH",
"77 408 OFFCURVE",
"46 393 OFFCURVE",
"35 344 CURVE SMOOTH",
"22 289 OFFCURVE",
"53 260 OFFCURVE",
"55 195 CURVE SMOOTH",
"57 136 OFFCURVE",
"45 112 OFFCURVE",
"64 74 CURVE SMOOTH",
"79 46 OFFCURVE",
"120 32 OFFCURVE",
"152 13 CURVE SMOOTH",
"182 -6 OFFCURVE",
"197 -42 OFFCURVE",
"238 -49 CURVE SMOOTH"
);
},
{
closed = 1;
nodes = (
"488 517 OFFCURVE",
"524 525 OFFCURVE",
"524 496 CURVE SMOOTH",
"525 472 OFFCURVE",
"488 479 OFFCURVE",
"470 474 CURVE SMOOTH",
"454 469 OFFCURVE",
"437 447 OFFCURVE",
"419 457 CURVE SMOOTH",
"389 472 OFFCURVE",
"388 552 OFFCURVE",
"416 561 CURVE SMOOTH",
"435 567 OFFCURVE",
"451 537 OFFCURVE",
"465 529 CURVE SMOOTH"
);
},
{
closed = 1;
nodes = (
"521 619 OFFCURVE",
"448 651 OFFCURVE",
"424 698 CURVE SMOOTH",
"402 741 OFFCURVE",
"420 780 OFFCURVE",
"455 775 CURVE SMOOTH",
"492 770 OFFCURVE",
"489 736 OFFCURVE",
"522 705 CURVE SMOOTH",
"548 681 OFFCURVE",
"586 669 OFFCURVE",
"589 648 CURVE SMOOTH",
"591 635 OFFCURVE",
"583 619 OFFCURVE",
"563 619 CURVE SMOOTH"
);
}
);
width = 732;
}
);
leftKerningGroup = O;
rightKerningGroup = O;
unicode = 00D2;
},
{
glyphname = Oslash;
lastChange = "2022-01-23 12:42:14 +0000";
layers = (
{
layerId = "A0EF8C6F-60C0-4D2A-A4F7-7A1091FA18C1";
paths = (
{
closed = 1;
nodes = (
"20 178 OFFCURVE",
"78 164 OFFCURVE",
"93 206 CURVE SMOOTH",
"108 251 OFFCURVE",
"61 305 OFFCURVE",
"63 358 CURVE SMOOTH",
"66 410 OFFCURVE",
"111 431 OFFCURVE",
"135 467 CURVE SMOOTH",
"159 505 OFFCURVE",
"161 550 OFFCURVE",
"202 581 CURVE SMOOTH",
"243 613 OFFCURVE",
"286 602 OFFCURVE",
"328 618 CURVE SMOOTH",
"375 637 OFFCURVE",
"394 681 OFFCURVE",
"448 679 CURVE SMOOTH",
"522 677 OFFCURVE",
"523 578 OFFCURVE",
"452 562 CURVE SMOOTH",
"408 553 OFFCURVE",
"376 580 OFFCURVE",
"344 560 CURVE SMOOTH",
"310 541 OFFCURVE",
"305 499 OFFCURVE",
"279 481 CURVE SMOOTH",
"248 458 OFFCURVE",
"224 462 OFFCURVE",
"193 437 CURVE SMOOTH",
"163 413 OFFCURVE",
"141 361 OFFCURVE",
"147 313 CURVE SMOOTH",
"152 269 OFFCURVE",
"170 240 OFFCURVE",
"204 261 CURVE SMOOTH",
"228 276 OFFCURVE",
"238 317 OFFCURVE",
"260 335 CURVE SMOOTH",
"285 353 OFFCURVE",
"301 344 OFFCURVE",
"331 371 CURVE SMOOTH",
"361 398 OFFCURVE",
"346 443 OFFCURVE",
"386 480 CURVE SMOOTH",
"428 519 OFFCURVE",
"513 503 OFFCURVE",
"544 545 CURVE SMOOTH",
"574 588 OFFCURVE",
"557 638 OFFCURVE",
"583 676 CURVE SMOOTH",
"616 723 OFFCURVE",
"696 711 OFFCURVE",
"686 630 CURVE SMOOTH",
"679 572 OFFCURVE",
"615 545 OFFCURVE",
"604 472 CURVE SMOOTH",
"594 407 OFFCURVE",
"648 357 OFFCURVE",
"645 301 CURVE SMOOTH",
"640 232 OFFCURVE",
"585 218 OFFCURVE",
"563 160 CURVE SMOOTH",
"544 112 OFFCURVE",
"557 67 OFFCURVE",
"512 30 CURVE SMOOTH",
"478 1 OFFCURVE",
"420 8 OFFCURVE",
"372 -6 CURVE SMOOTH",
"327 -18 OFFCURVE",
"268 -60 OFFCURVE",
"217 -35 CURVE SMOOTH",
"166 -10 OFFCURVE",
"176 82 OFFCURVE",
"133 104 CURVE SMOOTH",
"102 120 OFFCURVE",
"75 55 OFFCURVE",
"34 50 CURVE SMOOTH",
"-24 43 OFFCURVE",
"-40 104 OFFCURVE",
"-11 140 CURVE SMOOTH"
);
},
{
closed = 1;
nodes = (
"300 216 OFFCURVE",
"210 200 OFFCURVE",
"217 125 CURVE SMOOTH",
"222 73 OFFCURVE",
"264 46 OFFCURVE",
"321 54 CURVE SMOOTH",
"378 62 OFFCURVE",
"383 93 OFFCURVE",
"419 118 CURVE SMOOTH",
"457 143 OFFCURVE",
"492 133 OFFCURVE",
"506 176 CURVE SMOOTH",
"516 209 OFFCURVE",
"498 253 OFFCURVE",
"510 293 CURVE SMOOTH",
"523 337 OFFCURVE",
"560 339 OFFCURVE",
"561 384 CURVE SMOOTH",
"564 441 OFFCURVE",
"508 462 OFFCURVE",
"464 425 CURVE SMOOTH",
"414 383 OFFCURVE",
"402 312 OFFCURVE",
"347 260 CURVE SMOOTH"
);
}
);
width = 733;
}
);
leftKerningGroup = O;
rightKerningGroup = O;
unicode = 00D8;
},
{
glyphname = OE;
lastChange = "2022-01-26 02:20:27 +0000";
layers = (
{
layerId = "A0EF8C6F-60C0-4D2A-A4F7-7A1091FA18C1";
paths = (
{
closed = 1;
nodes = (
"399 685 OFFCURVE",
"407 572 OFFCURVE",
"332 558 CURVE SMOOTH",
"282 550 OFFCURVE",
"241 575 OFFCURVE",
"193 526 CURVE SMOOTH",
"138 468 OFFCURVE",
"175 407 OFFCURVE",
"162 354 CURVE SMOOTH",
"146 287 OFFCURVE",
"101 257 OFFCURVE",
"103 206 CURVE SMOOTH",
"104 159 OFFCURVE",
"135 143 OFFCURVE",
"156 122 CURVE SMOOTH",
"180 98 OFFCURVE",
"186 62 OFFCURVE",
"214 59 CURVE SMOOTH",
"244 56 OFFCURVE",
"264 93 OFFCURVE",
"300 101 CURVE SMOOTH",
"336 109 OFFCURVE",
"377 91 OFFCURVE",
"414 131 CURVE SMOOTH",
"460 181 OFFCURVE",
"411 229 OFFCURVE",
"414 275 CURVE SMOOTH",
"418 324 OFFCURVE",
"474 348 OFFCURVE",
"461 399 CURVE SMOOTH",
"449 445 OFFCURVE",
"397 444 OFFCURVE",
"371 414 CURVE SMOOTH",
"339 378 OFFCURVE",
"357 308 OFFCURVE",
"290 291 CURVE SMOOTH",
"232 275 OFFCURVE",
"201 337 OFFCURVE",
"231 382 CURVE SMOOTH",
"258 422 OFFCURVE",
"300 425 OFFCURVE",
"321 445 CURVE SMOOTH",
"347 470 OFFCURVE",
"356 521 OFFCURVE",
"408 526 CURVE SMOOTH",
"447 530 OFFCURVE",
"454 464 OFFCURVE",
"495 470 CURVE SMOOTH",
"540 478 OFFCURVE",
"518 532 OFFCURVE",
"543 556 CURVE SMOOTH",
"566 578 OFFCURVE",
"584 558 OFFCURVE",
"609 574 CURVE SMOOTH",
"640 594 OFFCURVE",
"646 646 OFFCURVE",
"708 648 CURVE SMOOTH",
"758 650 OFFCURVE",
"765 596 OFFCURVE",
"792 582 CURVE SMOOTH",
"838 558 OFFCURVE",
"879 567 OFFCURVE",
"907 539 CURVE SMOOTH",
"965 481 OFFCURVE",
"914 399 OFFCURVE",
"852 423 CURVE SMOOTH",
"815 437 OFFCURVE",
"829 476 OFFCURVE",
"787 507 CURVE SMOOTH",
"691 579 OFFCURVE",
"503 452 OFFCURVE",
"555 351 CURVE SMOOTH",
"584 294 OFFCURVE",
"656 382 OFFCURVE",
"735 390 CURVE SMOOTH",
"789 395 OFFCURVE",
"790 311 OFFCURVE",
"730 280 CURVE SMOOTH",
"678 254 OFFCURVE",
"594 260 OFFCURVE",
"545 230 CURVE SMOOTH",
"505 205 OFFCURVE",
"519 125 OFFCURVE",
"553 114 CURVE SMOOTH",
"587 103 OFFCURVE",
"610 114 OFFCURVE",
"629 95 CURVE SMOOTH",
"647 77 OFFCURVE",
"662 33 OFFCURVE",
"703 36 CURVE SMOOTH",
"777 41 OFFCURVE",
"751 166 OFFCURVE",
"810 193 CURVE SMOOTH",
"874 222 OFFCURVE",
"922 143 OFFCURVE",
"858 52 CURVE SMOOTH",
"812 -13 OFFCURVE",
"743 -48 OFFCURVE",
"692 -50 CURVE SMOOTH",
"645 -52 OFFCURVE",
"636 -35 OFFCURVE",
"615 -28 CURVE SMOOTH",
"587 -19 OFFCURVE",
"553 -26 OFFCURVE",
"524 -5 CURVE SMOOTH",
"496 15 OFFCURVE",
"500 73 OFFCURVE",
"454 73 CURVE SMOOTH",
"399 71 OFFCURVE",
"362 -27 OFFCURVE",
"304 -37 CURVE SMOOTH",
"244 -47 OFFCURVE",
"214 -7 OFFCURVE",
"179 5 CURVE SMOOTH",
"135 19 OFFCURVE",
"68 -1 OFFCURVE",
"41 59 CURVE SMOOTH",
"13 121 OFFCURVE",
"49 211 OFFCURVE",
"55 273 CURVE SMOOTH",
"63 348 OFFCURVE",
"23 384 OFFCURVE",
"49 453 CURVE SMOOTH",
"71 513 OFFCURVE",
"119 526 OFFCURVE",
"155 558 CURVE SMOOTH",
"204 601 OFFCURVE",
"212 678 OFFCURVE",
"322 682 CURVE SMOOTH"
);
}
);
width = 963;
}
);
leftKerningGroup = O;
unicode = 0152;
},
{
glyphname = P;
lastChange = "2022-01-26 01:05:46 +0000";
layers = (
{
layerId = "A0EF8C6F-60C0-4D2A-A4F7-7A1091FA18C1";
paths = (
{
closed = 1;
nodes = (
"371 644 OFFCURVE",
"408 678 OFFCURVE",
"448 655 CURVE SMOOTH",
"483 634 OFFCURVE",
"483 590 OFFCURVE",
"502 572 CURVE SMOOTH",
"528 547 OFFCURVE",
"566 547 OFFCURVE",
"573 505 CURVE SMOOTH",
"580 456 OFFCURVE",
"533 441 OFFCURVE",
"527 410 CURVE SMOOTH",
"521 383 OFFCURVE",
"524 356 OFFCURVE",
"521 332 CURVE SMOOTH",
"516 297 OFFCURVE",
"476 277 OFFCURVE",
"439 285 CURVE SMOOTH",
"399 294 OFFCURVE",
"342 331 OFFCURVE",
"304 312 CURVE SMOOTH",
"273 297 OFFCURVE",
"278 245 OFFCURVE",
"265 210 CURVE SMOOTH",
"254 181 OFFCURVE",
"220 154 OFFCURVE",
"214 131 CURVE SMOOTH",
"208 110 OFFCURVE",
"217 86 OFFCURVE",
"240 82 CURVE SMOOTH",
"269 77 OFFCURVE",
"295 103 OFFCURVE",
"327 94 CURVE SMOOTH",
"371 81 OFFCURVE",
"376 15 OFFCURVE",
"332 0 CURVE SMOOTH",
"294 -13 OFFCURVE",
"230 4 OFFCURVE",
"191 0 CURVE SMOOTH",
"153 -4 OFFCURVE",
"122 -36 OFFCURVE",
"85 -37 CURVE SMOOTH",
"34 -39 OFFCURVE",
"12 30 OFFCURVE",
"50 57 CURVE SMOOTH",
"81 79 OFFCURVE",
"119 56 OFFCURVE",
"138 86 CURVE SMOOTH",
"161 123 OFFCURVE",
"138 195 OFFCURVE",
"155 250 CURVE SMOOTH",
"170 297 OFFCURVE",
"208 311 OFFCURVE",
"217 351 CURVE SMOOTH",
"227 394 OFFCURVE",
"210 419 OFFCURVE",
"216 455 CURVE SMOOTH",
"224 501 OFFCURVE",
"283 522 OFFCURVE",
"269 559 CURVE SMOOTH",
"256 592 OFFCURVE",
"193 567 OFFCURVE",
"160 586 CURVE SMOOTH",
"121 609 OFFCURVE",
"130 682 OFFCURVE",
"186 692 CURVE SMOOTH",
"248 703 OFFCURVE",
"284 652 OFFCURVE",
"330 648 CURVE SMOOTH"
);
},
{
closed = 1;
nodes = (
"339 579 OFFCURVE",
"352 511 OFFCURVE",
"337 466 CURVE SMOOTH",
"326 436 OFFCURVE",
"288 410 OFFCURVE",
"300 382 CURVE SMOOTH",
"314 351 OFFCURVE",
"356 382 OFFCURVE",
"385 386 CURVE SMOOTH",
"413 390 OFFCURVE",
"458 371 OFFCURVE",
"473 411 CURVE SMOOTH",
"495 471 OFFCURVE",
"429 591 OFFCURVE",
"370 583 CURVE SMOOTH"
);
}
);
width = 581;
}
);
unicode = 0050;
},
{
glyphname = Q;
lastChange = "2022-01-26 02:20:38 +0000";
layers = (
{
layerId = "A0EF8C6F-60C0-4D2A-A4F7-7A1091FA18C1";
paths = (
{
closed = 1;
nodes = (
"438 673 OFFCURVE",
"493 646 OFFCURVE",
"509 621 CURVE SMOOTH",
"526 595 OFFCURVE",
"522 564 OFFCURVE",
"534 544 CURVE SMOOTH",
"555 514 OFFCURVE",
"593 507 OFFCURVE",
"594 423 CURVE SMOOTH",
"597 338 OFFCURVE",
"514 280 OFFCURVE",
"510 232 CURVE SMOOTH",
"506 180 OFFCURVE",
"519 160 OFFCURVE",
"513 136 CURVE SMOOTH",
"506 110 OFFCURVE",
"471 107 OFFCURVE",
"453 93 CURVE SMOOTH",
"429 75 OFFCURVE",
"425 65 OFFCURVE",
"381 41 CURVE SMOOTH",
"338 17 OFFCURVE",
"307 63 OFFCURVE",
"259 67 CURVE SMOOTH",
"208 71 OFFCURVE",
"200 19 OFFCURVE",
"233 13 CURVE SMOOTH",
"266 7 OFFCURVE",
"299 4 OFFCURVE",
"318 -15 CURVE SMOOTH",
"338 -35 OFFCURVE",
"329 -57 OFFCURVE",
"346 -71 CURVE SMOOTH",
"360 -83 OFFCURVE",
"384 -71 OFFCURVE",
"401 -83 CURVE SMOOTH",
"418 -95 OFFCURVE",
"418 -138 OFFCURVE",
"457 -139 CURVE SMOOTH",
"505 -140 OFFCURVE",
"501 -82 OFFCURVE",
"542 -49 CURVE SMOOTH",
"580 -18 OFFCURVE",
"619 -40 OFFCURVE",
"622 -79 CURVE SMOOTH",
"627 -138 OFFCURVE",
"576 -212 OFFCURVE",
"471 -212 CURVE SMOOTH",
"397 -212 OFFCURVE",
"385 -161 OFFCURVE",
"353 -147 CURVE SMOOTH",
"323 -134 OFFCURVE",
"297 -147 OFFCURVE",
"278 -139 CURVE SMOOTH",
"250 -127 OFFCURVE",
"246 -83 OFFCURVE",
"229 -63 CURVE SMOOTH",
"214 -47 OFFCURVE",
"184 -42 OFFCURVE",
"162 -45 CURVE SMOOTH",
"133 -49 OFFCURVE",
"111 -76 OFFCURVE",
"66 -71 CURVE SMOOTH",
"5 -63 OFFCURVE",
"3 6 OFFCURVE",
"71 31 CURVE SMOOTH",
"115 47 OFFCURVE",
"163 27 OFFCURVE",
"169 64 CURVE SMOOTH",
"175 103 OFFCURVE",
"117 118 OFFCURVE",
"118 158 CURVE SMOOTH",
"118 203 OFFCURVE",
"158 218 OFFCURVE",
"163 262 CURVE SMOOTH",
"170 311 OFFCURVE",
"137 350 OFFCURVE",
"143 405 CURVE SMOOTH",
"149 457 OFFCURVE",
"189 486 OFFCURVE",
"204 510 CURVE SMOOTH",
"218 535 OFFCURVE",
"221 560 OFFCURVE",
"248 580 CURVE SMOOTH",
"277 599 OFFCURVE",
"314 597 OFFCURVE",
"340 609 CURVE SMOOTH",
"367 621 OFFCURVE",
"380 658 OFFCURVE",
"412 665 CURVE SMOOTH"
);
},
{
closed = 1;
nodes = (
"317 550 OFFCURVE",
"278 498 OFFCURVE",
"269 455 CURVE SMOOTH",
"261 415 OFFCURVE",
"279 396 OFFCURVE",
"274 361 CURVE SMOOTH",
"267 314 OFFCURVE",
"221 266 OFFCURVE",
"220 222 CURVE SMOOTH",
"219 156 OFFCURVE",
"273 112 OFFCURVE",
"334 131 CURVE SMOOTH",
"378 145 OFFCURVE",
"379 183 OFFCURVE",
"400 199 CURVE SMOOTH",
"420 215 OFFCURVE",
"452 221 OFFCURVE",
"455 254 CURVE SMOOTH",
"459 282 OFFCURVE",
"446 311 OFFCURVE",
"452 345 CURVE SMOOTH",
"461 396 OFFCURVE",
"525 423 OFFCURVE",
"509 482 CURVE SMOOTH",
"498 520 OFFCURVE",
"450 505 OFFCURVE",
"429 512 CURVE SMOOTH",
"406 520 OFFCURVE",
"397 550 OFFCURVE",
"361 550 CURVE SMOOTH"
);
}
);
width = 633;
}
);
unicode = 0051;
},
{
glyphname = R;
lastChange = "2022-01-26 02:20:43 +0000";
layers = (
{
background = {
paths = (
{
closed = 1;
nodes = (
"251 649 OFFCURVE",
"287 610 OFFCURVE",
"323 610 CURVE SMOOTH",
"355 610 OFFCURVE",
"394 627 OFFCURVE",
"426 627 CURVE SMOOTH",
"463 627 OFFCURVE",
"494 597 OFFCURVE",
"499 561 CURVE SMOOTH",
"504 527 OFFCURVE",
"478 508 OFFCURVE",
"482 482 CURVE SMOOTH",
"487 451 OFFCURVE",
"519 438 OFFCURVE",
"524 400 CURVE SMOOTH",
"529 363 OFFCURVE",
"504 334 OFFCURVE",
"468 334 CURVE SMOOTH",
"437 334 OFFCURVE",
"408 367 OFFCURVE",
"384 372 CURVE SMOOTH",
"362 377 OFFCURVE",
"346 360 OFFCURVE",
"353 341 CURVE SMOOTH",
"360 321 OFFCURVE",
"402 315 OFFCURVE",
"406 289 CURVE SMOOTH",
"409 261 OFFCURVE",
"389 256 OFFCURVE",
"392 235 CURVE SMOOTH",
"394 214 OFFCURVE",
"450 194 OFFCURVE",
"454 154 CURVE SMOOTH",
"459 123 OFFCURVE",
"423 105 OFFCURVE",
"427 81 CURVE SMOOTH",
"430 63 OFFCURVE",
"444 50 OFFCURVE",
"470 56 CURVE SMOOTH",
"497 62 OFFCURVE",
"519 94 OFFCURVE",
"545 94 CURVE SMOOTH",
"566 94 OFFCURVE",
"583 75 OFFCURVE",
"584 50 CURVE SMOOTH",
"587 9 OFFCURVE",
"537 -63 OFFCURVE",
"459 -63 CURVE SMOOTH",
"411 -63 OFFCURVE",
"380 -24 OFFCURVE",
"376 16 CURVE SMOOTH",
"371 52 OFFCURVE",
"385 80 OFFCURVE",
"378 102 CURVE SMOOTH",
"370 132 OFFCURVE",
"317 149 OFFCURVE",
"310 186 CURVE SMOOTH",
"303 218 OFFCURVE",
"319 241 OFFCURVE",
"314 276 CURVE SMOOTH",
"312 299 OFFCURVE",
"302 321 OFFCURVE",
"285 324 CURVE SMOOTH",
"270 327 OFFCURVE",
"261 317 OFFCURVE",
"259 302 CURVE SMOOTH",
"257 290 OFFCURVE",
"264 277 OFFCURVE",
"254 261 CURVE SMOOTH",
"245 247 OFFCURVE",
"225 251 OFFCURVE",
"217 235 CURVE SMOOTH",
"209 220 OFFCURVE",
"223 196 OFFCURVE",
"220 169 CURVE SMOOTH",
"215 143 OFFCURVE",
"171 132 OFFCURVE",
"181 102 CURVE SMOOTH",
"193 69 OFFCURVE",
"243 102 OFFCURVE",
"270 85 CURVE SMOOTH",
"301 67 OFFCURVE",
"302 6 OFFCURVE",
"246 -4 CURVE SMOOTH",
"218 -9 OFFCURVE",
"192 17 OFFCURVE",
"160 11 CURVE SMOOTH",
"133 6 OFFCURVE",
"119 -20 OFFCURVE",
"76 -24 CURVE SMOOTH",
"18 -29 OFFCURVE",
"1 47 OFFCURVE",
"44 65 CURVE SMOOTH",
"65 74 OFFCURVE",
"80 70 OFFCURVE",
"95 88 CURVE SMOOTH",
"122 121 OFFCURVE",
"93 170 OFFCURVE",
"108 209 CURVE SMOOTH",
"123 244 OFFCURVE",
"155 251 OFFCURVE",
"167 301 CURVE SMOOTH",
"179 352 OFFCURVE",
"163 396 OFFCURVE",
"177 431 CURVE SMOOTH",
"195 472 OFFCURVE",
"254 492 OFFCURVE",
"262 518 CURVE SMOOTH",
"269 542 OFFCURVE",
"260 561 OFFCURVE",
"241 558 CURVE SMOOTH",
"219 555 OFFCURVE",
"209 542 OFFCURVE",
"188 542 CURVE SMOOTH",
"145 542 OFFCURVE",
"132 628 OFFCURVE",
"201 640 CURVE SMOOTH"
);
},
{
closed = 1;
nodes = (
"352 554 OFFCURVE",
"328 546 OFFCURVE",
"320 530 CURVE SMOOTH",
"310 514 OFFCURVE",
"316 490 OFFCURVE",
"310 472 CURVE SMOOTH",
"302 455 OFFCURVE",
"292 441 OFFCURVE",
"281 431 CURVE SMOOTH",
"256 406 OFFCURVE",
"271 386 OFFCURVE",
"296 408 CURVE SMOOTH",
"306 418 OFFCURVE",
"330 428 OFFCURVE",
"344 430 CURVE SMOOTH",
"367 433 OFFCURVE",
"390 412 OFFCURVE",
"412 420 CURVE SMOOTH",
"431 426 OFFCURVE",
"434 473 OFFCURVE",
"417 485 CURVE SMOOTH",
"409 490 OFFCURVE",
"397 489 OFFCURVE",
"389 501 CURVE SMOOTH",
"381 513 OFFCURVE",
"391 537 OFFCURVE",
"371 546 CURVE SMOOTH"
);
},
{
closed = 1;
nodes = (
"239 649 OFFCURVE",
"276 610 OFFCURVE",
"312 610 CURVE SMOOTH",
"344 610 OFFCURVE",
"383 627 OFFCURVE",
"415 627 CURVE SMOOTH",
"452 627 OFFCURVE",
"483 597 OFFCURVE",
"489 561 CURVE SMOOTH",
"494 527 OFFCURVE",
"469 508 OFFCURVE",
"473 482 CURVE SMOOTH",
"479 451 OFFCURVE",
"511 438 OFFCURVE",
"517 400 CURVE SMOOTH",
"522 363 OFFCURVE",
"498 334 OFFCURVE",
"462 334 CURVE SMOOTH",
"431 334 OFFCURVE",
"401 367 OFFCURVE",
"377 372 CURVE SMOOTH",
"355 377 OFFCURVE",
"339 363 OFFCURVE",
"347 336 CURVE SMOOTH",
"364 289 OFFCURVE",
"428 282 OFFCURVE",
"443 228 CURVE SMOOTH",
"455 180 OFFCURVE",
"420 158 OFFCURVE",
"424 134 CURVE SMOOTH",
"428 116 OFFCURVE",
"442 103 OFFCURVE",
"468 109 CURVE SMOOTH",
"495 115 OFFCURVE",
"516 147 OFFCURVE",
"542 147 CURVE SMOOTH",
"563 147 OFFCURVE",
"580 128 OFFCURVE",
"582 103 CURVE SMOOTH",
"584 62 OFFCURVE",
"537 -10 OFFCURVE",
"459 -10 CURVE SMOOTH",
"411 -10 OFFCURVE",
"380 29 OFFCURVE",
"374 69 CURVE SMOOTH",
"370 105 OFFCURVE",
"382 133 OFFCURVE",
"375 155 CURVE SMOOTH",
"365 185 OFFCURVE",
"314 202 OFFCURVE",
"305 239 CURVE SMOOTH",
"300 261 OFFCURVE",
"306 284 OFFCURVE",
"302 302 CURVE SMOOTH",
"297 327 OFFCURVE",
"257 336 OFFCURVE",
"253 302 CURVE SMOOTH",
"252 290 OFFCURVE",
"259 277 OFFCURVE",
"249 261 CURVE SMOOTH",
"240 247 OFFCURVE",
"220 251 OFFCURVE",
"212 235 CURVE SMOOTH",
"205 220 OFFCURVE",
"219 196 OFFCURVE",
"217 169 CURVE SMOOTH",
"212 143 OFFCURVE",
"168 132 OFFCURVE",
"179 102 CURVE SMOOTH",
"191 69 OFFCURVE",
"241 102 OFFCURVE",
"268 85 CURVE SMOOTH",
"299 67 OFFCURVE",
"301 6 OFFCURVE",
"246 -4 CURVE SMOOTH",
"218 -9 OFFCURVE",
"191 17 OFFCURVE",
"159 11 CURVE SMOOTH",
"132 6 OFFCURVE",
"119 -20 OFFCURVE",
"76 -24 CURVE SMOOTH",
"18 -29 OFFCURVE",
"0 47 OFFCURVE",
"42 65 CURVE SMOOTH",
"63 74 OFFCURVE",
"78 70 OFFCURVE",
"93 88 CURVE SMOOTH",
"119 121 OFFCURVE",
"90 170 OFFCURVE",
"104 209 CURVE SMOOTH",
"118 244 OFFCURVE",
"150 251 OFFCURVE",
"161 301 CURVE SMOOTH",
"172 352 OFFCURVE",
"156 396 OFFCURVE",
"169 431 CURVE SMOOTH",
"186 472 OFFCURVE",
"245 492 OFFCURVE",
"253 518 CURVE SMOOTH",
"259 542 OFFCURVE",
"250 561 OFFCURVE",
"231 558 CURVE SMOOTH",
"209 555 OFFCURVE",
"199 542 OFFCURVE",
"178 542 CURVE SMOOTH",
"135 542 OFFCURVE",
"121 628 OFFCURVE",
"189 640 CURVE SMOOTH"
);
},
{
closed = 1;
nodes = (
"342 546 OFFCURVE",
"320 539 OFFCURVE",
"313 525 CURVE SMOOTH",
"304 510 OFFCURVE",
"310 488 OFFCURVE",
"305 472 CURVE SMOOTH",
"298 457 OFFCURVE",
"289 444 OFFCURVE",
"279 435 CURVE SMOOTH",
"257 412 OFFCURVE",
"271 394 OFFCURVE",
"293 414 CURVE SMOOTH",
"302 423 OFFCURVE",
"324 432 OFFCURVE",
"336 434 CURVE SMOOTH",
"357 437 OFFCURVE",
"378 418 OFFCURVE",
"398 425 CURVE SMOOTH",
"415 431 OFFCURVE",
"417 473 OFFCURVE",
"402 484 CURVE SMOOTH",
"394 488 OFFCURVE",
"384 488 OFFCURVE",
"376 498 CURVE SMOOTH",
"369 509 OFFCURVE",
"377 531 OFFCURVE",
"359 539 CURVE SMOOTH"
);
}
);
};
layerId = "A0EF8C6F-60C0-4D2A-A4F7-7A1091FA18C1";
paths = (
{
closed = 1;
nodes = (
"239 649 OFFCURVE",
"276 610 OFFCURVE",
"312 610 CURVE SMOOTH",
"344 610 OFFCURVE",
"383 627 OFFCURVE",
"415 627 CURVE SMOOTH",
"452 627 OFFCURVE",
"483 597 OFFCURVE",
"489 561 CURVE SMOOTH",
"494 527 OFFCURVE",
"469 508 OFFCURVE",
"473 482 CURVE SMOOTH",
"479 451 OFFCURVE",
"511 438 OFFCURVE",
"517 400 CURVE SMOOTH",
"522 363 OFFCURVE",
"498 334 OFFCURVE",
"462 334 CURVE SMOOTH",
"431 334 OFFCURVE",
"401 367 OFFCURVE",
"377 372 CURVE SMOOTH",
"355 377 OFFCURVE",
"339 363 OFFCURVE",
"347 336 CURVE SMOOTH",
"364 289 OFFCURVE",
"428 282 OFFCURVE",
"443 228 CURVE SMOOTH",
"455 180 OFFCURVE",
"420 158 OFFCURVE",
"424 134 CURVE SMOOTH",
"428 116 OFFCURVE",
"442 103 OFFCURVE",
"468 109 CURVE SMOOTH",
"495 115 OFFCURVE",
"516 147 OFFCURVE",
"542 147 CURVE SMOOTH",
"563 147 OFFCURVE",
"580 128 OFFCURVE",
"582 103 CURVE SMOOTH",
"584 62 OFFCURVE",
"537 -10 OFFCURVE",
"459 -10 CURVE SMOOTH",
"411 -10 OFFCURVE",
"380 29 OFFCURVE",
"374 69 CURVE SMOOTH",
"370 105 OFFCURVE",
"382 133 OFFCURVE",
"375 155 CURVE SMOOTH",
"365 185 OFFCURVE",
"320 204 OFFCURVE",
"308 233 CURVE SMOOTH",
"298 257 OFFCURVE",
"313 289 OFFCURVE",
"297 313 CURVE SMOOTH",
"277 344 OFFCURVE",
"234 309 OFFCURVE",
"220 267 CURVE SMOOTH",
"209 233 OFFCURVE",
"225 206 OFFCURVE",
"218 172 CURVE SMOOTH",
"212 143 OFFCURVE",
"168 132 OFFCURVE",
"179 102 CURVE SMOOTH",
"191 69 OFFCURVE",
"241 102 OFFCURVE",
"268 85 CURVE SMOOTH",
"299 67 OFFCURVE",
"301 6 OFFCURVE",
"246 -4 CURVE SMOOTH",
"218 -9 OFFCURVE",
"191 17 OFFCURVE",
"159 11 CURVE SMOOTH",
"132 6 OFFCURVE",
"119 -20 OFFCURVE",
"76 -24 CURVE SMOOTH",
"18 -29 OFFCURVE",
"0 47 OFFCURVE",
"42 65 CURVE SMOOTH",
"63 74 OFFCURVE",
"78 70 OFFCURVE",
"93 88 CURVE SMOOTH",
"119 121 OFFCURVE",
"90 170 OFFCURVE",
"104 209 CURVE SMOOTH",
"118 244 OFFCURVE",
"150 251 OFFCURVE",
"161 301 CURVE SMOOTH",
"172 352 OFFCURVE",
"156 396 OFFCURVE",
"169 431 CURVE SMOOTH",
"186 472 OFFCURVE",
"245 492 OFFCURVE",
"253 518 CURVE SMOOTH",
"259 542 OFFCURVE",
"250 561 OFFCURVE",
"231 558 CURVE SMOOTH",
"209 555 OFFCURVE",
"199 542 OFFCURVE",
"178 542 CURVE SMOOTH",
"135 542 OFFCURVE",
"121 628 OFFCURVE",
"189 640 CURVE SMOOTH"
);
},
{
closed = 1;
nodes = (
"342 546 OFFCURVE",
"320 539 OFFCURVE",
"313 525 CURVE SMOOTH",
"304 510 OFFCURVE",
"310 488 OFFCURVE",
"305 472 CURVE SMOOTH",
"298 457 OFFCURVE",
"289 444 OFFCURVE",
"279 435 CURVE SMOOTH",
"257 412 OFFCURVE",
"271 394 OFFCURVE",
"293 414 CURVE SMOOTH",
"302 423 OFFCURVE",
"324 432 OFFCURVE",
"336 434 CURVE SMOOTH",
"357 437 OFFCURVE",
"378 418 OFFCURVE",
"398 425 CURVE SMOOTH",
"415 431 OFFCURVE",
"417 473 OFFCURVE",
"402 484 CURVE SMOOTH",
"394 488 OFFCURVE",
"384 488 OFFCURVE",
"376 498 CURVE SMOOTH",
"369 509 OFFCURVE",
"377 531 OFFCURVE",
"359 539 CURVE SMOOTH"
);
}
);
width = 608;
}
);
leftKerningGroup = R;
rightKerningGroup = R;
unicode = 0052;
},
{
glyphname = S;
lastChange = "2022-01-26 02:20:56 +0000";
layers = (
{
layerId = "A0EF8C6F-60C0-4D2A-A4F7-7A1091FA18C1";
paths = (
{
closed = 1;
nodes = (
"422 -20 OFFCURVE",
"392 -7 OFFCURVE",
"358 -19 CURVE SMOOTH",
"320 -31 OFFCURVE",
"299 -52 OFFCURVE",
"259 -42 CURVE SMOOTH",
"218 -33 OFFCURVE",
"211 3 OFFCURVE",
"171 16 CURVE SMOOTH",
"126 31 OFFCURVE",
"70 1 OFFCURVE",
"41 43 CURVE SMOOTH",
"18 76 OFFCURVE",
"60 117 OFFCURVE",
"70 154 CURVE SMOOTH",
"79 188 OFFCURVE",
"70 227 OFFCURVE",
"105 259 CURVE SMOOTH",
"140 291 OFFCURVE",
"190 274 OFFCURVE",
"192 225 CURVE SMOOTH",
"194 172 OFFCURVE",
"136 164 OFFCURVE",
"153 120 CURVE SMOOTH",
"171 74 OFFCURVE",
"219 108 OFFCURVE",
"264 96 CURVE SMOOTH",
"287 90 OFFCURVE",
"301 62 OFFCURVE",
"322 57 CURVE SMOOTH",
"349 51 OFFCURVE",
"381 58 OFFCURVE",
"385 79 CURVE SMOOTH",
"389 101 OFFCURVE",
"372 113 OFFCURVE",
"374 134 CURVE SMOOTH",
"376 157 OFFCURVE",
"405 182 OFFCURVE",
"374 227 CURVE SMOOTH",
"336 284 OFFCURVE",
"264 252 OFFCURVE",
"236 283 CURVE SMOOTH",
"215 307 OFFCURVE",
"228 337 OFFCURVE",
"210 366 CURVE SMOOTH",
"192 396 OFFCURVE",
"128 400 OFFCURVE",
"140 475 CURVE SMOOTH",
"154 566 OFFCURVE",
"229 560 OFFCURVE",
"262 584 CURVE SMOOTH",
"298 608 OFFCURVE",
"291 678 OFFCURVE",
"343 678 CURVE SMOOTH",
"399 678 OFFCURVE",
"408 589 OFFCURVE",
"437 566 CURVE SMOOTH",
"470 540 OFFCURVE",
"501 555 OFFCURVE",
"527 522 CURVE SMOOTH",
"552 491 OFFCURVE",
"532 425 OFFCURVE",
"476 432 CURVE SMOOTH",
"414 440 OFFCURVE",
"403 517 OFFCURVE",
"354 540 CURVE SMOOTH",
"306 562 OFFCURVE",
"253 525 OFFCURVE",
"253 475 CURVE SMOOTH",
"253 428 OFFCURVE",
"290 435 OFFCURVE",
"308 411 CURVE SMOOTH",
"326 387 OFFCURVE",
"312 361 OFFCURVE",
"335 338 CURVE SMOOTH",
"375 298 OFFCURVE",
"410 330 OFFCURVE",
"455 307 CURVE SMOOTH",
"489 289 OFFCURVE",
"510 250 OFFCURVE",
"501 211 CURVE SMOOTH",
"489 159 OFFCURVE",
"455 156 OFFCURVE",
"453 125 CURVE SMOOTH",
"451 95 OFFCURVE",
"476 44 OFFCURVE",
"447 9 CURVE SMOOTH"
);
}
);
width = 513;
}
);
leftKerningGroup = S;
rightKerningGroup = S;
unicode = 0053;
},
{
glyphname = T;
lastChange = "2022-01-26 02:21:02 +0000";
layers = (
{
layerId = "A0EF8C6F-60C0-4D2A-A4F7-7A1091FA18C1";
paths = (
{
closed = 1;
nodes = (
"285 620 OFFCURVE",
"289 607 OFFCURVE",
"317 608 CURVE SMOOTH",
"351 609 OFFCURVE",
"364 652 OFFCURVE",
"402 652 CURVE SMOOTH",
"438 652 OFFCURVE",
"456 627 OFFCURVE",
"491 627 CURVE SMOOTH",
"528 627 OFFCURVE",
"546 669 OFFCURVE",
"578 676 CURVE SMOOTH",
"605 683 OFFCURVE",
"629 661 OFFCURVE",
"622 627 CURVE SMOOTH",
"616 594 OFFCURVE",
"596 574 OFFCURVE",
"594 550 CURVE SMOOTH",
"592 527 OFFCURVE",
"604 510 OFFCURVE",
"599 482 CURVE SMOOTH",
"588 418 OFFCURVE",
"511 414 OFFCURVE",
"499 475 CURVE SMOOTH",
"492 508 OFFCURVE",
"515 526 OFFCURVE",
"502 551 CURVE SMOOTH",
"487 583 OFFCURVE",
"387 559 OFFCURVE",
"378 508 CURVE SMOOTH",
"372 475 OFFCURVE",
"388 458 OFFCURVE",
"386 434 CURVE SMOOTH",
"384 410 OFFCURVE",
"359 397 OFFCURVE",
"354 374 CURVE SMOOTH",
"349 351 OFFCURVE",
"365 328 OFFCURVE",
"359 301 CURVE SMOOTH",
"353 275 OFFCURVE",
"325 271 OFFCURVE",
"320 245 CURVE SMOOTH",
"315 219 OFFCURVE",
"325 190 OFFCURVE",
"323 166 CURVE SMOOTH",
"319 139 OFFCURVE",
"291 111 OFFCURVE",
"303 83 CURVE SMOOTH",
"315 53 OFFCURVE",
"364 86 OFFCURVE",
"397 80 CURVE SMOOTH",
"451 68 OFFCURVE",
"442 -10 OFFCURVE",
"388 -17 CURVE SMOOTH",
"353 -22 OFFCURVE",
"330 1 OFFCURVE",
"301 -4 CURVE SMOOTH",
"268 -10 OFFCURVE",
"265 -32 OFFCURVE",
"234 -32 CURVE SMOOTH",
"207 -32 OFFCURVE",
"198 -9 OFFCURVE",
"172 -7 CURVE SMOOTH",
"150 -5 OFFCURVE",
"127 -21 OFFCURVE",
"93 -12 CURVE SMOOTH",
"42 1 OFFCURVE",
"49 84 OFFCURVE",
"112 84 CURVE SMOOTH",
"151 84 OFFCURVE",
"193 54 OFFCURVE",
"216 82 CURVE SMOOTH",
"234 105 OFFCURVE",
"206 141 OFFCURVE",
"211 179 CURVE SMOOTH",
"217 219 OFFCURVE",
"255 251 OFFCURVE",
"260 284 CURVE SMOOTH",
"265 318 OFFCURVE",
"241 342 OFFCURVE",
"246 381 CURVE SMOOTH",
"249 417 OFFCURVE",
"291 441 OFFCURVE",
"291 490 CURVE SMOOTH",
"291 543 OFFCURVE",
"217 546 OFFCURVE",
"183 511 CURVE SMOOTH",
"153 482 OFFCURVE",
"148 445 OFFCURVE",
"118 420 CURVE SMOOTH",
"77 387 OFFCURVE",
"22 409 OFFCURVE",
"47 470 CURVE SMOOTH",
"58 498 OFFCURVE",
"79 507 OFFCURVE",
"90 533 CURVE SMOOTH",
"100 561 OFFCURVE",
"88 598 OFFCURVE",
"116 611 CURVE SMOOTH",
"150 627 OFFCURVE",
"168 590 OFFCURVE",
"196 590 CURVE SMOOTH",
"222 590 OFFCURVE",
"231 618 OFFCURVE",
"259 619 CURVE SMOOTH"
);
}
);
width = 609;
}
);
leftKerningGroup = T;
rightKerningGroup = T;
unicode = 0054;
},
{
glyphname = U;
lastChange = "2022-01-26 02:21:06 +0000";
layers = (
{
layerId = "A0EF8C6F-60C0-4D2A-A4F7-7A1091FA18C1";
paths = (
{
closed = 1;
nodes = (
"385 677 OFFCURVE",
"405 658 OFFCURVE",
"406 632 CURVE SMOOTH",
"407 605 OFFCURVE",
"395 597 OFFCURVE",
"396 576 CURVE SMOOTH",
"397 555 OFFCURVE",
"410 540 OFFCURVE",
"407 509 CURVE SMOOTH",
"400 437 OFFCURVE",
"260 366 OFFCURVE",
"253 310 CURVE SMOOTH",
"249 276 OFFCURVE",
"265 261 OFFCURVE",
"260 234 CURVE SMOOTH",
"254 199 OFFCURVE",
"190 146 OFFCURVE",
"176 120 CURVE SMOOTH",
"148 69 OFFCURVE",
"211 9 OFFCURVE",
"266 54 CURVE SMOOTH",
"302 83 OFFCURVE",
"285 128 OFFCURVE",
"306 155 CURVE SMOOTH",
"328 183 OFFCURVE",
"370 182 OFFCURVE",
"386 214 CURVE SMOOTH",
"410 261 OFFCURVE",
"405 322 OFFCURVE",
"437 379 CURVE SMOOTH",
"464 427 OFFCURVE",
"496 451 OFFCURVE",
"514 483 CURVE SMOOTH",
"532 515 OFFCURVE",
"520 564 OFFCURVE",
"539 599 CURVE SMOOTH",
"567 650 OFFCURVE",
"655 657 OFFCURVE",
"652 588 CURVE SMOOTH",
"650 535 OFFCURVE",
"616 519 OFFCURVE",
"598 481 CURVE SMOOTH",
"575 433 OFFCURVE",
"585 404 OFFCURVE",
"555 341 CURVE SMOOTH",
"529 285 OFFCURVE",
"463 238 OFFCURVE",
"459 194 CURVE SMOOTH",
"455 150 OFFCURVE",
"505 121 OFFCURVE",
"550 144 CURVE SMOOTH",
"595 166 OFFCURVE",
"630 246 OFFCURVE",
"665 280 CURVE SMOOTH",
"700 314 OFFCURVE",
"756 306 OFFCURVE",
"741 247 CURVE SMOOTH",
"730 202 OFFCURVE",
"664 173 OFFCURVE",
"635 121 CURVE SMOOTH",
"609 74 OFFCURVE",
"598 32 OFFCURVE",
"565 -1 CURVE SMOOTH",
"526 -40 OFFCURVE",
"482 -43 OFFCURVE",
"470 -2 CURVE SMOOTH",
"462 26 OFFCURVE",
"483 40 OFFCURVE",
"472 58 CURVE SMOOTH",
"461 77 OFFCURVE",
"432 58 OFFCURVE",
"422 77 CURVE SMOOTH",
"413 94 OFFCURVE",
"432 132 OFFCURVE",
"410 139 CURVE SMOOTH",
"393 144 OFFCURVE",
"369 118 OFFCURVE",
"369 81 CURVE SMOOTH",
"369 46 OFFCURVE",
"388 24 OFFCURVE",
"375 -6 CURVE SMOOTH",
"361 -39 OFFCURVE",
"320 -32 OFFCURVE",
"293 -41 CURVE SMOOTH",
"253 -54 OFFCURVE",
"241 -76 OFFCURVE",
"202 -71 CURVE SMOOTH",
"165 -66 OFFCURVE",
"159 -31 OFFCURVE",
"141 -14 CURVE SMOOTH",
"120 6 OFFCURVE",
"76 -2 OFFCURVE",
"64 44 CURVE SMOOTH",
"50 98 OFFCURVE",
"108 135 OFFCURVE",
"135 178 CURVE SMOOTH",
"164 224 OFFCURVE",
"150 284 OFFCURVE",
"157 323 CURVE SMOOTH",
"169 388 OFFCURVE",
"265 429 OFFCURVE",
"288 472 CURVE SMOOTH",
"307 507 OFFCURVE",
"283 535 OFFCURVE",
"244 512 CURVE SMOOTH",
"182 476 OFFCURVE",
"150 377 OFFCURVE",
"93 377 CURVE SMOOTH",
"45 377 OFFCURVE",
"35 414 OFFCURVE",
"35 444 CURVE SMOOTH",
"35 471 OFFCURVE",
"63 522 OFFCURVE",
"114 544 CURVE SMOOTH",
"165 566 OFFCURVE",
"224 575 OFFCURVE",
"255 592 CURVE SMOOTH",
"284 608 OFFCURVE",
"312 674 OFFCURVE",
"359 676 CURVE SMOOTH"
);
}
);
width = 774;
}
);
leftKerningGroup = U;
rightKerningGroup = U;
unicode = 0055;
},
{
color = 4;
glyphname = Uacute;
lastChange = "2021-10-06 14:27:36 +0000";
layers = (
{
layerId = "A0EF8C6F-60C0-4D2A-A4F7-7A1091FA18C1";
paths = (
{
closed = 1;
nodes = (
"570 637 OFFCURVE",
"487 625 OFFCURVE",
"445 636 CURVE SMOOTH",
"426 641 OFFCURVE",
"419 659 OFFCURVE",
"426 671 CURVE SMOOTH",
"438 692 OFFCURVE",
"476 692 OFFCURVE",
"510 710 CURVE SMOOTH",
"550 731 OFFCURVE",
"558 770 OFFCURVE",
"598 768 CURVE SMOOTH",
"635 766 OFFCURVE",
"640 712 OFFCURVE",
"607 677 CURVE SMOOTH"
);
},
{
closed = 1;
nodes = (
"385 677 OFFCURVE",
"405 658 OFFCURVE",
"406 632 CURVE SMOOTH",
"407 605 OFFCURVE",
"395 597 OFFCURVE",
"396 576 CURVE SMOOTH",
"397 555 OFFCURVE",
"410 540 OFFCURVE",
"407 509 CURVE SMOOTH",
"400 437 OFFCURVE",
"260 366 OFFCURVE",
"253 310 CURVE SMOOTH",
"249 276 OFFCURVE",
"265 261 OFFCURVE",
"260 234 CURVE SMOOTH",
"254 199 OFFCURVE",
"190 146 OFFCURVE",
"176 120 CURVE SMOOTH",
"148 69 OFFCURVE",
"211 9 OFFCURVE",
"266 54 CURVE SMOOTH",
"302 83 OFFCURVE",
"285 128 OFFCURVE",
"306 155 CURVE SMOOTH",
"328 183 OFFCURVE",
"370 182 OFFCURVE",
"386 214 CURVE SMOOTH",
"410 261 OFFCURVE",
"405 322 OFFCURVE",
"437 379 CURVE SMOOTH",
"464 427 OFFCURVE",
"496 451 OFFCURVE",
"514 483 CURVE SMOOTH",
"532 515 OFFCURVE",
"520 564 OFFCURVE",
"539 599 CURVE SMOOTH",
"567 650 OFFCURVE",
"655 657 OFFCURVE",
"652 588 CURVE SMOOTH",
"650 535 OFFCURVE",
"616 519 OFFCURVE",
"598 481 CURVE SMOOTH",
"575 433 OFFCURVE",
"585 404 OFFCURVE",
"555 341 CURVE SMOOTH",
"529 285 OFFCURVE",
"463 238 OFFCURVE",
"459 194 CURVE SMOOTH",
"455 150 OFFCURVE",
"505 121 OFFCURVE",
"550 144 CURVE SMOOTH",
"595 166 OFFCURVE",
"630 246 OFFCURVE",
"665 280 CURVE SMOOTH",
"700 314 OFFCURVE",
"756 306 OFFCURVE",
"741 247 CURVE SMOOTH",
"730 202 OFFCURVE",
"664 173 OFFCURVE",
"635 121 CURVE SMOOTH",
"609 74 OFFCURVE",
"598 32 OFFCURVE",
"565 -1 CURVE SMOOTH",
"526 -40 OFFCURVE",
"482 -43 OFFCURVE",
"470 -2 CURVE SMOOTH",
"462 26 OFFCURVE",
"483 40 OFFCURVE",
"472 58 CURVE SMOOTH",
"461 77 OFFCURVE",
"432 58 OFFCURVE",
"422 77 CURVE SMOOTH",
"413 94 OFFCURVE",
"432 132 OFFCURVE",
"410 139 CURVE SMOOTH",
"393 144 OFFCURVE",
"369 118 OFFCURVE",
"369 81 CURVE SMOOTH",
"369 46 OFFCURVE",
"388 24 OFFCURVE",
"375 -6 CURVE SMOOTH",
"361 -39 OFFCURVE",
"320 -32 OFFCURVE",
"293 -41 CURVE SMOOTH",
"253 -54 OFFCURVE",
"241 -76 OFFCURVE",
"202 -71 CURVE SMOOTH",
"165 -66 OFFCURVE",
"159 -31 OFFCURVE",
"141 -14 CURVE SMOOTH",
"120 6 OFFCURVE",
"76 -2 OFFCURVE",
"64 44 CURVE SMOOTH",
"50 98 OFFCURVE",
"108 135 OFFCURVE",
"135 178 CURVE SMOOTH",
"164 224 OFFCURVE",
"150 284 OFFCURVE",
"157 323 CURVE SMOOTH",
"169 388 OFFCURVE",
"265 429 OFFCURVE",
"288 472 CURVE SMOOTH",
"307 507 OFFCURVE",
"283 535 OFFCURVE",
"244 512 CURVE SMOOTH",
"182 476 OFFCURVE",
"150 377 OFFCURVE",
"93 377 CURVE SMOOTH",
"45 377 OFFCURVE",
"35 414 OFFCURVE",
"35 444 CURVE SMOOTH",
"35 471 OFFCURVE",
"63 522 OFFCURVE",
"114 544 CURVE SMOOTH",
"165 566 OFFCURVE",
"224 575 OFFCURVE",
"255 592 CURVE SMOOTH",
"284 608 OFFCURVE",
"312 674 OFFCURVE",
"359 676 CURVE SMOOTH"
);
}
);
width = 773;
}
);
leftKerningGroup = U;
rightKerningGroup = U;
unicode = 00DA;
},
{
color = 4;
glyphname = Ucircumflex;
lastChange = "2021-10-06 14:27:36 +0000";
layers = (
{
layerId = "A0EF8C6F-60C0-4D2A-A4F7-7A1091FA18C1";
paths = (
{
closed = 1;
nodes = (
"385 677 OFFCURVE",
"405 658 OFFCURVE",
"406 632 CURVE SMOOTH",
"407 605 OFFCURVE",
"395 597 OFFCURVE",
"396 576 CURVE SMOOTH",
"397 555 OFFCURVE",
"410 540 OFFCURVE",
"407 509 CURVE SMOOTH",
"400 437 OFFCURVE",
"260 366 OFFCURVE",
"253 310 CURVE SMOOTH",
"249 276 OFFCURVE",
"265 261 OFFCURVE",
"260 234 CURVE SMOOTH",
"254 199 OFFCURVE",
"190 146 OFFCURVE",
"176 120 CURVE SMOOTH",
"148 69 OFFCURVE",
"211 9 OFFCURVE",
"266 54 CURVE SMOOTH",
"302 83 OFFCURVE",
"285 128 OFFCURVE",
"306 155 CURVE SMOOTH",
"328 183 OFFCURVE",
"370 182 OFFCURVE",
"386 214 CURVE SMOOTH",
"410 261 OFFCURVE",
"405 322 OFFCURVE",
"437 379 CURVE SMOOTH",
"464 427 OFFCURVE",
"496 451 OFFCURVE",
"514 483 CURVE SMOOTH",
"532 515 OFFCURVE",
"517 565 OFFCURVE",
"539 599 CURVE SMOOTH",
"573 650 OFFCURVE",
"655 657 OFFCURVE",
"652 588 CURVE SMOOTH",
"650 535 OFFCURVE",
"616 519 OFFCURVE",
"598 481 CURVE SMOOTH",
"575 433 OFFCURVE",
"585 404 OFFCURVE",
"555 341 CURVE SMOOTH",
"529 285 OFFCURVE",
"463 238 OFFCURVE",
"459 194 CURVE SMOOTH",
"455 150 OFFCURVE",
"505 121 OFFCURVE",
"550 144 CURVE SMOOTH",
"595 166 OFFCURVE",
"630 246 OFFCURVE",
"665 280 CURVE SMOOTH",
"700 314 OFFCURVE",
"756 306 OFFCURVE",
"741 247 CURVE SMOOTH",
"730 202 OFFCURVE",
"664 173 OFFCURVE",
"635 121 CURVE SMOOTH",
"609 74 OFFCURVE",
"598 32 OFFCURVE",
"565 -1 CURVE SMOOTH",
"526 -40 OFFCURVE",
"482 -43 OFFCURVE",
"470 -2 CURVE SMOOTH",
"462 26 OFFCURVE",
"483 40 OFFCURVE",
"472 58 CURVE SMOOTH",
"461 77 OFFCURVE",
"432 58 OFFCURVE",
"422 77 CURVE SMOOTH",
"413 94 OFFCURVE",
"432 132 OFFCURVE",
"410 139 CURVE SMOOTH",
"393 144 OFFCURVE",
"369 118 OFFCURVE",
"369 81 CURVE SMOOTH",
"369 46 OFFCURVE",
"388 24 OFFCURVE",
"375 -6 CURVE SMOOTH",
"361 -39 OFFCURVE",
"320 -32 OFFCURVE",
"293 -41 CURVE SMOOTH",
"253 -54 OFFCURVE",
"241 -76 OFFCURVE",
"202 -71 CURVE SMOOTH",
"165 -66 OFFCURVE",
"159 -31 OFFCURVE",
"141 -14 CURVE SMOOTH",
"120 6 OFFCURVE",
"76 -2 OFFCURVE",
"64 44 CURVE SMOOTH",
"50 98 OFFCURVE",
"108 135 OFFCURVE",
"135 178 CURVE SMOOTH",
"164 224 OFFCURVE",
"150 284 OFFCURVE",
"157 323 CURVE SMOOTH",
"169 388 OFFCURVE",
"265 429 OFFCURVE",
"288 472 CURVE SMOOTH",
"307 507 OFFCURVE",
"283 535 OFFCURVE",
"244 512 CURVE SMOOTH",
"182 476 OFFCURVE",
"150 377 OFFCURVE",
"93 377 CURVE SMOOTH",
"45 377 OFFCURVE",
"35 414 OFFCURVE",
"35 444 CURVE SMOOTH",
"35 471 OFFCURVE",
"63 522 OFFCURVE",
"114 544 CURVE SMOOTH",
"165 566 OFFCURVE",
"224 575 OFFCURVE",
"255 592 CURVE SMOOTH",
"284 608 OFFCURVE",
"312 674 OFFCURVE",
"359 676 CURVE SMOOTH"
);
},
{
closed = 1;
nodes = (
"474 577 OFFCURVE",
"518 617 CURVE SMOOTH",
"542 639 OFFCURVE",
"565 679 OFFCURVE",
"603 679 CURVE SMOOTH",
"630 679 OFFCURVE",
"643 653 OFFCURVE",
"667 636 CURVE SMOOTH",
"711 605 OFFCURVE",
"761 655 OFFCURVE",
"729 698 CURVE SMOOTH",
"710 723 OFFCURVE",
"683 718 OFFCURVE",
"667 734 CURVE SMOOTH",
"649 752 OFFCURVE",
"642 788 OFFCURVE",
"611 788 CURVE SMOOTH",
"583 788 OFFCURVE",
"558 752 OFFCURVE",
"536 732 CURVE SMOOTH",
"512 711 OFFCURVE",
"474 710 OFFCURVE",
"453 680 CURVE SMOOTH",
"414 625 OFFCURVE"
);
}
);
width = 773;
}
);
leftKerningGroup = U;
rightKerningGroup = U;
unicode = 00DB;
},
{
color = 4;
glyphname = Udieresis;
lastChange = "2022-01-23 13:20:01 +0000";
layers = (
{
components = (
{
name = dieresis;
transform = "{1.07931, 0.13253, -0.13253, 1.07931, 468, -50}";
}
);
layerId = "A0EF8C6F-60C0-4D2A-A4F7-7A1091FA18C1";
paths = (
{
closed = 1;
nodes = (
"385 677 OFFCURVE",
"405 658 OFFCURVE",
"406 632 CURVE SMOOTH",
"407 605 OFFCURVE",
"395 597 OFFCURVE",
"396 576 CURVE SMOOTH",
"397 555 OFFCURVE",
"410 540 OFFCURVE",
"407 509 CURVE SMOOTH",
"400 437 OFFCURVE",
"260 366 OFFCURVE",
"253 310 CURVE SMOOTH",
"249 276 OFFCURVE",
"265 261 OFFCURVE",
"260 234 CURVE SMOOTH",
"254 199 OFFCURVE",
"190 146 OFFCURVE",
"176 120 CURVE SMOOTH",
"148 69 OFFCURVE",
"211 9 OFFCURVE",
"266 54 CURVE SMOOTH",
"302 83 OFFCURVE",
"285 128 OFFCURVE",
"306 155 CURVE SMOOTH",
"328 183 OFFCURVE",
"370 182 OFFCURVE",
"386 214 CURVE SMOOTH",
"410 261 OFFCURVE",
"405 322 OFFCURVE",
"437 379 CURVE SMOOTH",
"464 427 OFFCURVE",
"496 451 OFFCURVE",
"514 483 CURVE SMOOTH",
"532 515 OFFCURVE",
"517 565 OFFCURVE",
"539 599 CURVE SMOOTH",
"573 650 OFFCURVE",
"655 657 OFFCURVE",
"652 588 CURVE SMOOTH",
"650 535 OFFCURVE",
"616 519 OFFCURVE",
"598 481 CURVE SMOOTH",
"575 433 OFFCURVE",
"585 404 OFFCURVE",
"555 341 CURVE SMOOTH",
"529 285 OFFCURVE",
"463 238 OFFCURVE",
"459 194 CURVE SMOOTH",
"455 150 OFFCURVE",
"505 121 OFFCURVE",
"550 144 CURVE SMOOTH",
"595 166 OFFCURVE",
"630 246 OFFCURVE",
"665 280 CURVE SMOOTH",
"700 314 OFFCURVE",
"756 306 OFFCURVE",
"741 247 CURVE SMOOTH",
"730 202 OFFCURVE",
"664 173 OFFCURVE",
"635 121 CURVE SMOOTH",
"609 74 OFFCURVE",
"598 32 OFFCURVE",
"565 -1 CURVE SMOOTH",
"526 -40 OFFCURVE",
"482 -43 OFFCURVE",
"470 -2 CURVE SMOOTH",
"462 26 OFFCURVE",
"483 40 OFFCURVE",
"472 58 CURVE SMOOTH",
"461 77 OFFCURVE",
"432 58 OFFCURVE",
"422 77 CURVE SMOOTH",
"413 94 OFFCURVE",
"432 132 OFFCURVE",
"410 139 CURVE SMOOTH",
"393 144 OFFCURVE",
"369 118 OFFCURVE",
"369 81 CURVE SMOOTH",
"369 46 OFFCURVE",
"388 24 OFFCURVE",
"375 -6 CURVE SMOOTH",
"361 -39 OFFCURVE",
"320 -32 OFFCURVE",
"293 -41 CURVE SMOOTH",
"253 -54 OFFCURVE",
"241 -76 OFFCURVE",
"202 -71 CURVE SMOOTH",
"165 -66 OFFCURVE",
"159 -31 OFFCURVE",
"141 -14 CURVE SMOOTH",
"120 6 OFFCURVE",
"76 -2 OFFCURVE",
"64 44 CURVE SMOOTH",
"50 98 OFFCURVE",
"108 135 OFFCURVE",
"135 178 CURVE SMOOTH",
"164 224 OFFCURVE",
"150 284 OFFCURVE",
"157 323 CURVE SMOOTH",
"169 388 OFFCURVE",
"265 429 OFFCURVE",
"288 472 CURVE SMOOTH",
"307 507 OFFCURVE",
"283 535 OFFCURVE",
"244 512 CURVE SMOOTH",
"182 476 OFFCURVE",
"150 377 OFFCURVE",
"93 377 CURVE SMOOTH",
"45 377 OFFCURVE",
"35 414 OFFCURVE",
"35 444 CURVE SMOOTH",
"35 471 OFFCURVE",
"63 522 OFFCURVE",
"114 544 CURVE SMOOTH",
"165 566 OFFCURVE",
"224 575 OFFCURVE",
"255 592 CURVE SMOOTH",
"284 608 OFFCURVE",
"312 674 OFFCURVE",
"359 676 CURVE SMOOTH"
);
}
);
width = 773;
}
);
leftKerningGroup = U;
rightKerningGroup = U;
unicode = 00DC;
},
{
color = 4;
glyphname = Ugrave;
lastChange = "2022-01-25 22:30:53 +0000";
layers = (
{
layerId = "A0EF8C6F-60C0-4D2A-A4F7-7A1091FA18C1";
paths = (
{
closed = 1;
nodes = (
"385 677 OFFCURVE",
"405 658 OFFCURVE",
"406 632 CURVE SMOOTH",
"407 605 OFFCURVE",
"395 597 OFFCURVE",
"396 576 CURVE SMOOTH",
"397 555 OFFCURVE",
"410 540 OFFCURVE",
"407 509 CURVE SMOOTH",
"400 437 OFFCURVE",
"260 366 OFFCURVE",
"253 310 CURVE SMOOTH",
"249 276 OFFCURVE",
"265 261 OFFCURVE",
"260 234 CURVE SMOOTH",
"254 199 OFFCURVE",
"190 146 OFFCURVE",
"176 120 CURVE SMOOTH",
"148 69 OFFCURVE",
"211 9 OFFCURVE",
"266 54 CURVE SMOOTH",
"302 83 OFFCURVE",
"285 128 OFFCURVE",
"306 155 CURVE SMOOTH",
"328 183 OFFCURVE",
"370 182 OFFCURVE",
"386 214 CURVE SMOOTH",
"410 261 OFFCURVE",
"405 322 OFFCURVE",
"437 379 CURVE SMOOTH",
"464 427 OFFCURVE",
"496 451 OFFCURVE",
"514 483 CURVE SMOOTH",
"532 515 OFFCURVE",
"520 564 OFFCURVE",
"539 599 CURVE SMOOTH",
"567 650 OFFCURVE",
"655 657 OFFCURVE",
"652 588 CURVE SMOOTH",
"650 535 OFFCURVE",
"616 519 OFFCURVE",
"598 481 CURVE SMOOTH",
"575 433 OFFCURVE",
"585 404 OFFCURVE",
"555 341 CURVE SMOOTH",
"529 285 OFFCURVE",
"463 238 OFFCURVE",
"459 194 CURVE SMOOTH",
"455 150 OFFCURVE",
"505 121 OFFCURVE",
"550 144 CURVE SMOOTH",
"595 166 OFFCURVE",
"630 246 OFFCURVE",
"665 280 CURVE SMOOTH",
"700 314 OFFCURVE",
"756 306 OFFCURVE",
"741 247 CURVE SMOOTH",
"730 202 OFFCURVE",
"664 173 OFFCURVE",
"635 121 CURVE SMOOTH",
"609 74 OFFCURVE",
"598 32 OFFCURVE",
"565 -1 CURVE SMOOTH",
"526 -40 OFFCURVE",
"482 -43 OFFCURVE",
"470 -2 CURVE SMOOTH",
"462 26 OFFCURVE",
"483 40 OFFCURVE",
"472 58 CURVE SMOOTH",
"461 77 OFFCURVE",
"432 58 OFFCURVE",
"422 77 CURVE SMOOTH",
"413 94 OFFCURVE",
"432 132 OFFCURVE",
"410 139 CURVE SMOOTH",
"393 144 OFFCURVE",
"369 118 OFFCURVE",
"369 81 CURVE SMOOTH",
"369 46 OFFCURVE",
"388 24 OFFCURVE",
"375 -6 CURVE SMOOTH",
"361 -39 OFFCURVE",
"320 -32 OFFCURVE",
"293 -41 CURVE SMOOTH",
"253 -54 OFFCURVE",
"241 -76 OFFCURVE",
"202 -71 CURVE SMOOTH",
"165 -66 OFFCURVE",
"159 -31 OFFCURVE",
"141 -14 CURVE SMOOTH",
"120 6 OFFCURVE",
"76 -2 OFFCURVE",
"64 44 CURVE SMOOTH",
"50 98 OFFCURVE",
"108 135 OFFCURVE",
"135 178 CURVE SMOOTH",
"164 224 OFFCURVE",
"150 284 OFFCURVE",
"157 323 CURVE SMOOTH",
"169 388 OFFCURVE",
"265 429 OFFCURVE",
"288 472 CURVE SMOOTH",
"307 507 OFFCURVE",
"283 535 OFFCURVE",
"244 512 CURVE SMOOTH",
"182 476 OFFCURVE",
"150 377 OFFCURVE",
"93 377 CURVE SMOOTH",
"45 377 OFFCURVE",
"35 414 OFFCURVE",
"35 444 CURVE SMOOTH",
"35 471 OFFCURVE",
"63 522 OFFCURVE",
"114 544 CURVE SMOOTH",
"165 566 OFFCURVE",
"224 575 OFFCURVE",
"255 592 CURVE SMOOTH",
"284 608 OFFCURVE",
"312 674 OFFCURVE",
"359 676 CURVE SMOOTH"
);
},
{
closed = 1;
nodes = (
"363 729 OFFCURVE",
"370 782 OFFCURVE",
"407 782 CURVE SMOOTH",
"447 782 OFFCURVE",
"453 741 OFFCURVE",
"490 719 CURVE SMOOTH",
"525 698 OFFCURVE",
"560 695 OFFCURVE",
"572 673 CURVE SMOOTH",
"579 660 OFFCURVE",
"569 642 OFFCURVE",
"546 639 CURVE SMOOTH",
"500 633 OFFCURVE",
"427 650 OFFCURVE",
"395 689 CURVE SMOOTH"
);
}
);
width = 773;
}
);
leftKerningGroup = U;
rightKerningGroup = U;
unicode = 00D9;
},
{
glyphname = V;
lastChange = "2022-01-25 22:30:49 +0000";
layers = (
{
layerId = "A0EF8C6F-60C0-4D2A-A4F7-7A1091FA18C1";
paths = (
{
closed = 1;
nodes = (
"83 598 OFFCURVE",
"127 582 OFFCURVE",
"162 594 CURVE SMOOTH",
"191 604 OFFCURVE",
"192 631 OFFCURVE",
"226 636 CURVE SMOOTH",
"258 641 OFFCURVE",
"280 620 OFFCURVE",
"281 586 CURVE SMOOTH",
"282 555 OFFCURVE",
"266 542 OFFCURVE",
"269 516 CURVE SMOOTH",
"272 488 OFFCURVE",
"295 467 OFFCURVE",
"293 426 CURVE SMOOTH",
"291 378 OFFCURVE",
"241 367 OFFCURVE",
"240 327 CURVE SMOOTH",
"239 292 OFFCURVE",
"268 274 OFFCURVE",
"262 241 CURVE SMOOTH",
"255 205 OFFCURVE",
"227 194 OFFCURVE",
"218 162 CURVE SMOOTH",
"200 99 OFFCURVE",
"267 66 OFFCURVE",
"301 100 CURVE SMOOTH",
"331 130 OFFCURVE",
"318 165 OFFCURVE",
"341 189 CURVE SMOOTH",
"364 213 OFFCURVE",
"399 205 OFFCURVE",
"416 239 CURVE SMOOTH",
"435 276 OFFCURVE",
"414 315 OFFCURVE",
"425 348 CURVE SMOOTH",
"437 383 OFFCURVE",
"478 387 OFFCURVE",
"508 410 CURVE SMOOTH",
"534 430 OFFCURVE",
"536 477 OFFCURVE",
"506 487 CURVE SMOOTH",
"482 495 OFFCURVE",
"468 475 OFFCURVE",
"429 487 CURVE SMOOTH",
"382 501 OFFCURVE",
"373 594 OFFCURVE",
"444 608 CURVE SMOOTH",
"474 614 OFFCURVE",
"489 598 OFFCURVE",
"515 603 CURVE SMOOTH",
"537 607 OFFCURVE",
"543 628 OFFCURVE",
"567 628 CURVE SMOOTH",
"596 628 OFFCURVE",
"613 609 OFFCURVE",
"612 579 CURVE SMOOTH",
"611 551 OFFCURVE",
"585 516 OFFCURVE",
"606 501 CURVE SMOOTH",
"628 486 OFFCURVE",
"650 512 OFFCURVE",
"677 516 CURVE SMOOTH",
"721 523 OFFCURVE",
"758 443 OFFCURVE",
"690 415 CURVE SMOOTH",
"653 400 OFFCURVE",
"607 416 OFFCURVE",
"593 398 CURVE SMOOTH",
"576 377 OFFCURVE",
"586 352 OFFCURVE",
"569 324 CURVE SMOOTH",
"550 292 OFFCURVE",
"518 295 OFFCURVE",
"506 274 CURVE SMOOTH",
"488 243 OFFCURVE",
"515 197 OFFCURVE",
"497 171 CURVE SMOOTH",
"474 137 OFFCURVE",
"433 152 OFFCURVE",
"413 129 CURVE SMOOTH",
"393 106 OFFCURVE",
"399 77 OFFCURVE",
"380 58 CURVE SMOOTH",
"362 40 OFFCURVE",
"347 42 OFFCURVE",
"327 29 CURVE SMOOTH",
"302 13 OFFCURVE",
"298 -24 OFFCURVE",
"259 -39 CURVE SMOOTH",
"219 -54 OFFCURVE",
"167 -35 OFFCURVE",
"161 10 CURVE SMOOTH",
"156 45 OFFCURVE",
"176 64 OFFCURVE",
"170 89 CURVE SMOOTH",
"161 125 OFFCURVE",
"127 134 OFFCURVE",
"121 175 CURVE SMOOTH",
"114 220 OFFCURVE",
"156 256 OFFCURVE",
"158 294 CURVE SMOOTH",
"160 335 OFFCURVE",
"143 359 OFFCURVE",
"146 392 CURVE SMOOTH",
"149 423 OFFCURVE",
"185 441 OFFCURVE",
"194 470 CURVE SMOOTH",
"203 499 OFFCURVE",
"184 531 OFFCURVE",
"160 524 CURVE SMOOTH",
"115 511 OFFCURVE",
"94 460 OFFCURVE",
"42 460 CURVE SMOOTH",
"-9 460 OFFCURVE",
"-36 553 OFFCURVE",
"51 586 CURVE SMOOTH"
);
}
);
width = 714;
}
);
rightKerningGroup = V;
unicode = 0056;
},
{
glyphname = W;
lastChange = "2022-01-25 22:31:01 +0000";
layers = (
{
layerId = "A0EF8C6F-60C0-4D2A-A4F7-7A1091FA18C1";
paths = (
{
closed = 1;
nodes = (
"189 641 OFFCURVE",
"194 680 OFFCURVE",
"229 679 CURVE SMOOTH",
"266 678 OFFCURVE",
"263 648 OFFCURVE",
"272 632 CURVE SMOOTH",
"281 618 OFFCURVE",
"303 619 OFFCURVE",
"302 593 CURVE SMOOTH",
"301 575 OFFCURVE",
"283 560 OFFCURVE",
"252 560 CURVE SMOOTH",
"215 561 OFFCURVE",
"179 554 OFFCURVE",
"166 508 CURVE SMOOTH",
"150 453 OFFCURVE",
"189 416 OFFCURVE",
"185 365 CURVE SMOOTH",
"181 314 OFFCURVE",
"139 257 OFFCURVE",
"134 221 CURVE SMOOTH",
"126 169 OFFCURVE",
"189 153 OFFCURVE",
"217 189 CURVE SMOOTH",
"256 238 OFFCURVE",
"243 280 OFFCURVE",
"262 322 CURVE SMOOTH",
"278 360 OFFCURVE",
"312 382 OFFCURVE",
"334 409 CURVE SMOOTH",
"354 441 OFFCURVE",
"340 474 OFFCURVE",
"362 514 CURVE SMOOTH",
"382 549 OFFCURVE",
"442 547 OFFCURVE",
"450 506 CURVE SMOOTH",
"455 479 OFFCURVE",
"438 459 OFFCURVE",
"446 431 CURVE SMOOTH",
"454 400 OFFCURVE",
"478 402 OFFCURVE",
"488 354 CURVE SMOOTH",
"500 302 OFFCURVE",
"453 263 OFFCURVE",
"460 207 CURVE SMOOTH",
"464 171 OFFCURVE",
"501 152 OFFCURVE",
"525 188 CURVE SMOOTH",
"539 207 OFFCURVE",
"530 248 OFFCURVE",
"543 265 CURVE SMOOTH",
"556 286 OFFCURVE",
"592 290 OFFCURVE",
"600 318 CURVE SMOOTH",
"607 347 OFFCURVE",
"594 394 OFFCURVE",
"608 430 CURVE SMOOTH",
"626 481 OFFCURVE",
"684 490 OFFCURVE",
"685 524 CURVE SMOOTH",
"687 555 OFFCURVE",
"626 558 OFFCURVE",
"616 587 CURVE SMOOTH",
"605 622 OFFCURVE",
"636 648 OFFCURVE",
"677 647 CURVE SMOOTH",
"708 647 OFFCURVE",
"729 617 OFFCURVE",
"764 617 CURVE SMOOTH",
"792 617 OFFCURVE",
"808 639 OFFCURVE",
"835 639 CURVE SMOOTH",
"871 639 OFFCURVE",
"888 602 OFFCURVE",
"852 562 CURVE SMOOTH",
"820 526 OFFCURVE",
"764 532 OFFCURVE",
"731 473 CURVE SMOOTH",
"701 419 OFFCURVE",
"713 372 OFFCURVE",
"699 329 CURVE SMOOTH",
"676 263 OFFCURVE",
"626 240 OFFCURVE",
"606 194 CURVE SMOOTH",
"588 157 OFFCURVE",
"601 104 OFFCURVE",
"594 62 CURVE SMOOTH",
"586 18 OFFCURVE",
"547 -20 OFFCURVE",
"504 1 CURVE SMOOTH",
"478 14 OFFCURVE",
"485 52 OFFCURVE",
"468 75 CURVE SMOOTH",
"448 102 OFFCURVE",
"406 83 OFFCURVE",
"390 124 CURVE SMOOTH",
"372 172 OFFCURVE",
"409 250 OFFCURVE",
"406 302 CURVE SMOOTH",
"404 340 OFFCURVE",
"361 345 OFFCURVE",
"345 308 CURVE SMOOTH",
"326 263 OFFCURVE",
"321 184 OFFCURVE",
"281 138 CURVE SMOOTH",
"249 99 OFFCURVE",
"226 112 OFFCURVE",
"197 86 CURVE SMOOTH",
"163 56 OFFCURVE",
"179 6 OFFCURVE",
"143 -17 CURVE SMOOTH",
"93 -49 OFFCURVE",
"47 -22 OFFCURVE",
"51 38 CURVE SMOOTH",
"54 79 OFFCURVE",
"72 88 OFFCURVE",
"73 120 CURVE SMOOTH",
"74 156 OFFCURVE",
"35 168 OFFCURVE",
"42 208 CURVE SMOOTH",
"51 253 OFFCURVE",
"80 256 OFFCURVE",
"82 294 CURVE SMOOTH",
"85 330 OFFCURVE",
"58 352 OFFCURVE",
"61 401 CURVE SMOOTH",
"64 456 OFFCURVE",
"104 498 OFFCURVE",
"93 527 CURVE SMOOTH",
"80 561 OFFCURVE",
"35 539 OFFCURVE",
"8 557 CURVE SMOOTH",
"-21 575 OFFCURVE",
"-1 625 OFFCURVE",
"35 633 CURVE SMOOTH",
"78 642 OFFCURVE",
"105 628 OFFCURVE",
"146 635 CURVE SMOOTH"
);
}
);
width = 792;
}
);
unicode = 0057;
},
{
glyphname = X;
lastChange = "2022-01-26 02:21:19 +0000";
layers = (
{
anchors = (
{
name = bottom;
position = "{395, 0}";
},
{
name = top;
position = "{395, 650}";
}
);
layerId = "A0EF8C6F-60C0-4D2A-A4F7-7A1091FA18C1";
paths = (
{
closed = 1;
nodes = (
"258 644 OFFCURVE",
"278 617 OFFCURVE",
"309 615 CURVE SMOOTH",
"338 613 OFFCURVE",
"352 649 OFFCURVE",
"391 638 CURVE SMOOTH",
"428 628 OFFCURVE",
"412 561 OFFCURVE",
"422 535 CURVE SMOOTH",
"435 502 OFFCURVE",
"462 502 OFFCURVE",
"482 531 CURVE SMOOTH",
"500 557 OFFCURVE",
"505 594 OFFCURVE",
"544 605 CURVE SMOOTH",
"578 615 OFFCURVE",
"580 592 OFFCURVE",
"612 592 CURVE SMOOTH",
"644 592 OFFCURVE",
"662 618 OFFCURVE",
"691 604 CURVE SMOOTH",
"722 589 OFFCURVE",
"708 555 OFFCURVE",
"716 517 CURVE SMOOTH",
"722 487 OFFCURVE",
"744 465 OFFCURVE",
"747 429 CURVE SMOOTH",
"754 341 OFFCURVE",
"677 274 OFFCURVE",
"632 323 CURVE SMOOTH",
"599 359 OFFCURVE",
"657 413 OFFCURVE",
"650 457 CURVE SMOOTH",
"634 557 OFFCURVE",
"502 505 OFFCURVE",
"484 419 CURVE SMOOTH",
"476 380 OFFCURVE",
"500 363 OFFCURVE",
"490 325 CURVE SMOOTH",
"480 288 OFFCURVE",
"403 291 OFFCURVE",
"403 237 CURVE SMOOTH",
"403 198 OFFCURVE",
"438 198 OFFCURVE",
"447 173 CURVE SMOOTH",
"459 141 OFFCURVE",
"448 112 OFFCURVE",
"468 84 CURVE SMOOTH",
"494 47 OFFCURVE",
"573 60 OFFCURVE",
"577 111 CURVE SMOOTH",
"580 147 OFFCURVE",
"554 165 OFFCURVE",
"558 197 CURVE SMOOTH",
"564 246 OFFCURVE",
"638 265 OFFCURVE",
"671 205 CURVE SMOOTH",
"717 121 OFFCURVE",
"660 -7 OFFCURVE",
"592 -18 CURVE SMOOTH",
"561 -23 OFFCURVE",
"546 -6 OFFCURVE",
"518 -8 CURVE SMOOTH",
"489 -10 OFFCURVE",
"465 -33 OFFCURVE",
"429 -23 CURVE SMOOTH",
"384 -10 OFFCURVE",
"401 47 OFFCURVE",
"387 80 CURVE SMOOTH",
"372 115 OFFCURVE",
"333 109 OFFCURVE",
"313 80 CURVE SMOOTH",
"291 48 OFFCURVE",
"288 0 OFFCURVE",
"250 -10 CURVE SMOOTH",
"218 -18 OFFCURVE",
"191 3 OFFCURVE",
"165 0 CURVE SMOOTH",
"134 -4 OFFCURVE",
"122 -28 OFFCURVE",
"87 -21 CURVE SMOOTH",
"44 -12 OFFCURVE",
"6 44 OFFCURVE",
"17 126 CURVE SMOOTH",
"29 214 OFFCURVE",
"125 257 OFFCURVE",
"150 208 CURVE SMOOTH",
"172 165 OFFCURVE",
"116 145 OFFCURVE",
"116 102 CURVE SMOOTH",
"116 60 OFFCURVE",
"168 47 OFFCURVE",
"196 80 CURVE SMOOTH",
"219 107 OFFCURVE",
"217 135 OFFCURVE",
"239 147 CURVE SMOOTH",
"265 161 OFFCURVE",
"304 148 OFFCURVE",
"321 189 CURVE SMOOTH",
"342 239 OFFCURVE",
"292 257 OFFCURVE",
"308 304 CURVE SMOOTH",
"324 351 OFFCURVE",
"390 345 OFFCURVE",
"390 392 CURVE SMOOTH",
"390 435 OFFCURVE",
"366 431 OFFCURVE",
"352 458 CURVE SMOOTH",
"338 486 OFFCURVE",
"349 511 OFFCURVE",
"337 539 CURVE SMOOTH",
"321 576 OFFCURVE",
"231 574 OFFCURVE",
"218 517 CURVE SMOOTH",
"208 472 OFFCURVE",
"250 402 OFFCURVE",
"201 380 CURVE SMOOTH",
"150 357 OFFCURVE",
"108 431 OFFCURVE",
"108 502 CURVE SMOOTH",
"108 575 OFFCURVE",
"163 642 OFFCURVE",
"219 643 CURVE SMOOTH"
);
}
);
width = 790;
}
);
leftKerningGroup = X;
rightKerningGroup = X;
unicode = 0058;
},
{
glyphname = Y;
lastChange = "2022-01-26 02:21:25 +0000";
layers = (
{
layerId = "A0EF8C6F-60C0-4D2A-A4F7-7A1091FA18C1";
paths = (
{
closed = 1;
nodes = (
"211 613 OFFCURVE",
"236 663 OFFCURVE",
"278 670 CURVE SMOOTH",
"322 677 OFFCURVE",
"350 630 OFFCURVE",
"332 588 CURVE SMOOTH",
"314 544 OFFCURVE",
"258 519 OFFCURVE",
"251 476 CURVE SMOOTH",
"245 441 OFFCURVE",
"265 417 OFFCURVE",
"264 380 CURVE SMOOTH",
"263 341 OFFCURVE",
"224 320 OFFCURVE",
"224 278 CURVE SMOOTH",
"224 222 OFFCURVE",
"327 189 OFFCURVE",
"371 252 CURVE SMOOTH",
"400 294 OFFCURVE",
"384 333 OFFCURVE",
"403 369 CURVE SMOOTH",
"420 401 OFFCURVE",
"440 409 OFFCURVE",
"455 446 CURVE SMOOTH",
"470 483 OFFCURVE",
"441 566 OFFCURVE",
"503 625 CURVE SMOOTH",
"567 685 OFFCURVE",
"645 636 OFFCURVE",
"607 569 CURVE SMOOTH",
"583 527 OFFCURVE",
"545 526 OFFCURVE",
"534 475 CURVE SMOOTH",
"525 434 OFFCURVE",
"545 402 OFFCURVE",
"528 357 CURVE SMOOTH",
"512 314 OFFCURVE",
"460 286 OFFCURVE",
"446 228 CURVE SMOOTH",
"436 187 OFFCURVE",
"468 150 OFFCURVE",
"451 107 CURVE SMOOTH",
"427 49 OFFCURVE",
"392 49 OFFCURVE",
"366 11 CURVE SMOOTH",
"335 -34 OFFCURVE",
"346 -84 OFFCURVE",
"299 -121 CURVE SMOOTH",
"256 -154 OFFCURVE",
"216 -137 OFFCURVE",
"151 -155 CURVE SMOOTH",
"65 -179 OFFCURVE",
"-19 -133 OFFCURVE",
"-25 -49 CURVE SMOOTH",
"-31 30 OFFCURVE",
"14 89 OFFCURVE",
"84 89 CURVE SMOOTH",
"128 89 OFFCURVE",
"156 72 OFFCURVE",
"156 36 CURVE SMOOTH",
"156 -14 OFFCURVE",
"67 -4 OFFCURVE",
"75 -60 CURVE SMOOTH",
"81 -101 OFFCURVE",
"167 -107 OFFCURVE",
"203 -73 CURVE SMOOTH",
"242 -37 OFFCURVE",
"233 -13 OFFCURVE",
"260 16 CURVE SMOOTH",
"286 43 OFFCURVE",
"323 51 OFFCURVE",
"347 80 CURVE SMOOTH",
"371 110 OFFCURVE",
"365 151 OFFCURVE",
"325 148 CURVE SMOOTH",
"299 146 OFFCURVE",
"285 117 OFFCURVE",
"248 117 CURVE SMOOTH",
"203 117 OFFCURVE",
"197 161 OFFCURVE",
"179 179 CURVE SMOOTH",
"161 197 OFFCURVE",
"129 204 OFFCURVE",
"124 244 CURVE SMOOTH",
"118 292 OFFCURVE",
"156 301 OFFCURVE",
"160 341 CURVE SMOOTH",
"164 383 OFFCURVE",
"146 392 OFFCURVE",
"150 422 CURVE SMOOTH",
"153 447 OFFCURVE",
"180 464 OFFCURVE",
"192 489 CURVE SMOOTH",
"206 517 OFFCURVE",
"181 533 OFFCURVE",
"156 519 CURVE SMOOTH",
"119 499 OFFCURVE",
"99 459 OFFCURVE",
"65 457 CURVE SMOOTH",
"12 454 OFFCURVE",
"6 537 OFFCURVE",
"66 566 CURVE SMOOTH",
"104 584 OFFCURVE",
"140 583 OFFCURVE",
"178 599 CURVE SMOOTH"
);
}
);
width = 602;
}
);
leftKerningGroup = Y;
rightKerningGroup = Y;
unicode = 0059;
},
{
glyphname = Z;
lastChange = "2022-01-26 02:21:34 +0000";
layers = (
{
layerId = "A0EF8C6F-60C0-4D2A-A4F7-7A1091FA18C1";
paths = (
{
closed = 1;
nodes = (
"213 679 OFFCURVE",
"231 637 OFFCURVE",
"276 630 CURVE SMOOTH",
"318 623 OFFCURVE",
"355 646 OFFCURVE",
"397 645 CURVE SMOOTH",
"440 644 OFFCURVE",
"462 608 OFFCURVE",
"496 606 CURVE SMOOTH",
"538 604 OFFCURVE",
"557 631 OFFCURVE",
"591 623 CURVE SMOOTH",
"634 613 OFFCURVE",
"649 557 OFFCURVE",
"593 517 CURVE SMOOTH",
"547 484 OFFCURVE",
"519 488 OFFCURVE",
"479 431 CURVE SMOOTH",
"465 411 OFFCURVE",
"465 359 OFFCURVE",
"495 359 CURVE SMOOTH",
"517 359 OFFCURVE",
"553 378 OFFCURVE",
"576 373 CURVE SMOOTH",
"624 363 OFFCURVE",
"617 289 OFFCURVE",
"551 268 CURVE SMOOTH",
"508 254 OFFCURVE",
"458 300 OFFCURVE",
"410 276 CURVE SMOOTH",
"372 258 OFFCURVE",
"368 214 OFFCURVE",
"344 192 CURVE SMOOTH",
"317 168 OFFCURVE",
"277 174 OFFCURVE",
"259 153 CURVE SMOOTH",
"242 134 OFFCURVE",
"252 110 OFFCURVE",
"273 104 CURVE SMOOTH",
"299 97 OFFCURVE",
"351 110 OFFCURVE",
"385 102 CURVE SMOOTH",
"420 94 OFFCURVE",
"459 45 OFFCURVE",
"503 51 CURVE SMOOTH",
"541 56 OFFCURVE",
"547 119 OFFCURVE",
"576 148 CURVE SMOOTH",
"602 174 OFFCURVE",
"643 166 OFFCURVE",
"647 116 CURVE SMOOTH",
"652 59 OFFCURVE",
"613 -22 OFFCURVE",
"562 -33 CURVE SMOOTH",
"525 -41 OFFCURVE",
"495 -18 OFFCURVE",
"463 -17 CURVE SMOOTH",
"424 -16 OFFCURVE",
"397 -35 OFFCURVE",
"344 -20 CURVE SMOOTH",
"288 -4 OFFCURVE",
"281 36 OFFCURVE",
"233 37 CURVE SMOOTH",
"178 38 OFFCURVE",
"149 -6 OFFCURVE",
"83 -6 CURVE SMOOTH",
"27 -6 OFFCURVE",
"22 56 OFFCURVE",
"56 83 CURVE SMOOTH",
"81 103 OFFCURVE",
"105 96 OFFCURVE",
"132 114 CURVE SMOOTH",
"156 130 OFFCURVE",
"158 162 OFFCURVE",
"188 188 CURVE SMOOTH",
"219 215 OFFCURVE",
"249 222 OFFCURVE",
"281 239 CURVE SMOOTH",
"305 252 OFFCURVE",
"310 288 OFFCURVE",
"286 296 CURVE SMOOTH",
"263 304 OFFCURVE",
"202 275 OFFCURVE",
"178 302 CURVE SMOOTH",
"148 335 OFFCURVE",
"188 378 OFFCURVE",
"237 383 CURVE SMOOTH",
"277 387 OFFCURVE",
"310 365 OFFCURVE",
"345 373 CURVE SMOOTH",
"379 381 OFFCURVE",
"377 437 OFFCURVE",
"402 467 CURVE SMOOTH",
"427 498 OFFCURVE",
"467 513 OFFCURVE",
"457 539 CURVE SMOOTH",
"441 580 OFFCURVE",
"381 530 OFFCURVE",
"337 537 CURVE SMOOTH",
"301 543 OFFCURVE",
"268 572 OFFCURVE",
"220 561 CURVE SMOOTH",
"166 549 OFFCURVE",
"187 442 OFFCURVE",
"136 418 CURVE SMOOTH",
"91 397 OFFCURVE",
"51 428 OFFCURVE",
"55 471 CURVE SMOOTH",
"59 512 OFFCURVE",
"93 524 OFFCURVE",
"106 555 CURVE SMOOTH",
"119 586 OFFCURVE",
"118 652 OFFCURVE",
"160 664 CURVE SMOOTH"
);
}
);
width = 678;
}
);
unicode = 005A;
},
{
glyphname = Q.002;
lastChange = "2022-01-26 02:21:38 +0000";
layers = (
{
background = {
paths = (
{
closed = 1;
nodes = (
"438 673 OFFCURVE",
"493 646 OFFCURVE",
"509 621 CURVE SMOOTH",
"526 595 OFFCURVE",
"522 564 OFFCURVE",
"534 544 CURVE SMOOTH",
"555 514 OFFCURVE",
"593 507 OFFCURVE",
"594 423 CURVE SMOOTH",
"597 338 OFFCURVE",
"514 280 OFFCURVE",
"510 232 CURVE SMOOTH",
"506 180 OFFCURVE",
"519 160 OFFCURVE",
"513 136 CURVE SMOOTH",
"506 110 OFFCURVE",
"471 107 OFFCURVE",
"453 93 CURVE SMOOTH",
"429 75 OFFCURVE",
"425 51 OFFCURVE",
"381 41 CURVE SMOOTH",
"340 32 OFFCURVE",
"307 63 OFFCURVE",
"259 67 CURVE SMOOTH",
"208 71 OFFCURVE",
"201 23 OFFCURVE",
"234 13 CURVE SMOOTH",
"259 5 OFFCURVE",
"288 22 OFFCURVE",
"308 5 CURVE SMOOTH",
"326 -11 OFFCURVE",
"310 -46 OFFCURVE",
"330 -54 CURVE SMOOTH",
"351 -63 OFFCURVE",
"370 -39 OFFCURVE",
"393 -41 CURVE SMOOTH",
"415 -43 OFFCURVE",
"433 -77 OFFCURVE",
"465 -67 CURVE SMOOTH",
"506 -54 OFFCURVE",
"496 3 OFFCURVE",
"537 24 CURVE SMOOTH",
"564 38 OFFCURVE",
"602 22 OFFCURVE",
"602 -17 CURVE SMOOTH",
"602 -85 OFFCURVE",
"535 -144 OFFCURVE",
"459 -150 CURVE SMOOTH",
"396 -155 OFFCURVE",
"374 -129 OFFCURVE",
"348 -125 CURVE SMOOTH",
"319 -121 OFFCURVE",
"289 -133 OFFCURVE",
"266 -121 CURVE SMOOTH",
"241 -108 OFFCURVE",
"244 -81 OFFCURVE",
"230 -60 CURVE SMOOTH",
"217 -40 OFFCURVE",
"187 -36 OFFCURVE",
"162 -45 CURVE SMOOTH",
"133 -55 OFFCURVE",
"111 -76 OFFCURVE",
"66 -71 CURVE SMOOTH",
"5 -63 OFFCURVE",
"3 6 OFFCURVE",
"71 31 CURVE SMOOTH",
"115 47 OFFCURVE",
"163 27 OFFCURVE",
"169 64 CURVE SMOOTH",
"175 103 OFFCURVE",
"117 118 OFFCURVE",
"118 158 CURVE SMOOTH",
"118 203 OFFCURVE",
"158 218 OFFCURVE",
"163 262 CURVE SMOOTH",
"170 311 OFFCURVE",
"137 350 OFFCURVE",
"143 405 CURVE SMOOTH",
"149 457 OFFCURVE",
"189 486 OFFCURVE",
"204 510 CURVE SMOOTH",
"218 535 OFFCURVE",
"221 560 OFFCURVE",
"248 580 CURVE SMOOTH",
"277 599 OFFCURVE",
"314 597 OFFCURVE",
"340 609 CURVE SMOOTH",
"367 621 OFFCURVE",
"380 658 OFFCURVE",
"412 665 CURVE SMOOTH"
);
},
{
closed = 1;
nodes = (
"317 550 OFFCURVE",
"278 498 OFFCURVE",
"269 455 CURVE SMOOTH",
"261 415 OFFCURVE",
"279 396 OFFCURVE",
"274 361 CURVE SMOOTH",
"267 314 OFFCURVE",
"221 266 OFFCURVE",
"220 222 CURVE SMOOTH",
"219 156 OFFCURVE",
"273 112 OFFCURVE",
"334 131 CURVE SMOOTH",
"378 145 OFFCURVE",
"379 183 OFFCURVE",
"400 199 CURVE SMOOTH",
"420 215 OFFCURVE",
"452 221 OFFCURVE",
"455 254 CURVE SMOOTH",
"459 282 OFFCURVE",
"446 311 OFFCURVE",
"452 345 CURVE SMOOTH",
"461 396 OFFCURVE",
"525 423 OFFCURVE",
"509 482 CURVE SMOOTH",
"498 520 OFFCURVE",
"450 505 OFFCURVE",
"429 512 CURVE SMOOTH",
"406 520 OFFCURVE",
"397 550 OFFCURVE",
"361 550 CURVE SMOOTH"
);
}
);
};
layerId = "A0EF8C6F-60C0-4D2A-A4F7-7A1091FA18C1";
paths = (
{
closed = 1;
nodes = (
"438 673 OFFCURVE",
"493 646 OFFCURVE",
"509 621 CURVE SMOOTH",
"526 595 OFFCURVE",
"522 564 OFFCURVE",
"534 544 CURVE SMOOTH",
"555 514 OFFCURVE",
"593 507 OFFCURVE",
"594 423 CURVE SMOOTH",
"597 338 OFFCURVE",
"520 279 OFFCURVE",
"511 236 CURVE SMOOTH",
"502 195 OFFCURVE",
"521 164 OFFCURVE",
"513 136 CURVE SMOOTH",
"504 106 OFFCURVE",
"471 107 OFFCURVE",
"453 93 CURVE SMOOTH",
"429 75 OFFCURVE",
"425 51 OFFCURVE",
"381 41 CURVE SMOOTH",
"340 32 OFFCURVE",
"307 63 OFFCURVE",
"259 67 CURVE SMOOTH",
"208 71 OFFCURVE",
"196 29 OFFCURVE",
"226 14 CURVE SMOOTH",
"250 2 OFFCURVE",
"271 23 OFFCURVE",
"293 10 CURVE SMOOTH",
"312 -1 OFFCURVE",
"306 -25 OFFCURVE",
"321 -35 CURVE SMOOTH",
"340 -48 OFFCURVE",
"355 -36 OFFCURVE",
"375 -48 CURVE SMOOTH",
"395 -60 OFFCURVE",
"400 -91 OFFCURVE",
"435 -91 CURVE SMOOTH",
"477 -91 OFFCURVE",
"474 -16 OFFCURVE",
"516 1 CURVE SMOOTH",
"545 13 OFFCURVE",
"581 -9 OFFCURVE",
"575 -58 CURVE SMOOTH",
"567 -115 OFFCURVE",
"515 -165 OFFCURVE",
"436 -164 CURVE SMOOTH",
"382 -163 OFFCURVE",
"369 -134 OFFCURVE",
"334 -124 CURVE SMOOTH",
"298 -114 OFFCURVE",
"259 -132 OFFCURVE",
"232 -118 CURVE SMOOTH",
"207 -105 OFFCURVE",
"214 -76 OFFCURVE",
"203 -54 CURVE SMOOTH",
"192 -32 OFFCURVE",
"165 -22 OFFCURVE",
"138 -29 CURVE SMOOTH",
"107 -37 OFFCURVE",
"83 -54 OFFCURVE",
"39 -45 CURVE SMOOTH",
"-21 -33 OFFCURVE",
"-3 37 OFFCURVE",
"67 53 CURVE SMOOTH",
"112 63 OFFCURVE",
"163 27 OFFCURVE",
"169 64 CURVE SMOOTH",
"175 103 OFFCURVE",
"117 118 OFFCURVE",
"118 158 CURVE SMOOTH",
"118 203 OFFCURVE",
"158 218 OFFCURVE",
"163 262 CURVE SMOOTH",
"170 311 OFFCURVE",
"137 350 OFFCURVE",
"143 405 CURVE SMOOTH",
"149 457 OFFCURVE",
"189 486 OFFCURVE",
"204 510 CURVE SMOOTH",
"218 535 OFFCURVE",
"221 560 OFFCURVE",
"248 580 CURVE SMOOTH",
"277 599 OFFCURVE",
"314 597 OFFCURVE",
"340 609 CURVE SMOOTH",
"367 621 OFFCURVE",
"380 658 OFFCURVE",
"412 665 CURVE SMOOTH"
);
},
{
closed = 1;
nodes = (
"317 550 OFFCURVE",
"278 498 OFFCURVE",
"269 455 CURVE SMOOTH",
"261 415 OFFCURVE",
"279 396 OFFCURVE",
"274 361 CURVE SMOOTH",
"267 314 OFFCURVE",
"221 266 OFFCURVE",
"220 222 CURVE SMOOTH",
"219 156 OFFCURVE",
"273 112 OFFCURVE",
"334 131 CURVE SMOOTH",
"378 145 OFFCURVE",
"379 178 OFFCURVE",
"400 199 CURVE SMOOTH",
"420 219 OFFCURVE",
"449 223 OFFCURVE",
"455 254 CURVE SMOOTH",
"461 283 OFFCURVE",
"446 311 OFFCURVE",
"452 345 CURVE SMOOTH",
"461 396 OFFCURVE",
"525 423 OFFCURVE",
"509 482 CURVE SMOOTH",
"498 520 OFFCURVE",
"450 505 OFFCURVE",
"429 512 CURVE SMOOTH",
"406 520 OFFCURVE",
"397 550 OFFCURVE",
"361 550 CURVE SMOOTH"
);
}
);
width = 662;
}
);
},
{
glyphname = a;
lastChange = "2022-01-26 02:22:08 +0000";
layers = (
{
background = {
paths = (
{
closed = 1;
nodes = (
"425 543 OFFCURVE",
"469 510 OFFCURVE",
"465 474 CURVE SMOOTH",
"460 433 OFFCURVE",
"420 411 OFFCURVE",
"420 379 CURVE SMOOTH",
"420 344 OFFCURVE",
"437 339 OFFCURVE",
"437 314 CURVE SMOOTH",
"437 285 OFFCURVE",
"362 205 OFFCURVE",
"402 159 CURVE SMOOTH",
"426 132 OFFCURVE",
"474 185 OFFCURVE",
"527 190 CURVE SMOOTH",
"577 195 OFFCURVE",
"561 116 OFFCURVE",
"509 84 CURVE SMOOTH",
"464 56 OFFCURVE",
"435 87 OFFCURVE",
"402 72 CURVE SMOOTH",
"364 55 OFFCURVE",
"343 15 OFFCURVE",
"303 15 CURVE SMOOTH",
"262 15 OFFCURVE",
"266 67 OFFCURVE",
"237 67 CURVE SMOOTH",
"202 67 OFFCURVE",
"170 -10 OFFCURVE",
"100 15 CURVE SMOOTH",
"8 48 OFFCURVE",
"82 280 OFFCURVE",
"183 280 CURVE SMOOTH",
"242 280 OFFCURVE",
"266 262 OFFCURVE",
"291 262 CURVE SMOOTH",
"331 262 OFFCURVE",
"391 393 OFFCURVE",
"360 411 CURVE SMOOTH",
"334 426 OFFCURVE",
"262 322 OFFCURVE",
"199 334 CURVE SMOOTH",
"150 343 OFFCURVE",
"156 390 OFFCURVE",
"202 416 CURVE SMOOTH",
"227 430 OFFCURVE",
"255 428 OFFCURVE",
"282 454 CURVE SMOOTH",
"305 476 OFFCURVE",
"317 503 OFFCURVE",
"377 525 CURVE SMOOTH"
);
},
{
closed = 1;
nodes = (
"160 207 OFFCURVE",
"128 131 OFFCURVE",
"153 113 CURVE SMOOTH",
"169 101 OFFCURVE",
"192 133 OFFCURVE",
"219 136 CURVE SMOOTH",
"245 139 OFFCURVE",
"274 116 OFFCURVE",
"286 147 CURVE SMOOTH",
"300 184 OFFCURVE",
"266 213 OFFCURVE",
"217 210 CURVE SMOOTH"
);
}
);
};
layerId = "A0EF8C6F-60C0-4D2A-A4F7-7A1091FA18C1";
paths = (
{
closed = 1;
nodes = (
"320 483 OFFCURVE",
"298 542 OFFCURVE",
"346 552 CURVE SMOOTH",
"384 560 OFFCURVE",
"383 528 OFFCURVE",
"414 520 CURVE SMOOTH",
"440 513 OFFCURVE",
"465 546 OFFCURVE",
"500 531 CURVE SMOOTH",
"525 520 OFFCURVE",
"528 486 OFFCURVE",
"517 467 CURVE SMOOTH",
"504 445 OFFCURVE",
"481 423 OFFCURVE",
"478 393 CURVE SMOOTH",
"475 365 OFFCURVE",
"492 348 OFFCURVE",
"483 319 CURVE SMOOTH",
"470 278 OFFCURVE",
"412 262 OFFCURVE",
"406 227 CURVE SMOOTH",
"399 187 OFFCURVE",
"427 146 OFFCURVE",
"462 143 CURVE SMOOTH",
"502 140 OFFCURVE",
"515 176 OFFCURVE",
"550 196 CURVE SMOOTH",
"580 213 OFFCURVE",
"620 187 OFFCURVE",
"602 144 CURVE SMOOTH",
"584 100 OFFCURVE",
"544 102 OFFCURVE",
"515 70 CURVE SMOOTH",
"483 35 OFFCURVE",
"465 -36 OFFCURVE",
"409 -25 CURVE SMOOTH",
"367 -17 OFFCURVE",
"364 43 OFFCURVE",
"382 92 CURVE SMOOTH",
"399 138 OFFCURVE",
"338 152 OFFCURVE",
"318 109 CURVE SMOOTH",
"300 70 OFFCURVE",
"292 9 OFFCURVE",
"243 6 CURVE SMOOTH",
"207 4 OFFCURVE",
"189 41 OFFCURVE",
"168 46 CURVE SMOOTH",
"148 51 OFFCURVE",
"102 43 OFFCURVE",
"79 52 CURVE SMOOTH",
"6 81 OFFCURVE",
"32 196 OFFCURVE",
"93 207 CURVE SMOOTH",
"125 213 OFFCURVE",
"141 197 OFFCURVE",
"167 211 CURVE SMOOTH",
"191 224 OFFCURVE",
"182 274 OFFCURVE",
"221 284 CURVE SMOOTH",
"259 294 OFFCURVE",
"281 272 OFFCURVE",
"321 274 CURVE SMOOTH",
"415 279 OFFCURVE",
"439 465 OFFCURVE",
"405 475 CURVE SMOOTH",
"372 485 OFFCURVE",
"331 345 OFFCURVE",
"255 332 CURVE SMOOTH",
"185 320 OFFCURVE",
"145 385 OFFCURVE",
"199 421 CURVE SMOOTH",
"225 437 OFFCURVE",
"267 430 OFFCURVE",
"292 455 CURVE SMOOTH"
);
},
{
closed = 1;
nodes = (
"126 121 OFFCURVE",
"132 109 OFFCURVE",
"159 106 CURVE SMOOTH",
"219 99 OFFCURVE",
"271 130 OFFCURVE",
"279 160 CURVE SMOOTH",
"286 187 OFFCURVE",
"275 200 OFFCURVE",
"257 202 CURVE SMOOTH",
"235 204 OFFCURVE",
"224 167 OFFCURVE",
"186 153 CURVE SMOOTH",
"159 143 OFFCURVE",
"129 151 OFFCURVE",
"127 131 CURVE SMOOTH"
);
}
);
width = 651;
}
);
leftKerningGroup = a;
rightKerningGroup = a;
unicode = 0061;
},
{
color = 4;
glyphname = aacute;
lastChange = "2021-11-18 18:36:06 +0000";
layers = (
{
layerId = "A0EF8C6F-60C0-4D2A-A4F7-7A1091FA18C1";
paths = (
{
closed = 1;
nodes = (
"6 81 OFFCURVE",
"32 196 OFFCURVE",
"93 207 CURVE SMOOTH",
"125 213 OFFCURVE",
"141 197 OFFCURVE",
"167 211 CURVE SMOOTH",
"191 224 OFFCURVE",
"182 274 OFFCURVE",
"221 284 CURVE SMOOTH",
"259 294 OFFCURVE",
"281 272 OFFCURVE",
"321 274 CURVE SMOOTH",
"415 279 OFFCURVE",
"433 464 OFFCURVE",
"405 475 CURVE SMOOTH",
"380 485 OFFCURVE",
"331 345 OFFCURVE",
"255 332 CURVE SMOOTH",
"202 323 OFFCURVE",
"173 349 OFFCURVE",
"176 377 CURVE SMOOTH",
"184 451 OFFCURVE",
"255 418 OFFCURVE",
"292 455 CURVE SMOOTH",
"306 469 OFFCURVE",
"302 490 OFFCURVE",
"311 505 CURVE SMOOTH",
"320 520 OFFCURVE",
"344 528 OFFCURVE",
"342 542 CURVE SMOOTH",
"340 559 OFFCURVE",
"314 557 OFFCURVE",
"298 564 CURVE SMOOTH",
"277 573 OFFCURVE",
"273 608 OFFCURVE",
"300 617 CURVE SMOOTH",
"327 626 OFFCURVE",
"359 612 OFFCURVE",
"396 641 CURVE SMOOTH",
"457 689 OFFCURVE",
"435 759 OFFCURVE",
"490 759 CURVE SMOOTH",
"552 759 OFFCURVE",
"550 656 OFFCURVE",
"501 609 CURVE SMOOTH",
"469 578 OFFCURVE",
"426 565 OFFCURVE",
"400 559 CURVE SMOOTH",
"372 553 OFFCURVE",
"368 525 OFFCURVE",
"406 521 CURVE SMOOTH",
"440 517 OFFCURVE",
"465 546 OFFCURVE",
"500 531 CURVE SMOOTH",
"525 520 OFFCURVE",
"528 486 OFFCURVE",
"517 467 CURVE SMOOTH",
"504 445 OFFCURVE",
"476 423 OFFCURVE",
"478 393 CURVE SMOOTH",
"480 365 OFFCURVE",
"498 348 OFFCURVE",
"483 319 CURVE SMOOTH",
"463 280 OFFCURVE",
"410 262 OFFCURVE",
"406 227 CURVE SMOOTH",
"402 193 OFFCURVE",
"427 146 OFFCURVE",
"462 143 CURVE SMOOTH",
"502 140 OFFCURVE",
"515 176 OFFCURVE",
"550 196 CURVE SMOOTH",
"580 213 OFFCURVE",
"620 187 OFFCURVE",
"602 144 CURVE SMOOTH",
"584 100 OFFCURVE",
"544 102 OFFCURVE",
"515 70 CURVE SMOOTH",
"483 35 OFFCURVE",
"465 -36 OFFCURVE",
"409 -25 CURVE SMOOTH",
"367 -17 OFFCURVE",
"364 43 OFFCURVE",
"382 92 CURVE SMOOTH",
"399 138 OFFCURVE",
"338 152 OFFCURVE",
"318 109 CURVE SMOOTH",
"300 70 OFFCURVE",
"292 9 OFFCURVE",
"243 6 CURVE SMOOTH",
"207 4 OFFCURVE",
"189 41 OFFCURVE",
"168 46 CURVE SMOOTH",
"148 51 OFFCURVE",
"102 43 OFFCURVE",
"79 52 CURVE SMOOTH"
);
},
{
closed = 1;
nodes = (
"120 110 OFFCURVE",
"140 99 OFFCURVE",
"176 101 CURVE SMOOTH",
"231 104 OFFCURVE",
"284 145 OFFCURVE",
"288 180 CURVE SMOOTH",
"291 209 OFFCURVE",
"277 222 OFFCURVE",
"258 222 CURVE SMOOTH",
"234 222 OFFCURVE",
"227 177 OFFCURVE",
"194 159 CURVE SMOOTH",
"163 142 OFFCURVE",
"127 152 OFFCURVE",
"123 128 CURVE SMOOTH"
);
}
);
width = 641;
}
);
leftKerningGroup = a;
rightKerningGroup = a;
unicode = 00E1;
},
{
color = 4;
glyphname = acircumflex;
lastChange = "2022-01-25 18:15:39 +0000";
layers = (
{
layerId = "A0EF8C6F-60C0-4D2A-A4F7-7A1091FA18C1";
paths = (
{
closed = 1;
nodes = (
"204 515 OFFCURVE",
"250 577 CURVE SMOOTH",
"274 609 OFFCURVE",
"312 607 OFFCURVE",
"328 627 CURVE SMOOTH",
"346 649 OFFCURVE",
"344 674 OFFCURVE",
"361 691 CURVE SMOOTH",
"382 712 OFFCURVE",
"407 701 OFFCURVE",
"426 719 CURVE SMOOTH",
"445 737 OFFCURVE",
"442 780 OFFCURVE",
"487 782 CURVE SMOOTH",
"532 784 OFFCURVE",
"533 722 OFFCURVE",
"544 685 CURVE SMOOTH",
"556 644 OFFCURVE",
"590 613 OFFCURVE",
"600 573 CURVE SMOOTH",
"619 497 OFFCURVE",
"528 471 OFFCURVE",
"506 529 CURVE SMOOTH",
"491 569 OFFCURVE",
"506 662 OFFCURVE",
"474 670 CURVE SMOOTH",
"446 677 OFFCURVE",
"446 634 OFFCURVE",
"431 619 CURVE SMOOTH",
"414 602 OFFCURVE",
"388 602 OFFCURVE",
"375 591 CURVE SMOOTH",
"351 571 OFFCURVE",
"348 536 OFFCURVE",
"326 511 CURVE SMOOTH",
"283 463 OFFCURVE"
);
},
{
closed = 1;
nodes = (
"325 445 OFFCURVE",
"326 486 OFFCURVE",
"354 495 CURVE SMOOTH",
"380 503 OFFCURVE",
"396 478 OFFCURVE",
"418 479 CURVE SMOOTH",
"440 480 OFFCURVE",
"458 498 OFFCURVE",
"484 490 CURVE SMOOTH",
"515 481 OFFCURVE",
"526 442 OFFCURVE",
"516 414 CURVE SMOOTH",
"504 382 OFFCURVE",
"486 376 OFFCURVE",
"483 348 CURVE SMOOTH",
"480 319 OFFCURVE",
"497 299 OFFCURVE",
"485 269 CURVE SMOOTH",
"469 230 OFFCURVE",
"406 231 OFFCURVE",
"397 191 CURVE SMOOTH",
"389 157 OFFCURVE",
"417 109 OFFCURVE",
"452 105 CURVE SMOOTH",
"492 100 OFFCURVE",
"506 137 OFFCURVE",
"541 157 CURVE SMOOTH",
"571 174 OFFCURVE",
"611 146 OFFCURVE",
"592 104 CURVE SMOOTH",
"573 62 OFFCURVE",
"534 63 OFFCURVE",
"504 32 CURVE SMOOTH",
"471 -3 OFFCURVE",
"452 -73 OFFCURVE",
"396 -61 CURVE SMOOTH",
"355 -52 OFFCURVE",
"353 7 OFFCURVE",
"368 56 CURVE SMOOTH",
"383 104 OFFCURVE",
"329 117 OFFCURVE",
"307 74 CURVE SMOOTH",
"287 36 OFFCURVE",
"279 -26 OFFCURVE",
"231 -27 CURVE SMOOTH",
"195 -28 OFFCURVE",
"177 7 OFFCURVE",
"156 13 CURVE SMOOTH",
"135 19 OFFCURVE",
"109 7 OFFCURVE",
"78 21 CURVE SMOOTH",
"6 53 OFFCURVE",
"33 166 OFFCURVE",
"94 176 CURVE SMOOTH",
"126 181 OFFCURVE",
"132 165 OFFCURVE",
"158 179 CURVE SMOOTH",
"182 192 OFFCURVE",
"174 241 OFFCURVE",
"214 251 CURVE SMOOTH",
"252 260 OFFCURVE",
"273 238 OFFCURVE",
"317 239 CURVE SMOOTH",
"407 241 OFFCURVE",
"442 429 OFFCURVE",
"400 438 CURVE SMOOTH",
"366 445 OFFCURVE",
"325 311 OFFCURVE",
"248 298 CURVE SMOOTH",
"180 286 OFFCURVE",
"142 352 OFFCURVE",
"192 392 CURVE SMOOTH",
"217 412 OFFCURVE",
"257 401 OFFCURVE",
"288 421 CURVE SMOOTH"
);
},
{
closed = 1;
nodes = (
"222 184 OFFCURVE",
"220 147 OFFCURVE",
"187 127 CURVE SMOOTH",
"160 111 OFFCURVE",
"133 113 OFFCURVE",
"131 90 CURVE SMOOTH",
"130 74 OFFCURVE",
"143 59 OFFCURVE",
"182 60 CURVE SMOOTH",
"232 61 OFFCURVE",
"277 107 OFFCURVE",
"278 143 CURVE SMOOTH",
"279 172 OFFCURVE",
"266 186 OFFCURVE",
"246 185 CURVE SMOOTH"
);
}
);
width = 632;
}
);
leftKerningGroup = a;
rightKerningGroup = a;
unicode = 00E2;
},
{
color = 4;
glyphname = agrave;
lastChange = "2021-10-10 14:57:15 +0000";
layers = (
{
layerId = "A0EF8C6F-60C0-4D2A-A4F7-7A1091FA18C1";
paths = (
{
closed = 1;
nodes = (
"317 475 OFFCURVE",
"321 508 OFFCURVE",
"349 517 CURVE SMOOTH",
"375 525 OFFCURVE",
"404 514 OFFCURVE",
"426 515 CURVE SMOOTH",
"448 516 OFFCURVE",
"469 534 OFFCURVE",
"495 521 CURVE SMOOTH",
"523 507 OFFCURVE",
"534 470 OFFCURVE",
"522 442 CURVE SMOOTH",
"512 419 OFFCURVE",
"493 413 OFFCURVE",
"493 385 CURVE SMOOTH",
"493 354 OFFCURVE",
"507 336 OFFCURVE",
"495 306 CURVE SMOOTH",
"479 267 OFFCURVE",
"416 268 OFFCURVE",
"407 228 CURVE SMOOTH",
"399 194 OFFCURVE",
"427 146 OFFCURVE",
"462 142 CURVE SMOOTH",
"502 137 OFFCURVE",
"516 174 OFFCURVE",
"551 194 CURVE SMOOTH",
"581 211 OFFCURVE",
"621 183 OFFCURVE",
"602 141 CURVE SMOOTH",
"583 99 OFFCURVE",
"544 100 OFFCURVE",
"514 69 CURVE SMOOTH",
"481 34 OFFCURVE",
"462 -36 OFFCURVE",
"406 -24 CURVE SMOOTH",
"365 -15 OFFCURVE",
"362 44 OFFCURVE",
"381 93 CURVE SMOOTH",
"399 139 OFFCURVE",
"339 154 OFFCURVE",
"317 111 CURVE SMOOTH",
"297 73 OFFCURVE",
"289 11 OFFCURVE",
"241 10 CURVE SMOOTH",
"205 9 OFFCURVE",
"187 46 OFFCURVE",
"166 50 CURVE SMOOTH",
"142 55 OFFCURVE",
"100 48 OFFCURVE",
"78 58 CURVE SMOOTH",
"6 91 OFFCURVE",
"33 203 OFFCURVE",
"94 213 CURVE SMOOTH",
"126 218 OFFCURVE",
"142 202 OFFCURVE",
"168 216 CURVE SMOOTH",
"192 229 OFFCURVE",
"184 278 OFFCURVE",
"224 288 CURVE SMOOTH",
"262 297 OFFCURVE",
"283 275 OFFCURVE",
"327 276 CURVE SMOOTH",
"417 278 OFFCURVE",
"452 466 OFFCURVE",
"410 475 CURVE SMOOTH",
"376 482 OFFCURVE",
"335 348 OFFCURVE",
"258 335 CURVE SMOOTH",
"206 326 OFFCURVE",
"177 353 OFFCURVE",
"181 382 CURVE SMOOTH",
"191 456 OFFCURVE",
"252 428 OFFCURVE",
"296 460 CURVE SMOOTH"
);
},
{
closed = 1;
nodes = (
"232 216 OFFCURVE",
"233 176 OFFCURVE",
"197 159 CURVE SMOOTH",
"170 146 OFFCURVE",
"138 155 OFFCURVE",
"134 135 CURVE SMOOTH",
"131 120 OFFCURVE",
"152 101 OFFCURVE",
"199 102 CURVE SMOOTH",
"252 103 OFFCURVE",
"287 139 OFFCURVE",
"288 175 CURVE SMOOTH",
"289 204 OFFCURVE",
"276 218 OFFCURVE",
"256 217 CURVE SMOOTH"
);
},
{
closed = 1;
nodes = (
"430 516 OFFCURVE",
"427 555 OFFCURVE",
"400 561 CURVE SMOOTH",
"374 567 OFFCURVE",
"331 580 OFFCURVE",
"299 611 CURVE SMOOTH",
"250 658 OFFCURVE",
"248 761 OFFCURVE",
"310 761 CURVE SMOOTH",
"365 761 OFFCURVE",
"343 691 OFFCURVE",
"404 643 CURVE SMOOTH",
"441 614 OFFCURVE",
"473 628 OFFCURVE",
"500 619 CURVE SMOOTH",
"527 610 OFFCURVE",
"523 575 OFFCURVE",
"502 566 CURVE SMOOTH",
"490 561 OFFCURVE",
"468 564 OFFCURVE",
"465 550 CURVE SMOOTH",
"463 539 OFFCURVE",
"473 530 OFFCURVE",
"493 522 CURVE",
"443 498 OFFCURVE",
"403 515 OFFCURVE",
"394 518 CURVE"
);
}
);
width = 642;
}
);
leftKerningGroup = a;
rightKerningGroup = a;
unicode = 00E0;
},
{
color = 4;
glyphname = ae;
lastChange = "2022-01-26 02:21:46 +0000";
layers = (
{
layerId = "A0EF8C6F-60C0-4D2A-A4F7-7A1091FA18C1";
paths = (
{
closed = 1;
nodes = (
"245 500 OFFCURVE",
"199 512 OFFCURVE",
"159 475 CURVE SMOOTH",
"121 440 OFFCURVE",
"133 360 OFFCURVE",
"185 360 CURVE SMOOTH",
"249 360 OFFCURVE",
"249 455 OFFCURVE",
"328 445 CURVE SMOOTH",
"387 437 OFFCURVE",
"360 328 OFFCURVE",
"300 307 CURVE SMOOTH",
"262 294 OFFCURVE",
"233 308 OFFCURVE",
"198 288 CURVE SMOOTH",
"166 269 OFFCURVE",
"175 235 OFFCURVE",
"145 207 CURVE SMOOTH",
"118 181 OFFCURVE",
"109 194 OFFCURVE",
"73 166 CURVE SMOOTH",
"2 112 OFFCURVE",
"41 2 OFFCURVE",
"102 -3 CURVE SMOOTH",
"137 -6 OFFCURVE",
"157 18 OFFCURVE",
"183 18 CURVE SMOOTH",
"227 18 OFFCURVE",
"241 -16 OFFCURVE",
"287 -12 CURVE SMOOTH",
"342 -7 OFFCURVE",
"345 90 OFFCURVE",
"392 88 CURVE SMOOTH",
"444 85 OFFCURVE",
"442 -30 OFFCURVE",
"536 -35 CURVE SMOOTH",
"621 -40 OFFCURVE",
"674 53 OFFCURVE",
"677 88 CURVE SMOOTH",
"681 132 OFFCURVE",
"642 151 OFFCURVE",
"615 132 CURVE SMOOTH",
"591 115 OFFCURVE",
"584 79 OFFCURVE",
"530 79 CURVE SMOOTH",
"476 79 OFFCURVE",
"395 157 OFFCURVE",
"439 199 CURVE SMOOTH",
"480 238 OFFCURVE",
"521 167 OFFCURVE",
"572 170 CURVE SMOOTH",
"617 173 OFFCURVE",
"625 203 OFFCURVE",
"660 228 CURVE SMOOTH",
"691 251 OFFCURVE",
"710 256 OFFCURVE",
"727 281 CURVE SMOOTH",
"740 301 OFFCURVE",
"739 337 OFFCURVE",
"722 355 CURVE SMOOTH",
"705 373 OFFCURVE",
"681 377 OFFCURVE",
"666 392 CURVE SMOOTH",
"643 414 OFFCURVE",
"653 459 OFFCURVE",
"593 467 CURVE SMOOTH",
"508 479 OFFCURVE",
"497 359 OFFCURVE",
"426 382 CURVE SMOOTH",
"394 393 OFFCURVE",
"433 462 OFFCURVE",
"436 497 CURVE SMOOTH",
"440 532 OFFCURVE",
"416 556 OFFCURVE",
"380 553 CURVE SMOOTH",
"344 550 OFFCURVE",
"316 517 OFFCURVE",
"282 509 CURVE SMOOTH"
);
},
{
closed = 1;
nodes = (
"564 337 OFFCURVE",
"570 372 OFFCURVE",
"594 372 CURVE SMOOTH",
"630 372 OFFCURVE",
"638 305 OFFCURVE",
"606 275 CURVE SMOOTH",
"575 247 OFFCURVE",
"464 239 OFFCURVE",
"452 280 CURVE SMOOTH",
"440 317 OFFCURVE",
"504 312 OFFCURVE",
"536 325 CURVE SMOOTH"
);
},
{
closed = 1;
nodes = (
"367 218 OFFCURVE",
"345 117 OFFCURVE",
"296 107 CURVE SMOOTH",
"262 100 OFFCURVE",
"245 113 OFFCURVE",
"222 110 CURVE SMOOTH",
"199 107 OFFCURVE",
"150 76 OFFCURVE",
"142 105 CURVE SMOOTH",
"133 144 OFFCURVE",
"266 237 OFFCURVE",
"318 227 CURVE SMOOTH"
);
}
);
width = 766;
}
);
leftKerningGroup = a;
unicode = 00E6;
},
{
glyphname = b;
lastChange = "2022-01-26 01:36:35 +0000";
layers = (
{
layerId = "A0EF8C6F-60C0-4D2A-A4F7-7A1091FA18C1";
paths = (
{
closed = 1;
nodes = (
"150 657 OFFCURVE",
"190 665 OFFCURVE",
"223 663 CURVE SMOOTH",
"264 660 OFFCURVE",
"281 714 OFFCURVE",
"331 717 CURVE SMOOTH",
"361 718 OFFCURVE",
"370 702 OFFCURVE",
"369 682 CURVE SMOOTH",
"369 650 OFFCURVE",
"328 622 OFFCURVE",
"335 585 CURVE SMOOTH",
"340 558 OFFCURVE",
"341 522 OFFCURVE",
"328 480 CURVE SMOOTH",
"315 439 OFFCURVE",
"253 388 OFFCURVE",
"240 338 CURVE SMOOTH",
"230 307 OFFCURVE",
"252 288 OFFCURVE",
"273 288 CURVE SMOOTH",
"303 288 OFFCURVE",
"342 351 OFFCURVE",
"377 351 CURVE SMOOTH",
"418 351 OFFCURVE",
"413 295 OFFCURVE",
"433 274 CURVE SMOOTH",
"453 253 OFFCURVE",
"489 248 OFFCURVE",
"497 215 CURVE SMOOTH",
"506 179 OFFCURVE",
"489 113 OFFCURVE",
"465 92 CURVE SMOOTH",
"445 75 OFFCURVE",
"426 82 OFFCURVE",
"407 67 CURVE SMOOTH",
"383 48 OFFCURVE",
"367 0 OFFCURVE",
"336 0 CURVE SMOOTH",
"286 0 OFFCURVE",
"273 76 OFFCURVE",
"219 80 CURVE SMOOTH",
"178 83 OFFCURVE",
"163 3 OFFCURVE",
"102 -7 CURVE SMOOTH",
"51 -15 OFFCURVE",
"18 17 OFFCURVE",
"29 61 CURVE SMOOTH",
"43 116 OFFCURVE",
"123 107 OFFCURVE",
"153 158 CURVE SMOOTH",
"196 232 OFFCURVE",
"149 302 OFFCURVE",
"174 411 CURVE SMOOTH",
"186 485 OFFCURVE",
"293 591 OFFCURVE",
"271 617 CURVE SMOOTH",
"258 632 OFFCURVE",
"232 573 OFFCURVE",
"195 571 CURVE SMOOTH",
"170 570 OFFCURVE",
"154 590 OFFCURVE",
"152 619 CURVE SMOOTH"
);
},
{
closed = 1;
nodes = (
"303 260 OFFCURVE",
"260 215 OFFCURVE",
"262 174 CURVE SMOOTH",
"264 134 OFFCURVE",
"301 105 OFFCURVE",
"336 105 CURVE SMOOTH",
"367 105 OFFCURVE",
"409 126 OFFCURVE",
"409 154 CURVE SMOOTH",
"409 190 OFFCURVE",
"367 178 OFFCURVE",
"361 200 CURVE SMOOTH",
"356 217 OFFCURVE",
"362 233 OFFCURVE",
"362 244 CURVE SMOOTH",
"362 254 OFFCURVE",
"352 260 OFFCURVE",
"341 260 CURVE SMOOTH"
);
}
);
width = 550;
}
);
leftKerningGroup = b;
unicode = 0062;
},
{
glyphname = c;
lastChange = "2022-01-26 02:22:25 +0000";
layers = (
{
layerId = "A0EF8C6F-60C0-4D2A-A4F7-7A1091FA18C1";
paths = (
{
closed = 1;
nodes = (
"325 347 OFFCURVE",
"342 314 OFFCURVE",
"383 315 CURVE SMOOTH",
"436 316 OFFCURVE",
"472 416 OFFCURVE",
"395 442 CURVE SMOOTH",
"361 453 OFFCURVE",
"337 427 OFFCURVE",
"307 428 CURVE SMOOTH",
"275 429 OFFCURVE",
"249 480 OFFCURVE",
"205 471 CURVE SMOOTH",
"162 463 OFFCURVE",
"148 415 OFFCURVE",
"116 360 CURVE SMOOTH",
"83 302 OFFCURVE",
"38 265 OFFCURVE",
"36 195 CURVE SMOOTH",
"33 109 OFFCURVE",
"88 99 OFFCURVE",
"117 68 CURVE SMOOTH",
"143 40 OFFCURVE",
"152 -13 OFFCURVE",
"209 -15 CURVE SMOOTH",
"264 -17 OFFCURVE",
"282 25 OFFCURVE",
"320 40 CURVE SMOOTH",
"352 52 OFFCURVE",
"375 49 OFFCURVE",
"397 75 CURVE SMOOTH",
"426 109 OFFCURVE",
"419 177 OFFCURVE",
"368 178 CURVE SMOOTH",
"328 180 OFFCURVE",
"300 91 OFFCURVE",
"233 84 CURVE SMOOTH",
"186 80 OFFCURVE",
"141 135 OFFCURVE",
"130 179 CURVE SMOOTH",
"115 241 OFFCURVE",
"155 313 OFFCURVE",
"191 330 CURVE SMOOTH",
"214 341 OFFCURVE",
"219 323 OFFCURVE",
"238 323 CURVE SMOOTH",
"260 323 OFFCURVE",
"274 349 OFFCURVE",
"298 348 CURVE SMOOTH"
);
}
);
width = 467;
}
);
leftKerningGroup = c;
rightKerningGroup = c;
unicode = 0063;
},
{
glyphname = ccedilla;
lastChange = "2021-11-22 18:34:01 +0000";
layers = (
{
layerId = "A0EF8C6F-60C0-4D2A-A4F7-7A1091FA18C1";
paths = (
{
closed = 1;
nodes = (
"33 109 OFFCURVE",
"88 98 OFFCURVE",
"117 68 CURVE SMOOTH",
"138 46 OFFCURVE",
"143 18 OFFCURVE",
"174 -3 CURVE SMOOTH",
"198 -19 OFFCURVE",
"248 -27 OFFCURVE",
"234 -70 CURVE SMOOTH",
"224 -100 OFFCURVE",
"189 -119 OFFCURVE",
"169 -105 CURVE SMOOTH",
"151 -93 OFFCURVE",
"159 -51 OFFCURVE",
"126 -34 CURVE SMOOTH",
"86 -13 OFFCURVE",
"55 -63 OFFCURVE",
"70 -97 CURVE SMOOTH",
"84 -128 OFFCURVE",
"106 -127 OFFCURVE",
"123 -144 CURVE SMOOTH",
"138 -159 OFFCURVE",
"141 -182 OFFCURVE",
"169 -189 CURVE SMOOTH",
"199 -196 OFFCURVE",
"222 -159 OFFCURVE",
"242 -146 CURVE SMOOTH",
"270 -127 OFFCURVE",
"318 -130 OFFCURVE",
"318 -84 CURVE SMOOTH",
"318 -43 OFFCURVE",
"272 -37 OFFCURVE",
"263 -7 CURVE SMOOTH",
"250 38 OFFCURVE",
"359 31 OFFCURVE",
"397 75 CURVE SMOOTH",
"426 109 OFFCURVE",
"419 177 OFFCURVE",
"368 178 CURVE SMOOTH",
"328 180 OFFCURVE",
"300 91 OFFCURVE",
"233 84 CURVE SMOOTH",
"186 80 OFFCURVE",
"141 135 OFFCURVE",
"130 179 CURVE SMOOTH",
"115 241 OFFCURVE",
"155 313 OFFCURVE",
"191 330 CURVE SMOOTH",
"214 341 OFFCURVE",
"219 323 OFFCURVE",
"238 323 CURVE SMOOTH",
"260 323 OFFCURVE",
"274 349 OFFCURVE",
"298 348 CURVE SMOOTH",
"325 347 OFFCURVE",
"342 314 OFFCURVE",
"383 315 CURVE SMOOTH",
"436 316 OFFCURVE",
"472 416 OFFCURVE",
"395 442 CURVE SMOOTH",
"361 453 OFFCURVE",
"337 427 OFFCURVE",
"307 428 CURVE SMOOTH",
"275 429 OFFCURVE",
"249 480 OFFCURVE",
"205 471 CURVE SMOOTH",
"162 463 OFFCURVE",
"148 415 OFFCURVE",
"116 360 CURVE SMOOTH",
"83 302 OFFCURVE",
"38 265 OFFCURVE",
"36 195 CURVE SMOOTH"
);
}
);
width = 463;
}
);
leftKerningGroup = c;
rightKerningGroup = c;
unicode = 00E7;
},
{
glyphname = d;
lastChange = "2022-01-26 01:26:30 +0000";
layers = (
{
layerId = "A0EF8C6F-60C0-4D2A-A4F7-7A1091FA18C1";
paths = (
{
closed = 1;
nodes = (
"545 738 OFFCURVE",
"558 708 CURVE SMOOTH",
"569 683 OFFCURVE",
"559 650 OFFCURVE",
"573 621 CURVE SMOOTH",
"586 593 OFFCURVE",
"631 566 OFFCURVE",
"636 532 CURVE SMOOTH",
"641 489 OFFCURVE",
"594 466 OFFCURVE",
"565 487 CURVE SMOOTH",
"538 507 OFFCURVE",
"540 574 OFFCURVE",
"517 566 CURVE SMOOTH",
"488 557 OFFCURVE",
"522 499 OFFCURVE",
"520 460 CURVE SMOOTH",
"518 422 OFFCURVE",
"489 417 OFFCURVE",
"476 378 CURVE SMOOTH",
"466 347 OFFCURVE",
"483 285 OFFCURVE",
"470 249 CURVE SMOOTH",
"458 217 OFFCURVE",
"401 169 OFFCURVE",
"426 140 CURVE SMOOTH",
"447 115 OFFCURVE",
"486 155 OFFCURVE",
"520 163 CURVE SMOOTH",
"565 173 OFFCURVE",
"584 132 OFFCURVE",
"558 102 CURVE SMOOTH",
"543 84 OFFCURVE",
"507 82 OFFCURVE",
"478 64 CURVE SMOOTH",
"429 33 OFFCURVE",
"394 -36 OFFCURVE",
"362 -19 CURVE SMOOTH",
"323 2 OFFCURVE",
"377 67 OFFCURVE",
"335 90 CURVE SMOOTH",
"289 115 OFFCURVE",
"278 19 OFFCURVE",
"223 19 CURVE SMOOTH",
"186 19 OFFCURVE",
"167 58 OFFCURVE",
"144 81 CURVE SMOOTH",
"123 102 OFFCURVE",
"104 100 OFFCURVE",
"77 122 CURVE SMOOTH",
"33 158 OFFCURVE",
"26 290 OFFCURVE",
"129 340 CURVE SMOOTH",
"157 354 OFFCURVE",
"173 350 OFFCURVE",
"200 363 CURVE SMOOTH",
"232 379 OFFCURVE",
"262 431 OFFCURVE",
"311 405 CURVE SMOOTH",
"376 371 OFFCURVE",
"314 251 OFFCURVE",
"369 251 CURVE SMOOTH",
"416 251 OFFCURVE",
"378 393 OFFCURVE",
"385 443 CURVE SMOOTH",
"392 492 OFFCURVE",
"427 524 OFFCURVE",
"445 566 CURVE SMOOTH",
"462 605 OFFCURVE",
"458 673 OFFCURVE",
"480 708 CURVE SMOOTH",
"498 740 OFFCURVE"
);
},
{
closed = 1;
nodes = (
"238 282 OFFCURVE",
"234 315 OFFCURVE",
"202 314 CURVE SMOOTH",
"166 313 OFFCURVE",
"151 264 OFFCURVE",
"151 237 CURVE SMOOTH",
"151 208 OFFCURVE",
"162 198 OFFCURVE",
"167 181 CURVE SMOOTH",
"173 159 OFFCURVE",
"167 125 OFFCURVE",
"195 113 CURVE SMOOTH",
"256 88 OFFCURVE",
"328 169 OFFCURVE",
"311 209 CURVE SMOOTH",
"299 237 OFFCURVE",
"273 247 OFFCURVE",
"256 264 CURVE SMOOTH"
);
}
);
width = 674;
}
);
leftKerningGroup = d;
rightKerningGroup = d;
unicode = 0064;
},
{
glyphname = e;
lastChange = "2022-01-26 02:22:38 +0000";
layers = (
{
layerId = "A0EF8C6F-60C0-4D2A-A4F7-7A1091FA18C1";
paths = (
{
closed = 1;
nodes = (
"48 319 OFFCURVE",
"144 266 OFFCURVE",
"151 351 CURVE SMOOTH",
"156 403 OFFCURVE",
"176 500 OFFCURVE",
"272 500 CURVE SMOOTH",
"319 500 OFFCURVE",
"346 461 OFFCURVE",
"349 412 CURVE SMOOTH",
"358 286 OFFCURVE",
"139 197 OFFCURVE",
"187 135 CURVE SMOOTH",
"228 82 OFFCURVE",
"297 211 OFFCURVE",
"373 211 CURVE SMOOTH",
"409 211 OFFCURVE",
"448 185 OFFCURVE",
"448 140 CURVE SMOOTH",
"448 96 OFFCURVE",
"420 78 OFFCURVE",
"395 78 CURVE SMOOTH",
"365 78 OFFCURVE",
"362 105 OFFCURVE",
"334 104 CURVE SMOOTH",
"274 102 OFFCURVE",
"269 3 OFFCURVE",
"189 3 CURVE SMOOTH",
"118 3 OFFCURVE",
"99 44 OFFCURVE",
"99 85 CURVE SMOOTH",
"99 132 OFFCURVE",
"133 154 OFFCURVE",
"133 182 CURVE SMOOTH",
"133 209 OFFCURVE",
"105 193 OFFCURVE",
"77 198 CURVE SMOOTH",
"49 204 OFFCURVE",
"30 223 OFFCURVE",
"36 253 CURVE SMOOTH"
);
},
{
closed = 1;
nodes = (
"239 432 OFFCURVE",
"198 337 OFFCURVE",
"225 325 CURVE SMOOTH",
"254 312 OFFCURVE",
"295 397 OFFCURVE",
"264 417 CURVE SMOOTH"
);
}
);
width = 492;
}
);
leftKerningGroup = e;
rightKerningGroup = e;
unicode = 0065;
},
{
color = 4;
glyphname = eacute;
lastChange = "2022-01-26 02:22:43 +0000";
layers = (
{
layerId = "A0EF8C6F-60C0-4D2A-A4F7-7A1091FA18C1";
paths = (
{
closed = 1;
nodes = (
"216 409 OFFCURVE",
"175 326 OFFCURVE",
"241 304 CURVE SMOOTH",
"301 284 OFFCURVE",
"326 372 OFFCURVE",
"273 390 CURVE SMOOTH"
);
},
{
closed = 1;
nodes = (
"32 326 OFFCURVE",
"98 331 OFFCURVE",
"135 364 CURVE SMOOTH",
"169 394 OFFCURVE",
"173 424 OFFCURVE",
"194 446 CURVE SMOOTH",
"207 460 OFFCURVE",
"232 467 OFFCURVE",
"228 482 CURVE SMOOTH",
"224 496 OFFCURVE",
"197 482 OFFCURVE",
"180 487 CURVE SMOOTH",
"166 491 OFFCURVE",
"157 513 OFFCURVE",
"166 528 CURVE SMOOTH",
"181 554 OFFCURVE",
"229 547 OFFCURVE",
"276 573 CURVE SMOOTH",
"321 597 OFFCURVE",
"332 660 OFFCURVE",
"383 660 CURVE SMOOTH",
"429 660 OFFCURVE",
"433 591 OFFCURVE",
"397 555 CURVE SMOOTH",
"358 516 OFFCURVE",
"288 510 OFFCURVE",
"286 485 CURVE SMOOTH",
"285 469 OFFCURVE",
"324 473 OFFCURVE",
"338 445 CURVE SMOOTH",
"350 421 OFFCURVE",
"344 384 OFFCURVE",
"359 364 CURVE SMOOTH",
"378 338 OFFCURVE",
"434 335 OFFCURVE",
"434 284 CURVE SMOOTH",
"434 236 OFFCURVE",
"373 234 OFFCURVE",
"320 241 CURVE SMOOTH",
"246 251 OFFCURVE",
"161 283 OFFCURVE",
"138 232 CURVE SMOOTH",
"114 179 OFFCURVE",
"168 119 OFFCURVE",
"224 115 CURVE SMOOTH",
"283 111 OFFCURVE",
"326 193 OFFCURVE",
"387 193 CURVE SMOOTH",
"428 193 OFFCURVE",
"465 149 OFFCURVE",
"427 111 CURVE SMOOTH",
"400 84 OFFCURVE",
"352 99 OFFCURVE",
"315 71 CURVE SMOOTH",
"278 43 OFFCURVE",
"241 -8 OFFCURVE",
"182 7 CURVE SMOOTH",
"125 22 OFFCURVE",
"126 76 OFFCURVE",
"95 134 CURVE SMOOTH",
"71 179 OFFCURVE",
"24 205 OFFCURVE",
"28 263 CURVE SMOOTH"
);
}
);
width = 492;
}
);
leftKerningGroup = egrave;
rightKerningGroup = egrave;
unicode = 00E9;
},
{
color = 4;
glyphname = ecircumflex;
lastChange = "2022-01-26 01:36:46 +0000";
layers = (
{
background = {
paths = (
{
closed = 1;
nodes = (
"291 463 OFFCURVE",
"297 419 OFFCURVE",
"329 397 CURVE SMOOTH",
"359 376 OFFCURVE",
"402 389 OFFCURVE",
"415 357 CURVE SMOOTH",
"428 324 OFFCURVE",
"403 304 OFFCURVE",
"395 280 CURVE SMOOTH",
"386 253 OFFCURVE",
"390 218 OFFCURVE",
"356 198 CURVE SMOOTH",
"326 180 OFFCURVE",
"277 187 OFFCURVE",
"245 215 CURVE SMOOTH",
"203 251 OFFCURVE",
"148 264 OFFCURVE",
"135 229 CURVE SMOOTH",
"119 186 OFFCURVE",
"163 179 OFFCURVE",
"181 156 CURVE SMOOTH",
"200 131 OFFCURVE",
"184 84 OFFCURVE",
"221 77 CURVE SMOOTH",
"259 70 OFFCURVE",
"281 116 OFFCURVE",
"324 131 CURVE SMOOTH",
"370 147 OFFCURVE",
"428 109 OFFCURVE",
"398 65 CURVE SMOOTH",
"377 34 OFFCURVE",
"337 40 OFFCURVE",
"301 23 CURVE SMOOTH",
"264 5 OFFCURVE",
"241 -23 OFFCURVE",
"187 -14 CURVE SMOOTH",
"137 -6 OFFCURVE",
"139 48 OFFCURVE",
"111 84 CURVE SMOOTH",
"83 120 OFFCURVE",
"39 152 OFFCURVE",
"43 215 CURVE SMOOTH",
"48 294 OFFCURVE",
"97 293 OFFCURVE",
"141 348 CURVE SMOOTH",
"178 394 OFFCURVE",
"176 453 OFFCURVE",
"236 458 CURVE SMOOTH"
);
},
{
closed = 1;
nodes = (
"216 335 OFFCURVE",
"200 328 OFFCURVE",
"208 311 CURVE SMOOTH",
"213 300 OFFCURVE",
"242 264 OFFCURVE",
"301 275 CURVE SMOOTH",
"329 280 OFFCURVE",
"347 306 OFFCURVE",
"335 327 CURVE SMOOTH",
"324 347 OFFCURVE",
"303 342 OFFCURVE",
"289 347 CURVE SMOOTH",
"274 352 OFFCURVE",
"271 385 OFFCURVE",
"246 379 CURVE SMOOTH",
"226 374 OFFCURVE",
"231 356 OFFCURVE",
"224 346 CURVE SMOOTH"
);
}
);
};
layerId = "A0EF8C6F-60C0-4D2A-A4F7-7A1091FA18C1";
paths = (
{
closed = 1;
nodes = (
"117 419 OFFCURVE",
"167 469 CURVE SMOOTH",
"219 521 OFFCURVE",
"240 661 OFFCURVE",
"294 663 CURVE SMOOTH",
"318 663 OFFCURVE",
"303 621 OFFCURVE",
"314 600 CURVE SMOOTH",
"323 582 OFFCURVE",
"345 572 OFFCURVE",
"349 545 CURVE SMOOTH",
"353 516 OFFCURVE",
"338 485 OFFCURVE",
"360 456 CURVE SMOOTH",
"392 414 OFFCURVE",
"466 446 OFFCURVE",
"450 508 CURVE SMOOTH",
"440 543 OFFCURVE",
"408 545 OFFCURVE",
"408 569 CURVE SMOOTH",
"408 599 OFFCURVE",
"417 631 OFFCURVE",
"397 661 CURVE SMOOTH",
"376 692 OFFCURVE",
"366 682 OFFCURVE",
"356 705 CURVE SMOOTH",
"344 729 OFFCURVE",
"350 777 OFFCURVE",
"311 780 CURVE SMOOTH",
"274 784 OFFCURVE",
"271 727 OFFCURVE",
"254 705 CURVE SMOOTH",
"234 681 OFFCURVE",
"196 682 OFFCURVE",
"170 647 CURVE SMOOTH",
"148 618 OFFCURVE",
"150 581 OFFCURVE",
"134 558 CURVE SMOOTH",
"118 538 OFFCURVE",
"75 541 OFFCURVE",
"60 506 CURVE SMOOTH",
"36 445 OFFCURVE"
);
},
{
closed = 1;
nodes = (
"49 278 OFFCURVE",
"137 228 OFFCURVE",
"144 309 CURVE SMOOTH",
"148 358 OFFCURVE",
"168 449 OFFCURVE",
"258 449 CURVE SMOOTH",
"303 449 OFFCURVE",
"328 412 OFFCURVE",
"331 366 CURVE SMOOTH",
"339 247 OFFCURVE",
"133 163 OFFCURVE",
"178 105 CURVE SMOOTH",
"217 55 OFFCURVE",
"282 180 OFFCURVE",
"346 180 CURVE SMOOTH",
"388 180 OFFCURVE",
"424 162 OFFCURVE",
"424 112 CURVE SMOOTH",
"424 63 OFFCURVE",
"398 51 OFFCURVE",
"374 51 CURVE SMOOTH",
"346 51 OFFCURVE",
"343 73 OFFCURVE",
"321 70 CURVE SMOOTH",
"287 65 OFFCURVE",
"256 -19 OFFCURVE",
"180 -19 CURVE SMOOTH",
"113 -19 OFFCURVE",
"95 19 OFFCURVE",
"95 58 CURVE SMOOTH",
"95 102 OFFCURVE",
"127 123 OFFCURVE",
"127 149 CURVE SMOOTH",
"127 175 OFFCURVE",
"101 160 OFFCURVE",
"75 164 CURVE SMOOTH",
"48 168 OFFCURVE",
"30 188 OFFCURVE",
"36 216 CURVE SMOOTH"
);
},
{
closed = 1;
nodes = (
"222 362 OFFCURVE",
"194 286 OFFCURVE",
"215 278 CURVE SMOOTH",
"238 269 OFFCURVE",
"258 340 OFFCURVE",
"240 351 CURVE SMOOTH"
);
}
);
width = 478;
}
);
leftKerningGroup = e;
rightKerningGroup = e;
unicode = 00EA;
},
{
color = 4;
glyphname = edieresis;
lastChange = "2022-01-26 01:11:00 +0000";
layers = (
{
background = {
paths = (
{
closed = 1;
nodes = (
"195 424 OFFCURVE",
"154 341 OFFCURVE",
"220 319 CURVE SMOOTH",
"280 299 OFFCURVE",
"305 387 OFFCURVE",
"252 405 CURVE SMOOTH"
);
},
{
closed = 1;
nodes = (
"24 341 OFFCURVE",
"77 346 OFFCURVE",
"114 379 CURVE SMOOTH",
"148 409 OFFCURVE",
"152 439 OFFCURVE",
"173 461 CURVE SMOOTH",
"186 475 OFFCURVE",
"211 482 OFFCURVE",
"207 497 CURVE SMOOTH",
"203 511 OFFCURVE",
"176 497 OFFCURVE",
"159 502 CURVE SMOOTH",
"145 506 OFFCURVE",
"136 528 OFFCURVE",
"145 543 CURVE SMOOTH",
"160 569 OFFCURVE",
"208 562 OFFCURVE",
"250 585 CURVE SMOOTH",
"300 612 OFFCURVE",
"311 668 OFFCURVE",
"361 665 CURVE SMOOTH",
"407 662 OFFCURVE",
"406 602 OFFCURVE",
"370 563 CURVE SMOOTH",
"339 530 OFFCURVE",
"273 518 OFFCURVE",
"271 500 CURVE SMOOTH",
"269 484 OFFCURVE",
"305 488 OFFCURVE",
"317 460 CURVE SMOOTH",
"327 436 OFFCURVE",
"323 399 OFFCURVE",
"338 379 CURVE SMOOTH",
"357 353 OFFCURVE",
"413 350 OFFCURVE",
"413 299 CURVE SMOOTH",
"413 251 OFFCURVE",
"352 249 OFFCURVE",
"299 256 CURVE SMOOTH",
"225 266 OFFCURVE",
"132 291 OFFCURVE",
"117 247 CURVE SMOOTH",
"99 193 OFFCURVE",
"147 134 OFFCURVE",
"203 130 CURVE SMOOTH",
"262 126 OFFCURVE",
"325 197 OFFCURVE",
"366 208 CURVE SMOOTH",
"406 219 OFFCURVE",
"444 164 OFFCURVE",
"406 126 CURVE SMOOTH",
"379 99 OFFCURVE",
"331 114 OFFCURVE",
"294 86 CURVE SMOOTH",
"257 58 OFFCURVE",
"220 7 OFFCURVE",
"161 22 CURVE SMOOTH",
"104 37 OFFCURVE",
"105 91 OFFCURVE",
"74 149 CURVE SMOOTH",
"50 194 OFFCURVE",
"16 220 OFFCURVE",
"20 278 CURVE SMOOTH"
);
}
);
};
components = (
{
name = dieresis;
transform = "{1.0104, -0.1964, 0.1964, 1.0104, -35, -79}";
}
);
layerId = "A0EF8C6F-60C0-4D2A-A4F7-7A1091FA18C1";
paths = (
{
closed = 1;
nodes = (
"348 470 OFFCURVE",
"324 395 OFFCURVE",
"345 367 CURVE SMOOTH",
"369 335 OFFCURVE",
"451 324 OFFCURVE",
"428 262 CURVE SMOOTH",
"397 178 OFFCURVE",
"162 302 OFFCURVE",
"137 227 CURVE SMOOTH",
"118 171 OFFCURVE",
"178 107 OFFCURVE",
"229 109 CURVE SMOOTH",
"286 111 OFFCURVE",
"345 178 OFFCURVE",
"386 188 CURVE SMOOTH",
"435 200 OFFCURVE",
"467 137 OFFCURVE",
"428 100 CURVE SMOOTH",
"400 74 OFFCURVE",
"350 97 OFFCURVE",
"314 66 CURVE SMOOTH",
"283 39 OFFCURVE",
"241 -21 OFFCURVE",
"182 -6 CURVE SMOOTH",
"125 9 OFFCURVE",
"135 66 OFFCURVE",
"102 124 CURVE SMOOTH",
"77 168 OFFCURVE",
"30 198 OFFCURVE",
"36 252 CURVE SMOOTH",
"44 321 OFFCURVE",
"114 333 OFFCURVE",
"149 375 CURVE SMOOTH",
"182 415 OFFCURVE",
"211 482 OFFCURVE",
"276 476 CURVE SMOOTH"
);
},
{
closed = 1;
nodes = (
"210 398 OFFCURVE",
"169 315 OFFCURVE",
"234 293 CURVE SMOOTH",
"295 272 OFFCURVE",
"320 361 OFFCURVE",
"267 379 CURVE SMOOTH"
);
}
);
width = 500;
}
);
leftKerningGroup = egrave;
rightKerningGroup = egrave;
unicode = 00EB;
},
{
glyphname = egrave;
lastChange = "2022-01-21 15:04:32 +0000";
layers = (
{
layerId = "A0EF8C6F-60C0-4D2A-A4F7-7A1091FA18C1";
paths = (
{
closed = 1;
nodes = (
"206 404 OFFCURVE",
"165 321 OFFCURVE",
"231 299 CURVE SMOOTH",
"291 279 OFFCURVE",
"316 367 OFFCURVE",
"263 385 CURVE SMOOTH"
);
},
{
closed = 1;
nodes = (
"216 507 OFFCURVE",
"159 513 OFFCURVE",
"130 542 CURVE SMOOTH",
"88 584 OFFCURVE",
"86 661 OFFCURVE",
"138 665 CURVE SMOOTH",
"192 669 OFFCURVE",
"197 600 OFFCURVE",
"246 569 CURVE SMOOTH",
"280 547 OFFCURVE",
"339 549 OFFCURVE",
"354 523 CURVE SMOOTH",
"363 508 OFFCURVE",
"357 487 OFFCURVE",
"339 482 CURVE SMOOTH",
"316 476 OFFCURVE",
"284 494 OFFCURVE",
"282 480 CURVE SMOOTH",
"280 464 OFFCURVE",
"316 468 OFFCURVE",
"328 440 CURVE SMOOTH",
"338 416 OFFCURVE",
"334 379 OFFCURVE",
"349 359 CURVE SMOOTH",
"368 333 OFFCURVE",
"424 330 OFFCURVE",
"424 279 CURVE SMOOTH",
"424 231 OFFCURVE",
"363 229 OFFCURVE",
"310 236 CURVE SMOOTH",
"236 246 OFFCURVE",
"153 271 OFFCURVE",
"138 227 CURVE SMOOTH",
"120 173 OFFCURVE",
"178 124 OFFCURVE",
"234 120 CURVE SMOOTH",
"293 116 OFFCURVE",
"356 177 OFFCURVE",
"397 188 CURVE SMOOTH",
"437 199 OFFCURVE",
"475 144 OFFCURVE",
"437 106 CURVE SMOOTH",
"410 79 OFFCURVE",
"362 94 OFFCURVE",
"325 66 CURVE SMOOTH",
"288 38 OFFCURVE",
"251 -23 OFFCURVE",
"192 -8 CURVE SMOOTH",
"135 7 OFFCURVE",
"138 72 OFFCURVE",
"105 129 CURVE SMOOTH",
"79 174 OFFCURVE",
"27 200 OFFCURVE",
"31 258 CURVE SMOOTH",
"35 321 OFFCURVE",
"88 326 OFFCURVE",
"125 359 CURVE SMOOTH",
"159 389 OFFCURVE",
"164 417 OFFCURVE",
"184 441 CURVE SMOOTH",
"201 461 OFFCURVE",
"219 466 OFFCURVE",
"218 485 CURVE SMOOTH"
);
}
);
width = 493;
}
);
leftKerningGroup = egrave;
rightKerningGroup = egrave;
unicode = 00E8;
},
{
glyphname = f;
lastChange = "2022-01-26 02:22:57 +0000";
layers = (
{
layerId = "A0EF8C6F-60C0-4D2A-A4F7-7A1091FA18C1";
paths = (
{
closed = 1;
nodes = (
"261 -40 OFFCURVE",
"268 -22 OFFCURVE",
"296 -8 CURVE SMOOTH",
"323 5 OFFCURVE",
"357 2 OFFCURVE",
"381 11 CURVE SMOOTH",
"421 27 OFFCURVE",
"428 100 OFFCURVE",
"363 95 CURVE SMOOTH",
"326 92 OFFCURVE",
"283 57 OFFCURVE",
"269 79 CURVE SMOOTH",
"254 101 OFFCURVE",
"277 118 OFFCURVE",
"278 146 CURVE SMOOTH",
"279 169 OFFCURVE",
"271 176 OFFCURVE",
"271 204 CURVE SMOOTH",
"271 232 OFFCURVE",
"294 237 OFFCURVE",
"298 265 CURVE SMOOTH",
"302 290 OFFCURVE",
"274 319 OFFCURVE",
"293 338 CURVE SMOOTH",
"313 358 OFFCURVE",
"355 334 OFFCURVE",
"395 334 CURVE SMOOTH",
"465 334 OFFCURVE",
"477 433 OFFCURVE",
"416 442 CURVE SMOOTH",
"383 446 OFFCURVE",
"334 400 OFFCURVE",
"324 442 CURVE SMOOTH",
"310 487 OFFCURVE",
"353 491 OFFCURVE",
"364 534 CURVE SMOOTH",
"373 571 OFFCURVE",
"349 636 OFFCURVE",
"390 644 CURVE SMOOTH",
"446 655 OFFCURVE",
"417 541 OFFCURVE",
"444 506 CURVE SMOOTH",
"478 462 OFFCURVE",
"545 509 OFFCURVE",
"538 564 CURVE SMOOTH",
"532 603 OFFCURVE",
"503 597 OFFCURVE",
"495 630 CURVE SMOOTH",
"487 665 OFFCURVE",
"495 696 OFFCURVE",
"465 712 CURVE SMOOTH",
"435 726 OFFCURVE",
"414 704 OFFCURVE",
"390 699 CURVE SMOOTH",
"366 696 OFFCURVE",
"344 709 OFFCURVE",
"314 687 CURVE SMOOTH",
"270 655 OFFCURVE",
"290 599 OFFCURVE",
"279 564 CURVE SMOOTH",
"270 537 OFFCURVE",
"244 534 OFFCURVE",
"236 506 CURVE SMOOTH",
"225 468 OFFCURVE",
"257 427 OFFCURVE",
"234 404 CURVE SMOOTH",
"216 385 OFFCURVE",
"181 405 OFFCURVE",
"139 394 CURVE SMOOTH",
"96 383 OFFCURVE",
"82 316 OFFCURVE",
"134 306 CURVE SMOOTH",
"166 300 OFFCURVE",
"205 323 OFFCURVE",
"216 296 CURVE SMOOTH",
"231 257 OFFCURVE",
"185 220 OFFCURVE",
"184 179 CURVE SMOOTH",
"182 136 OFFCURVE",
"203 94 OFFCURVE",
"185 57 CURVE SMOOTH",
"166 16 OFFCURVE",
"112 31 OFFCURVE",
"83 19 CURVE SMOOTH",
"30 -1 OFFCURVE",
"32 -84 OFFCURVE",
"71 -85 CURVE SMOOTH",
"99 -86 OFFCURVE",
"115 -61 OFFCURVE",
"140 -57 CURVE SMOOTH",
"178 -51 OFFCURVE",
"190 -70 OFFCURVE",
"224 -56 CURVE SMOOTH"
);
}
);
width = 567;
}
);
leftKerningGroup = f;
rightKerningGroup = f;
unicode = 0066;
},
{
glyphname = g;
lastChange = "2022-01-26 02:00:13 +0000";
layers = (
{
layerId = "A0EF8C6F-60C0-4D2A-A4F7-7A1091FA18C1";
paths = (
{
closed = 1;
nodes = (
"338 505 OFFCURVE",
"351 468 OFFCURVE",
"381 452 CURVE SMOOTH",
"412 435 OFFCURVE",
"458 443 OFFCURVE",
"458 493 CURVE SMOOTH",
"458 536 OFFCURVE",
"462 573 OFFCURVE",
"501 573 CURVE SMOOTH",
"539 573 OFFCURVE",
"556 527 OFFCURVE",
"556 493 CURVE SMOOTH",
"556 410 OFFCURVE",
"490 425 OFFCURVE",
"478 378 CURVE SMOOTH",
"470 347 OFFCURVE",
"491 311 OFFCURVE",
"474 284 CURVE SMOOTH",
"457 258 OFFCURVE",
"432 270 OFFCURVE",
"414 259 CURVE SMOOTH",
"392 245 OFFCURVE",
"385 213 OFFCURVE",
"351 205 CURVE SMOOTH",
"319 197 OFFCURVE",
"275 224 OFFCURVE",
"240 226 CURVE SMOOTH",
"211 228 OFFCURVE",
"176 212 OFFCURVE",
"172 179 CURVE SMOOTH",
"169 145 OFFCURVE",
"201 114 OFFCURVE",
"240 108 CURVE SMOOTH",
"295 100 OFFCURVE",
"318 140 OFFCURVE",
"364 128 CURVE SMOOTH",
"400 119 OFFCURVE",
"400 89 OFFCURVE",
"428 60 CURVE SMOOTH",
"454 33 OFFCURVE",
"497 21 OFFCURVE",
"489 -43 CURVE SMOOTH",
"481 -110 OFFCURVE",
"427 -111 OFFCURVE",
"375 -141 CURVE SMOOTH",
"339 -162 OFFCURVE",
"325 -193 OFFCURVE",
"276 -194 CURVE SMOOTH",
"237 -195 OFFCURVE",
"191 -172 OFFCURVE",
"150 -155 CURVE SMOOTH",
"107 -137 OFFCURVE",
"57 -136 OFFCURVE",
"41 -75 CURVE SMOOTH",
"22 -4 OFFCURVE",
"117 44 OFFCURVE",
"121 95 CURVE SMOOTH",
"124 133 OFFCURVE",
"84 150 OFFCURVE",
"88 194 CURVE SMOOTH",
"93 244 OFFCURVE",
"161 245 OFFCURVE",
"166 282 CURVE SMOOTH",
"170 318 OFFCURVE",
"112 352 OFFCURVE",
"144 403 CURVE SMOOTH",
"176 454 OFFCURVE",
"201 423 OFFCURVE",
"231 453 CURVE SMOOTH",
"260 483 OFFCURVE",
"263 505 OFFCURVE",
"303 505 CURVE SMOOTH"
);
},
{
closed = 1;
nodes = (
"295 414 OFFCURVE",
"288 397 OFFCURVE",
"274 386 CURVE SMOOTH",
"259 375 OFFCURVE",
"239 371 OFFCURVE",
"226 345 CURVE SMOOTH",
"212 317 OFFCURVE",
"234 287 OFFCURVE",
"266 288 CURVE SMOOTH",
"293 289 OFFCURVE",
"310 310 OFFCURVE",
"333 317 CURVE SMOOTH",
"356 324 OFFCURVE",
"364 311 OFFCURVE",
"386 321 CURVE SMOOTH",
"408 331 OFFCURVE",
"416 364 OFFCURVE",
"401 376 CURVE SMOOTH",
"387 390 OFFCURVE",
"367 374 OFFCURVE",
"348 379 CURVE SMOOTH",
"331 385 OFFCURVE",
"331 412 OFFCURVE",
"312 413 CURVE SMOOTH"
);
},
{
closed = 1;
nodes = (
"127 22 OFFCURVE",
"132 -89 OFFCURVE",
"178 -101 CURVE SMOOTH",
"216 -112 OFFCURVE",
"236 -87 OFFCURVE",
"270 -81 CURVE SMOOTH",
"302 -75 OFFCURVE",
"317 -89 OFFCURVE",
"348 -81 CURVE SMOOTH",
"391 -70 OFFCURVE",
"403 -19 OFFCURVE",
"376 5 CURVE SMOOTH",
"356 23 OFFCURVE",
"331 7 OFFCURVE",
"301 16 CURVE SMOOTH",
"277 24 OFFCURVE",
"245 66 OFFCURVE",
"190 46 CURVE SMOOTH"
);
}
);
width = 586;
}
);
leftKerningGroup = g;
rightKerningGroup = g;
unicode = 0067;
},
{
glyphname = h;
lastChange = "2022-01-26 02:23:05 +0000";
layers = (
{
guideLines = (
{
position = "{229, -81}";
}
);
layerId = "A0EF8C6F-60C0-4D2A-A4F7-7A1091FA18C1";
paths = (
{
closed = 1;
nodes = (
"318 687 OFFCURVE",
"339 733 OFFCURVE",
"377 732 CURVE SMOOTH",
"407 731 OFFCURVE",
"410 708 OFFCURVE",
"421 691 CURVE SMOOTH",
"431 676 OFFCURVE",
"450 668 OFFCURVE",
"448 641 CURVE SMOOTH",
"446 609 OFFCURVE",
"406 598 OFFCURVE",
"389 562 CURVE SMOOTH",
"374 531 OFFCURVE",
"394 490 OFFCURVE",
"377 458 CURVE SMOOTH",
"362 430 OFFCURVE",
"312 372 OFFCURVE",
"340 346 CURVE SMOOTH",
"370 318 OFFCURVE",
"405 370 OFFCURVE",
"443 394 CURVE SMOOTH",
"482 418 OFFCURVE",
"537 388 OFFCURVE",
"520 334 CURVE SMOOTH",
"503 280 OFFCURVE",
"473 271 OFFCURVE",
"470 233 CURVE SMOOTH",
"468 209 OFFCURVE",
"478 200 OFFCURVE",
"477 180 CURVE SMOOTH",
"476 159 OFFCURVE",
"455 111 OFFCURVE",
"475 107 CURVE SMOOTH",
"499 102 OFFCURVE",
"517 141 OFFCURVE",
"548 144 CURVE SMOOTH",
"583 147 OFFCURVE",
"594 97 OFFCURVE",
"575 71 CURVE SMOOTH",
"562 53 OFFCURVE",
"545 54 OFFCURVE",
"531 44 CURVE SMOOTH",
"517 34 OFFCURVE",
"509 15 OFFCURVE",
"492 10 CURVE SMOOTH",
"473 4 OFFCURVE",
"454 14 OFFCURVE",
"432 12 CURVE SMOOTH",
"413 10 OFFCURVE",
"395 -7 OFFCURVE",
"373 -9 CURVE SMOOTH",
"343 -12 OFFCURVE",
"316 30 OFFCURVE",
"351 59 CURVE SMOOTH",
"372 77 OFFCURVE",
"393 76 OFFCURVE",
"400 107 CURVE SMOOTH",
"406 134 OFFCURVE",
"392 174 OFFCURVE",
"395 197 CURVE SMOOTH",
"398 221 OFFCURVE",
"443 270 OFFCURVE",
"424 282 CURVE SMOOTH",
"406 293 OFFCURVE",
"389 244 OFFCURVE",
"360 243 CURVE SMOOTH",
"336 242 OFFCURVE",
"317 272 OFFCURVE",
"294 260 CURVE SMOOTH",
"257 241 OFFCURVE",
"293 201 OFFCURVE",
"280 168 CURVE SMOOTH",
"271 145 OFFCURVE",
"241 131 OFFCURVE",
"247 107 CURVE SMOOTH",
"254 80 OFFCURVE",
"313 102 OFFCURVE",
"308 49 CURVE SMOOTH",
"303 0 OFFCURVE",
"238 4 OFFCURVE",
"202 -12 CURVE SMOOTH",
"167 -28 OFFCURVE",
"141 -68 OFFCURVE",
"93 -71 CURVE SMOOTH",
"38 -74 OFFCURVE",
"15 -4 OFFCURVE",
"67 30 CURVE SMOOTH",
"99 51 OFFCURVE",
"129 39 OFFCURVE",
"154 56 CURVE SMOOTH",
"172 71 OFFCURVE",
"196 113 OFFCURVE",
"198 182 CURVE SMOOTH",
"199 213 OFFCURVE",
"179 251 OFFCURVE",
"202 294 CURVE SMOOTH",
"226 338 OFFCURVE",
"237 329 OFFCURVE",
"261 375 CURVE SMOOTH",
"280 411 OFFCURVE",
"265 445 OFFCURVE",
"275 478 CURVE SMOOTH",
"285 512 OFFCURVE",
"317 519 OFFCURVE",
"333 569 CURVE SMOOTH",
"348 616 OFFCURVE",
"313 616 OFFCURVE",
"290 597 CURVE SMOOTH",
"267 578 OFFCURVE",
"245 525 OFFCURVE",
"201 525 CURVE SMOOTH",
"157 525 OFFCURVE",
"127 591 OFFCURVE",
"183 630 CURVE SMOOTH",
"210 649 OFFCURVE",
"253 642 OFFCURVE",
"279 660 CURVE SMOOTH"
);
}
);
width = 634;
}
);
unicode = 0068;
},
{
glyphname = i;
lastChange = "2022-01-26 02:23:12 +0000";
layers = (
{
layerId = "A0EF8C6F-60C0-4D2A-A4F7-7A1091FA18C1";
paths = (
{
closed = 1;
nodes = (
"179 547 OFFCURVE",
"204 552 OFFCURVE",
"225 572 CURVE SMOOTH",
"241 587 OFFCURVE",
"241 618 OFFCURVE",
"274 615 CURVE SMOOTH",
"307 612 OFFCURVE",
"304 577 OFFCURVE",
"313 558 CURVE SMOOTH",
"322 539 OFFCURVE",
"341 526 OFFCURVE",
"339 492 CURVE SMOOTH",
"337 461 OFFCURVE",
"302 442 OFFCURVE",
"271 445 CURVE SMOOTH",
"236 448 OFFCURVE",
"227 408 OFFCURVE",
"245 388 CURVE SMOOTH",
"257 374 OFFCURVE",
"280 386 OFFCURVE",
"291 363 CURVE SMOOTH",
"304 335 OFFCURVE",
"267 306 OFFCURVE",
"262 278 CURVE SMOOTH",
"255 243 OFFCURVE",
"268 228 OFFCURVE",
"266 204 CURVE SMOOTH",
"263 164 OFFCURVE",
"208 121 OFFCURVE",
"227 88 CURVE SMOOTH",
"243 61 OFFCURVE",
"312 79 OFFCURVE",
"312 34 CURVE SMOOTH",
"312 0 OFFCURVE",
"276 -13 OFFCURVE",
"239 -9 CURVE SMOOTH",
"206 -5 OFFCURVE",
"175 10 OFFCURVE",
"148 4 CURVE SMOOTH",
"117 -4 OFFCURVE",
"114 -28 OFFCURVE",
"77 -32 CURVE SMOOTH",
"44 -35 OFFCURVE",
"25 2 OFFCURVE",
"45 27 CURVE SMOOTH",
"82 74 OFFCURVE",
"126 54 OFFCURVE",
"143 89 CURVE SMOOTH",
"163 129 OFFCURVE",
"145 171 OFFCURVE",
"152 207 CURVE SMOOTH",
"160 247 OFFCURVE",
"189 261 OFFCURVE",
"205 288 CURVE SMOOTH",
"218 310 OFFCURVE",
"213 336 OFFCURVE",
"193 333 CURVE SMOOTH",
"163 328 OFFCURVE",
"148 296 OFFCURVE",
"112 296 CURVE SMOOTH",
"73 296 OFFCURVE",
"60 342 OFFCURVE",
"85 365 CURVE SMOOTH",
"120 398 OFFCURVE",
"185 387 OFFCURVE",
"198 440 CURVE SMOOTH",
"207 476 OFFCURVE",
"170 485 OFFCURVE",
"175 518 CURVE SMOOTH"
);
}
);
width = 384;
}
);
leftKerningGroup = i;
rightKerningGroup = i;
unicode = 0069;
},
{
color = 4;
glyphname = idotless;
lastChange = "2022-01-26 01:11:52 +0000";
layers = (
{
layerId = "A0EF8C6F-60C0-4D2A-A4F7-7A1091FA18C1";
paths = (
{
closed = 1;
nodes = (
"359 422 OFFCURVE",
"378 341 OFFCURVE",
"361 296 CURVE SMOOTH",
"344 250 OFFCURVE",
"282 212 OFFCURVE",
"287 123 CURVE SMOOTH",
"289 87 OFFCURVE",
"314 75 OFFCURVE",
"342 83 CURVE SMOOTH",
"370 91 OFFCURVE",
"400 80 OFFCURVE",
"400 47 CURVE SMOOTH",
"400 13 OFFCURVE",
"355 -18 OFFCURVE",
"309 -22 CURVE SMOOTH",
"254 -27 OFFCURVE",
"236 4 OFFCURVE",
"186 2 CURVE SMOOTH",
"133 0 OFFCURVE",
"117 -43 OFFCURVE",
"77 -43 CURVE SMOOTH",
"20 -43 OFFCURVE",
"30 48 OFFCURVE",
"101 58 CURVE SMOOTH",
"136 63 OFFCURVE",
"156 46 OFFCURVE",
"198 72 CURVE SMOOTH",
"229 91 OFFCURVE",
"204 128 OFFCURVE",
"207 169 CURVE SMOOTH",
"210 210 OFFCURVE",
"268 237 OFFCURVE",
"252 264 CURVE SMOOTH",
"236 291 OFFCURVE",
"185 221 OFFCURVE",
"144 221 CURVE SMOOTH",
"104 221 OFFCURVE",
"95 276 OFFCURVE",
"135 313 CURVE SMOOTH",
"166 342 OFFCURVE",
"198 325 OFFCURVE",
"230 341 CURVE SMOOTH",
"260 356 OFFCURVE",
"262 418 OFFCURVE",
"308 420 CURVE SMOOTH"
);
}
);
width = 489;
}
);
leftKerningGroup = idieresis;
rightKerningGroup = idieresis;
unicode = 0131;
},
{
color = 4;
glyphname = icircumflex;
lastChange = "2022-01-25 18:16:43 +0000";
layers = (
{
background = {
paths = (
{
closed = 1;
nodes = (
"230 424 OFFCURVE",
"260 459 OFFCURVE",
"264 483 CURVE SMOOTH",
"268 506 OFFCURVE",
"293 503 OFFCURVE",
"299 523 CURVE SMOOTH",
"305 543 OFFCURVE",
"292 563 OFFCURVE",
"301 579 CURVE SMOOTH",
"310 595 OFFCURVE",
"320 591 OFFCURVE",
"335 609 CURVE SMOOTH",
"351 628 OFFCURVE",
"339 690 OFFCURVE",
"368 691 CURVE SMOOTH",
"401 692 OFFCURVE",
"364 620 OFFCURVE",
"365 596 CURVE SMOOTH",
"366 574 OFFCURVE",
"377 564 OFFCURVE",
"373 538 CURVE SMOOTH",
"368 507 OFFCURVE",
"361 449 OFFCURVE",
"407 445 CURVE SMOOTH",
"439 442 OFFCURVE",
"459 472 OFFCURVE",
"456 497 CURVE SMOOTH",
"453 524 OFFCURVE",
"433 530 OFFCURVE",
"431 545 CURVE SMOOTH",
"429 557 OFFCURVE",
"441 560 OFFCURVE",
"441 573 CURVE SMOOTH",
"441 582 OFFCURVE",
"435 586 OFFCURVE",
"436 597 CURVE SMOOTH",
"437 609 OFFCURVE",
"447 616 OFFCURVE",
"447 646 CURVE SMOOTH",
"447 675 OFFCURVE",
"427 677 OFFCURVE",
"422 701 CURVE SMOOTH",
"416 730 OFFCURVE",
"435 804 OFFCURVE",
"382 803 CURVE SMOOTH",
"327 802 OFFCURVE",
"335 740 OFFCURVE",
"312 715 CURVE SMOOTH",
"296 697 OFFCURVE",
"284 701 OFFCURVE",
"272 684 CURVE SMOOTH",
"256 661 OFFCURVE",
"273 637 OFFCURVE",
"259 615 CURVE SMOOTH",
"245 592 OFFCURVE",
"226 581 OFFCURVE",
"206 553 CURVE SMOOTH",
"186 525 OFFCURVE",
"163 455 OFFCURVE",
"198 439 CURVE SMOOTH"
);
}
);
};
layerId = "A0EF8C6F-60C0-4D2A-A4F7-7A1091FA18C1";
paths = (
{
closed = 1;
nodes = (
"359 422 OFFCURVE",
"378 341 OFFCURVE",
"361 296 CURVE SMOOTH",
"344 250 OFFCURVE",
"282 212 OFFCURVE",
"287 123 CURVE SMOOTH",
"289 87 OFFCURVE",
"314 75 OFFCURVE",
"342 83 CURVE SMOOTH",
"370 91 OFFCURVE",
"400 80 OFFCURVE",
"400 47 CURVE SMOOTH",
"400 13 OFFCURVE",
"355 -18 OFFCURVE",
"309 -22 CURVE SMOOTH",
"254 -27 OFFCURVE",
"236 4 OFFCURVE",
"186 2 CURVE SMOOTH",
"133 0 OFFCURVE",
"117 -43 OFFCURVE",
"77 -43 CURVE SMOOTH",
"20 -43 OFFCURVE",
"30 48 OFFCURVE",
"101 58 CURVE SMOOTH",
"136 63 OFFCURVE",
"156 46 OFFCURVE",
"198 72 CURVE SMOOTH",
"229 91 OFFCURVE",
"204 128 OFFCURVE",
"207 169 CURVE SMOOTH",
"210 210 OFFCURVE",
"268 237 OFFCURVE",
"252 264 CURVE SMOOTH",
"236 291 OFFCURVE",
"185 221 OFFCURVE",
"144 221 CURVE SMOOTH",
"104 221 OFFCURVE",
"95 276 OFFCURVE",
"135 313 CURVE SMOOTH",
"166 342 OFFCURVE",
"198 325 OFFCURVE",
"230 341 CURVE SMOOTH",
"260 356 OFFCURVE",
"262 418 OFFCURVE",
"308 420 CURVE SMOOTH"
);
},
{
closed = 1;
nodes = (
"117 419 OFFCURVE",
"191 377 OFFCURVE",
"230 427 CURVE SMOOTH",
"248 451 OFFCURVE",
"249 483 OFFCURVE",
"260 510 CURVE SMOOTH",
"274 545 OFFCURVE",
"302 555 OFFCURVE",
"316 583 CURVE SMOOTH",
"327 607 OFFCURVE",
"329 648 OFFCURVE",
"357 646 CURVE SMOOTH",
"399 643 OFFCURVE",
"368 515 OFFCURVE",
"386 466 CURVE SMOOTH",
"415 391 OFFCURVE",
"506 420 OFFCURVE",
"490 484 CURVE SMOOTH",
"482 515 OFFCURVE",
"461 518 OFFCURVE",
"455 544 CURVE SMOOTH",
"449 570 OFFCURVE",
"461 614 OFFCURVE",
"445 641 CURVE SMOOTH",
"431 664 OFFCURVE",
"418 664 OFFCURVE",
"407 688 CURVE SMOOTH",
"397 715 OFFCURVE",
"400 768 OFFCURVE",
"363 769 CURVE SMOOTH",
"327 770 OFFCURVE",
"324 713 OFFCURVE",
"307 690 CURVE SMOOTH",
"289 665 OFFCURVE",
"246 669 OFFCURVE",
"227 630 CURVE SMOOTH",
"210 594 OFFCURVE",
"222 559 OFFCURVE",
"209 532 CURVE SMOOTH",
"198 509 OFFCURVE",
"159 514 OFFCURVE",
"143 478 CURVE SMOOTH"
);
}
);
width = 506;
}
);
leftKerningGroup = idieresis;
rightKerningGroup = idieresis;
unicode = 00EE;
},
{
color = 4;
glyphname = idieresis;
lastChange = "2022-01-26 01:43:14 +0000";
layers = (
{
components = (
{
name = dieresis;
transform = "{1.03405, -0.18233, 0.18233, 1.03405, 9, -86}";
}
);
layerId = "A0EF8C6F-60C0-4D2A-A4F7-7A1091FA18C1";
paths = (
{
closed = 1;
nodes = (
"359 430 OFFCURVE",
"378 349 OFFCURVE",
"361 304 CURVE SMOOTH",
"344 258 OFFCURVE",
"282 220 OFFCURVE",
"287 131 CURVE SMOOTH",
"289 95 OFFCURVE",
"314 83 OFFCURVE",
"342 91 CURVE SMOOTH",
"370 99 OFFCURVE",
"400 88 OFFCURVE",
"400 55 CURVE SMOOTH",
"400 21 OFFCURVE",
"355 -10 OFFCURVE",
"309 -14 CURVE SMOOTH",
"254 -19 OFFCURVE",
"236 12 OFFCURVE",
"186 10 CURVE SMOOTH",
"133 8 OFFCURVE",
"117 -35 OFFCURVE",
"77 -35 CURVE SMOOTH",
"20 -35 OFFCURVE",
"30 56 OFFCURVE",
"101 66 CURVE SMOOTH",
"136 71 OFFCURVE",
"156 54 OFFCURVE",
"198 80 CURVE SMOOTH",
"229 99 OFFCURVE",
"204 136 OFFCURVE",
"207 177 CURVE SMOOTH",
"210 218 OFFCURVE",
"268 245 OFFCURVE",
"252 272 CURVE SMOOTH",
"236 299 OFFCURVE",
"185 229 OFFCURVE",
"144 229 CURVE SMOOTH",
"104 229 OFFCURVE",
"95 284 OFFCURVE",
"135 321 CURVE SMOOTH",
"166 350 OFFCURVE",
"198 333 OFFCURVE",
"230 349 CURVE SMOOTH",
"260 364 OFFCURVE",
"262 426 OFFCURVE",
"308 428 CURVE SMOOTH"
);
}
);
width = 497;
}
);
leftKerningGroup = idieresis;
rightKerningGroup = idieresis;
unicode = 00EF;
},
{
glyphname = j;
lastChange = "2022-01-26 02:23:30 +0000";
layers = (
{
components = (
{
name = jdotless;
}
);
layerId = "A0EF8C6F-60C0-4D2A-A4F7-7A1091FA18C1";
paths = (
{
closed = 1;
nodes = (
"397 575 OFFCURVE",
"415 604 OFFCURVE",
"452 595 CURVE SMOOTH",
"498 585 OFFCURVE",
"511 490 OFFCURVE",
"416 459 CURVE SMOOTH",
"354 440 OFFCURVE",
"302 473 OFFCURVE",
"302 510 CURVE SMOOTH",
"302 532 OFFCURVE",
"313 551 OFFCURVE",
"328 556 CURVE SMOOTH",
"347 562 OFFCURVE",
"360 555 OFFCURVE",
"379 565 CURVE SMOOTH"
);
}
);
width = 512;
}
);
unicode = 006A;
},
{
color = 4;
glyphname = jdotless;
lastChange = "2022-01-26 02:23:37 +0000";
layers = (
{
layerId = "A0EF8C6F-60C0-4D2A-A4F7-7A1091FA18C1";
paths = (
{
closed = 1;
nodes = (
"421 419 OFFCURVE",
"441 388 OFFCURVE",
"441 360 CURVE SMOOTH",
"441 310 OFFCURVE",
"391 273 OFFCURVE",
"388 222 CURVE SMOOTH",
"386 186 OFFCURVE",
"402 149 OFFCURVE",
"388 93 CURVE SMOOTH",
"375 42 OFFCURVE",
"354 15 OFFCURVE",
"339 -44 CURVE SMOOTH",
"328 -86 OFFCURVE",
"343 -136 OFFCURVE",
"313 -170 CURVE SMOOTH",
"289 -198 OFFCURVE",
"267 -190 OFFCURVE",
"243 -205 CURVE SMOOTH",
"215 -222 OFFCURVE",
"200 -268 OFFCURVE",
"156 -261 CURVE SMOOTH",
"120 -255 OFFCURVE",
"117 -220 OFFCURVE",
"98 -198 CURVE SMOOTH",
"76 -172 OFFCURVE",
"35 -167 OFFCURVE",
"35 -110 CURVE SMOOTH",
"35 -51 OFFCURVE",
"73 1 OFFCURVE",
"112 2 CURVE SMOOTH",
"160 3 OFFCURVE",
"167 -36 OFFCURVE",
"157 -65 CURVE SMOOTH",
"147 -94 OFFCURVE",
"112 -122 OFFCURVE",
"142 -150 CURVE SMOOTH",
"169 -175 OFFCURVE",
"196 -127 OFFCURVE",
"217 -109 CURVE SMOOTH",
"237 -92 OFFCURVE",
"267 -89 OFFCURVE",
"277 -53 CURVE SMOOTH",
"290 -7 OFFCURVE",
"258 55 OFFCURVE",
"272 118 CURVE SMOOTH",
"287 187 OFFCURVE",
"364 250 OFFCURVE",
"319 277 CURVE SMOOTH",
"276 303 OFFCURVE",
"235 214 OFFCURVE",
"183 208 CURVE SMOOTH",
"129 202 OFFCURVE",
"112 261 OFFCURVE",
"138 297 CURVE SMOOTH",
"170 341 OFFCURVE",
"219 317 OFFCURVE",
"266 343 CURVE SMOOTH",
"303 364 OFFCURVE",
"341 417 OFFCURVE",
"386 418 CURVE SMOOTH"
);
}
);
width = 512;
}
);
unicode = 0237;
},
{
glyphname = k;
lastChange = "2022-01-26 02:23:43 +0000";
layers = (
{
layerId = "A0EF8C6F-60C0-4D2A-A4F7-7A1091FA18C1";
paths = (
{
closed = 1;
nodes = (
"250 715 OFFCURVE",
"257 750 OFFCURVE",
"296 753 CURVE SMOOTH",
"328 755 OFFCURVE",
"343 729 OFFCURVE",
"340 700 CURVE SMOOTH",
"337 669 OFFCURVE",
"311 658 OFFCURVE",
"311 636 CURVE SMOOTH",
"311 612 OFFCURVE",
"328 602 OFFCURVE",
"328 565 CURVE SMOOTH",
"328 505 OFFCURVE",
"277 468 OFFCURVE",
"276 433 CURVE SMOOTH",
"275 409 OFFCURVE",
"288 389 OFFCURVE",
"312 389 CURVE SMOOTH",
"340 389 OFFCURVE",
"366 444 OFFCURVE",
"415 437 CURVE SMOOTH",
"462 430 OFFCURVE",
"441 384 OFFCURVE",
"453 364 CURVE SMOOTH",
"465 343 OFFCURVE",
"503 343 OFFCURVE",
"503 292 CURVE SMOOTH",
"503 263 OFFCURVE",
"461 227 OFFCURVE",
"429 227 CURVE SMOOTH",
"396 227 OFFCURVE",
"372 246 OFFCURVE",
"343 244 CURVE SMOOTH",
"314 242 OFFCURVE",
"285 220 OFFCURVE",
"293 199 CURVE SMOOTH",
"305 167 OFFCURVE",
"373 180 OFFCURVE",
"410 157 CURVE SMOOTH",
"445 136 OFFCURVE",
"454 90 OFFCURVE",
"497 93 CURVE SMOOTH",
"548 97 OFFCURVE",
"521 162 OFFCURVE",
"563 185 CURVE SMOOTH",
"591 200 OFFCURVE",
"629 166 OFFCURVE",
"618 124 CURVE SMOOTH",
"604 66 OFFCURVE",
"553 -6 OFFCURVE",
"511 -7 CURVE SMOOTH",
"480 -8 OFFCURVE",
"465 13 OFFCURVE",
"448 19 CURVE SMOOTH",
"424 28 OFFCURVE",
"399 22 OFFCURVE",
"370 41 CURVE SMOOTH",
"328 68 OFFCURVE",
"337 132 OFFCURVE",
"288 135 CURVE SMOOTH",
"254 137 OFFCURVE",
"227 120 OFFCURVE",
"227 83 CURVE SMOOTH",
"227 60 OFFCURVE",
"242 31 OFFCURVE",
"275 31 CURVE SMOOTH",
"307 31 OFFCURVE",
"330 18 OFFCURVE",
"333 -11 CURVE SMOOTH",
"336 -41 OFFCURVE",
"302 -67 OFFCURVE",
"260 -67 CURVE SMOOTH",
"221 -67 OFFCURVE",
"205 -52 OFFCURVE",
"172 -60 CURVE SMOOTH",
"140 -68 OFFCURVE",
"109 -97 OFFCURVE",
"73 -91 CURVE SMOOTH",
"42 -85 OFFCURVE",
"25 -31 OFFCURVE",
"68 -7 CURVE SMOOTH",
"92 7 OFFCURVE",
"138 12 OFFCURVE",
"148 35 CURVE SMOOTH",
"158 58 OFFCURVE",
"138 90 OFFCURVE",
"146 113 CURVE SMOOTH",
"156 141 OFFCURVE",
"177 152 OFFCURVE",
"181 183 CURVE SMOOTH",
"184 206 OFFCURVE",
"173 225 OFFCURVE",
"176 254 CURVE SMOOTH",
"180 294 OFFCURVE",
"208 309 OFFCURVE",
"209 353 CURVE SMOOTH",
"210 397 OFFCURVE",
"198 436 OFFCURVE",
"202 473 CURVE SMOOTH",
"206 510 OFFCURVE",
"244 550 OFFCURVE",
"246 583 CURVE SMOOTH",
"248 610 OFFCURVE",
"228 620 OFFCURVE",
"209 607 CURVE SMOOTH",
"187 592 OFFCURVE",
"172 546 OFFCURVE",
"124 550 CURVE SMOOTH",
"76 554 OFFCURVE",
"87 629 OFFCURVE",
"128 657 CURVE SMOOTH",
"156 676 OFFCURVE",
"178 672 OFFCURVE",
"212 692 CURVE SMOOTH"
);
},
{
closed = 1;
nodes = (
"319 337 OFFCURVE",
"305 347 OFFCURVE",
"287 332 CURVE SMOOTH",
"271 318 OFFCURVE",
"251 291 OFFCURVE",
"266 279 CURVE SMOOTH",
"282 266 OFFCURVE",
"300 291 OFFCURVE",
"325 294 CURVE SMOOTH",
"362 298 OFFCURVE",
"383 281 OFFCURVE",
"394 313 CURVE SMOOTH",
"399 328 OFFCURVE",
"398 358 OFFCURVE",
"383 362 CURVE SMOOTH",
"363 367 OFFCURVE",
"359 345 OFFCURVE",
"340 341 CURVE SMOOTH"
);
}
);
width = 660;
}
);
unicode = 006B;
},
{
glyphname = l;
lastChange = "2022-01-26 01:45:38 +0000";
layers = (
{
guideLines = (
{
position = "{179, -81}";
}
);
layerId = "A0EF8C6F-60C0-4D2A-A4F7-7A1091FA18C1";
paths = (
{
closed = 1;
nodes = (
"398 729 OFFCURVE",
"381 688 OFFCURVE",
"386 670 CURVE SMOOTH",
"391 651 OFFCURVE",
"409 638 OFFCURVE",
"407 610 CURVE SMOOTH",
"404 570 OFFCURVE",
"362 553 OFFCURVE",
"348 512 CURVE SMOOTH",
"340 488 OFFCURVE",
"346 469 OFFCURVE",
"338 437 CURVE SMOOTH",
"328 399 OFFCURVE",
"270 331 OFFCURVE",
"260 275 CURVE SMOOTH",
"255 246 OFFCURVE",
"267 221 OFFCURVE",
"270 197 CURVE SMOOTH",
"274 166 OFFCURVE",
"248 125 OFFCURVE",
"265 103 CURVE SMOOTH",
"280 84 OFFCURVE",
"310 114 OFFCURVE",
"344 108 CURVE SMOOTH",
"394 99 OFFCURVE",
"396 30 OFFCURVE",
"345 17 CURVE SMOOTH",
"314 9 OFFCURVE",
"292 22 OFFCURVE",
"263 15 CURVE SMOOTH",
"234 8 OFFCURVE",
"220 -6 OFFCURVE",
"197 -10 CURVE SMOOTH",
"174 -14 OFFCURVE",
"160 -7 OFFCURVE",
"139 -10 CURVE SMOOTH",
"118 -13 OFFCURVE",
"96 -39 OFFCURVE",
"62 -33 CURVE SMOOTH",
"18 -25 OFFCURVE",
"28 44 OFFCURVE",
"65 62 CURVE SMOOTH",
"96 77 OFFCURVE",
"148 65 OFFCURVE",
"168 92 CURVE SMOOTH",
"185 115 OFFCURVE",
"157 156 OFFCURVE",
"162 183 CURVE SMOOTH",
"167 210 OFFCURVE",
"190 214 OFFCURVE",
"197 240 CURVE SMOOTH",
"209 286 OFFCURVE",
"194 326 OFFCURVE",
"202 372 CURVE SMOOTH",
"210 417 OFFCURVE",
"276 513 OFFCURVE",
"297 549 CURVE SMOOTH",
"318 585 OFFCURVE",
"294 628 OFFCURVE",
"269 596 CURVE SMOOTH",
"243 563 OFFCURVE",
"235 536 OFFCURVE",
"213 528 CURVE SMOOTH",
"190 520 OFFCURVE",
"186 535 OFFCURVE",
"171 529 CURVE SMOOTH",
"155 523 OFFCURVE",
"146 509 OFFCURVE",
"132 514 CURVE SMOOTH",
"108 523 OFFCURVE",
"103 582 OFFCURVE",
"152 612 CURVE SMOOTH",
"193 637 OFFCURVE",
"219 633 OFFCURVE",
"248 652 CURVE SMOOTH",
"287 678 OFFCURVE",
"311 735 OFFCURVE",
"356 732 CURVE SMOOTH"
);
}
);
width = 429;
}
);
leftKerningGroup = l;
rightKerningGroup = l;
unicode = 006C;
},
{
glyphname = m;
lastChange = "2022-01-26 02:23:48 +0000";
layers = (
{
background = {
paths = (
{
closed = 1;
nodes = (
"187 476 OFFCURVE",
"178 528 OFFCURVE",
"218 528 CURVE SMOOTH",
"257 528 OFFCURVE",
"252 462 OFFCURVE",
"278 462 CURVE SMOOTH",
"297 462 OFFCURVE",
"304 488 OFFCURVE",
"332 488 CURVE SMOOTH",
"361 488 OFFCURVE",
"378 449 OFFCURVE",
"400 449 CURVE SMOOTH",
"421 449 OFFCURVE",
"432 466 OFFCURVE",
"455 462 CURVE SMOOTH",
"483 457 OFFCURVE",
"475 428 OFFCURVE",
"512 425 CURVE SMOOTH",
"562 421 OFFCURVE",
"606 493 OFFCURVE",
"672 485 CURVE SMOOTH",
"774 473 OFFCURVE",
"720 348 OFFCURVE",
"720 300 CURVE SMOOTH",
"720 263 OFFCURVE",
"757 268 OFFCURVE",
"761 231 CURVE SMOOTH",
"765 190 OFFCURVE",
"746 167 OFFCURVE",
"752 137 CURVE SMOOTH",
"759 103 OFFCURVE",
"878 103 OFFCURVE",
"857 28 CURVE SMOOTH",
"838 -39 OFFCURVE",
"755 18 OFFCURVE",
"705 18 CURVE SMOOTH",
"658 18 OFFCURVE",
"590 -32 OFFCURVE",
"577 18 CURVE SMOOTH",
"565 65 OFFCURVE",
"675 68 OFFCURVE",
"675 114 CURVE SMOOTH",
"675 220 OFFCURVE",
"644 200 OFFCURVE",
"626 257 CURVE SMOOTH",
"618 283 OFFCURVE",
"643 310 OFFCURVE",
"635 342 CURVE SMOOTH",
"619 405 OFFCURVE",
"517 377 OFFCURVE",
"517 337 CURVE SMOOTH",
"517 306 OFFCURVE",
"543 300 OFFCURVE",
"543 271 CURVE SMOOTH",
"543 238 OFFCURVE",
"532 238 OFFCURVE",
"532 211 CURVE SMOOTH",
"532 188 OFFCURVE",
"624 173 OFFCURVE",
"603 131 CURVE SMOOTH",
"583 90 OFFCURVE",
"541 134 OFFCURVE",
"500 146 CURVE SMOOTH",
"460 158 OFFCURVE",
"417 114 OFFCURVE",
"403 148 CURVE SMOOTH",
"389 182 OFFCURVE",
"440 188 OFFCURVE",
"438 265 CURVE SMOOTH",
"436 333 OFFCURVE",
"400 393 OFFCURVE",
"366 393 CURVE SMOOTH",
"345 393 OFFCURVE",
"332 366 OFFCURVE",
"334 342 CURVE SMOOTH",
"336 317 OFFCURVE",
"355 302 OFFCURVE",
"355 280 CURVE SMOOTH",
"355 257 OFFCURVE",
"334 233 OFFCURVE",
"334 203 CURVE SMOOTH",
"334 177 OFFCURVE",
"357 173 OFFCURVE",
"361 148 CURVE SMOOTH",
"365 125 OFFCURVE",
"345 120 OFFCURVE",
"345 97 CURVE SMOOTH",
"345 82 OFFCURVE",
"366 74 OFFCURVE",
"400 74 CURVE SMOOTH",
"426 74 OFFCURVE",
"449 54 OFFCURVE",
"440 30 CURVE SMOOTH",
"432 9 OFFCURVE",
"395 3 OFFCURVE",
"372 5 CURVE SMOOTH",
"338 8 OFFCURVE",
"304 26 OFFCURVE",
"278 28 CURVE SMOOTH",
"255 30 OFFCURVE",
"220 11 OFFCURVE",
"193 11 CURVE SMOOTH",
"155 11 OFFCURVE",
"137 28 OFFCURVE",
"137 60 CURVE SMOOTH",
"137 90 OFFCURVE",
"169 99 OFFCURVE",
"206 99 CURVE SMOOTH",
"255 99 OFFCURVE",
"278 120 OFFCURVE",
"278 146 CURVE SMOOTH",
"278 215 OFFCURVE",
"235 240 OFFCURVE",
"232 288 CURVE SMOOTH",
"230 325 OFFCURVE",
"264 337 OFFCURVE",
"264 377 CURVE SMOOTH",
"264 416 OFFCURVE",
"252 425 OFFCURVE",
"224 425 CURVE SMOOTH",
"195 425 OFFCURVE",
"158 385 OFFCURVE",
"112 379 CURVE SMOOTH",
"61 372 OFFCURVE",
"29 408 OFFCURVE",
"35 436 CURVE SMOOTH",
"45 483 OFFCURVE",
"115 460 OFFCURVE",
"142 466 CURVE SMOOTH"
);
}
);
};
layerId = "A0EF8C6F-60C0-4D2A-A4F7-7A1091FA18C1";
paths = (
{
closed = 1;
nodes = (
"109 382 OFFCURVE",
"78 374 OFFCURVE",
"59 355 CURVE SMOOTH",
"18 314 OFFCURVE",
"47 259 OFFCURVE",
"99 276 CURVE SMOOTH",
"138 288 OFFCURVE",
"162 343 OFFCURVE",
"191 325 CURVE SMOOTH",
"238 296 OFFCURVE",
"168 209 OFFCURVE",
"171 156 CURVE SMOOTH",
"175 92 OFFCURVE",
"229 51 OFFCURVE",
"220 -3 CURVE SMOOTH",
"215 -33 OFFCURVE",
"185 -40 OFFCURVE",
"158 -40 CURVE SMOOTH",
"96 -40 OFFCURVE",
"103 -103 OFFCURVE",
"158 -103 CURVE SMOOTH",
"187 -103 OFFCURVE",
"224 -94 OFFCURVE",
"252 -94 CURVE SMOOTH",
"280 -94 OFFCURVE",
"313 -107 OFFCURVE",
"346 -107 CURVE SMOOTH",
"414 -107 OFFCURVE",
"417 -33 OFFCURVE",
"354 -27 CURVE SMOOTH",
"323 -24 OFFCURVE",
"298 -7 OFFCURVE",
"290 21 CURVE SMOOTH",
"279 59 OFFCURVE",
"294 77 OFFCURVE",
"291 112 CURVE SMOOTH",
"288 147 OFFCURVE",
"267 158 OFFCURVE",
"263 199 CURVE SMOOTH",
"259 235 OFFCURVE",
"270 314 OFFCURVE",
"319 325 CURVE SMOOTH",
"362 335 OFFCURVE",
"387 303 OFFCURVE",
"387 260 CURVE SMOOTH",
"387 220 OFFCURVE",
"362 209 OFFCURVE",
"366 174 CURVE SMOOTH",
"370 141 OFFCURVE",
"403 138 OFFCURVE",
"406 103 CURVE SMOOTH",
"410 59 OFFCURVE",
"356 54 OFFCURVE",
"358 24 CURVE SMOOTH",
"359 8 OFFCURVE",
"375 3 OFFCURVE",
"397 6 CURVE SMOOTH",
"420 10 OFFCURVE",
"455 27 OFFCURVE",
"478 30 CURVE SMOOTH",
"498 33 OFFCURVE",
"522 29 OFFCURVE",
"540 30 CURVE SMOOTH",
"556 31 OFFCURVE",
"570 40 OFFCURVE",
"571 56 CURVE SMOOTH",
"572 73 OFFCURVE",
"561 85 OFFCURVE",
"540 88 CURVE SMOOTH",
"509 92 OFFCURVE",
"475 84 OFFCURVE",
"468 118 CURVE SMOOTH",
"460 156 OFFCURVE",
"491 171 OFFCURVE",
"487 203 CURVE SMOOTH",
"483 235 OFFCURVE",
"464 238 OFFCURVE",
"464 278 CURVE SMOOTH",
"464 322 OFFCURVE",
"496 347 OFFCURVE",
"532 347 CURVE SMOOTH",
"575 347 OFFCURVE",
"615 303 OFFCURVE",
"614 249 CURVE SMOOTH",
"613 209 OFFCURVE",
"604 192 OFFCURVE",
"570 180 CURVE SMOOTH",
"527 165 OFFCURVE",
"537 113 OFFCURVE",
"578 113 CURVE SMOOTH",
"600 113 OFFCURVE",
"624 128 OFFCURVE",
"647 124 CURVE SMOOTH",
"700 115 OFFCURVE",
"697 92 OFFCURVE",
"739 97 CURVE SMOOTH",
"793 103 OFFCURVE",
"785 174 OFFCURVE",
"743 180 CURVE SMOOTH",
"708 185 OFFCURVE",
"686 176 OFFCURVE",
"681 203 CURVE SMOOTH",
"676 229 OFFCURVE",
"704 264 OFFCURVE",
"696 317 CURVE SMOOTH",
"688 370 OFFCURVE",
"650 364 OFFCURVE",
"627 385 CURVE SMOOTH",
"604 406 OFFCURVE",
"613 455 OFFCURVE",
"562 455 CURVE SMOOTH",
"513 455 OFFCURVE",
"492 384 OFFCURVE",
"452 387 CURVE SMOOTH",
"410 390 OFFCURVE",
"413 434 OFFCURVE",
"375 434 CURVE SMOOTH",
"337 434 OFFCURVE",
"289 360 OFFCURVE",
"258 387 CURVE SMOOTH",
"227 414 OFFCURVE",
"291 492 OFFCURVE",
"240 517 CURVE SMOOTH",
"197 538 OFFCURVE",
"167 449 OFFCURVE",
"137 414 CURVE SMOOTH"
);
}
);
width = 797;
}
);
leftKerningGroup = m;
unicode = 006D;
},
{
glyphname = n;
lastChange = "2022-01-26 02:23:52 +0000";
layers = (
{
layerId = "A0EF8C6F-60C0-4D2A-A4F7-7A1091FA18C1";
paths = (
{
closed = 1;
nodes = (
"102 308 OFFCURVE",
"83 308 CURVE SMOOTH",
"45 308 OFFCURVE",
"30 352 OFFCURVE",
"56 375 CURVE SMOOTH",
"72 389 OFFCURVE",
"101 393 OFFCURVE",
"123 412 CURVE SMOOTH",
"145 431 OFFCURVE",
"141 463 OFFCURVE",
"164 486 CURVE SMOOTH",
"193 515 OFFCURVE",
"230 503 OFFCURVE",
"233 476 CURVE SMOOTH",
"236 447 OFFCURVE",
"208 426 OFFCURVE",
"227 415 CURVE SMOOTH",
"251 401 OFFCURVE",
"281 496 OFFCURVE",
"333 496 CURVE SMOOTH",
"367 496 OFFCURVE",
"372 465 OFFCURVE",
"396 447 CURVE SMOOTH",
"416 432 OFFCURVE",
"443 444 OFFCURVE",
"462 424 CURVE SMOOTH",
"506 378 OFFCURVE",
"403 302 OFFCURVE",
"403 259 CURVE SMOOTH",
"403 232 OFFCURVE",
"413 217 OFFCURVE",
"414 194 CURVE SMOOTH",
"415 171 OFFCURVE",
"405 153 OFFCURVE",
"413 138 CURVE SMOOTH",
"422 121 OFFCURVE",
"463 131 OFFCURVE",
"465 90 CURVE SMOOTH",
"467 41 OFFCURVE",
"399 47 OFFCURVE",
"367 37 CURVE SMOOTH",
"327 25 OFFCURVE",
"317 -2 OFFCURVE",
"279 -2 CURVE SMOOTH",
"244 -2 OFFCURVE",
"236 44 OFFCURVE",
"267 75 CURVE SMOOTH",
"305 113 OFFCURVE",
"328 103 OFFCURVE",
"335 143 CURVE SMOOTH",
"342 183 OFFCURVE",
"322 218 OFFCURVE",
"324 254 CURVE SMOOTH",
"326 290 OFFCURVE",
"363 326 OFFCURVE",
"353 365 CURVE SMOOTH",
"343 404 OFFCURVE",
"291 404 OFFCURVE",
"255 352 CURVE SMOOTH",
"230 316 OFFCURVE",
"238 286 OFFCURVE",
"223 251 CURVE SMOOTH",
"201 201 OFFCURVE",
"177 175 OFFCURVE",
"180 139 CURVE SMOOTH",
"183 105 OFFCURVE",
"205 99 OFFCURVE",
"219 83 CURVE SMOOTH",
"236 64 OFFCURVE",
"234 38 OFFCURVE",
"215 25 CURVE SMOOTH",
"193 10 OFFCURVE",
"168 14 OFFCURVE",
"143 1 CURVE SMOOTH",
"117 -12 OFFCURVE",
"97 -41 OFFCURVE",
"65 -41 CURVE SMOOTH",
"15 -41 OFFCURVE",
"31 19 OFFCURVE",
"65 41 CURVE SMOOTH",
"88 56 OFFCURVE",
"109 75 OFFCURVE",
"111 102 CURVE SMOOTH",
"113 128 OFFCURVE",
"98 162 OFFCURVE",
"111 202 CURVE SMOOTH",
"118 223 OFFCURVE",
"149 269 OFFCURVE",
"159 301 CURVE SMOOTH",
"169 334 OFFCURVE",
"150 343 OFFCURVE",
"128 331 CURVE SMOOTH",
"113 323 OFFCURVE"
);
}
);
width = 526;
}
);
leftKerningGroup = n;
rightKerningGroup = n;
unicode = 006E;
},
{
glyphname = o;
lastChange = "2022-01-26 02:23:57 +0000";
layers = (
{
layerId = "A0EF8C6F-60C0-4D2A-A4F7-7A1091FA18C1";
paths = (
{
closed = 1;
nodes = (
"270 475 OFFCURVE",
"245 416 OFFCURVE",
"278 398 CURVE SMOOTH",
"307 383 OFFCURVE",
"357 409 OFFCURVE",
"385 381 CURVE SMOOTH",
"410 355 OFFCURVE",
"400 323 OFFCURVE",
"411 305 CURVE SMOOTH",
"425 282 OFFCURVE",
"432 256 OFFCURVE",
"426 219 CURVE SMOOTH",
"418 177 OFFCURVE",
"390 150 OFFCURVE",
"355 134 CURVE SMOOTH",
"312 114 OFFCURVE",
"317 88 OFFCURVE",
"291 59 CURVE SMOOTH",
"260 28 OFFCURVE",
"204 7 OFFCURVE",
"170 13 CURVE SMOOTH",
"130 20 OFFCURVE",
"138 54 OFFCURVE",
"109 70 CURVE SMOOTH",
"82 86 OFFCURVE",
"57 76 OFFCURVE",
"44 101 CURVE SMOOTH",
"29 129 OFFCURVE",
"36 154 OFFCURVE",
"36 182 CURVE SMOOTH",
"36 212 OFFCURVE",
"23 265 OFFCURVE",
"36 292 CURVE SMOOTH",
"51 326 OFFCURVE",
"82 335 OFFCURVE",
"109 364 CURVE SMOOTH",
"133 389 OFFCURVE",
"127 457 OFFCURVE",
"195 465 CURVE SMOOTH"
);
},
{
closed = 1;
nodes = (
"106 322 OFFCURVE",
"78 155 OFFCURVE",
"141 134 CURVE SMOOTH",
"203 114 OFFCURVE",
"229 153 OFFCURVE",
"270 162 CURVE SMOOTH",
"358 185 OFFCURVE",
"363 282 OFFCURVE",
"314 305 CURVE SMOOTH",
"282 321 OFFCURVE",
"266 294 OFFCURVE",
"236 302 CURVE SMOOTH",
"210 308 OFFCURVE",
"195 325 OFFCURVE",
"170 325 CURVE SMOOTH"
);
}
);
width = 463;
}
);
leftKerningGroup = o;
rightKerningGroup = o;
unicode = 006F;
},
